<?xml version="1.0" encoding="UTF-8"?>
<svg xmlns="http://www.w3.org/2000/svg" xmlns:xlink="http://www.w3.org/1999/xlink" viewBox="0 0 512 512">
  <defs>
    <style>
      .cls-1, .cls-2 {
        fill: none;
      }

      .cls-3 {
        fill: url(#linear-gradient-2);
        mix-blend-mode: color-burn;
        opacity: .59;
      }

      .cls-4 {
        fill: #92bdc8;
      }

      .cls-5 {
        isolation: isolate;
      }

      .cls-6 {
        fill: url(#linear-gradient);
        opacity: .21;
      }

      .cls-2 {
        stroke: url(#New_Pattern_Swatch_1);
        stroke-miterlimit: 10;
        stroke-width: 8px;
      }
    </style>
    <linearGradient id="linear-gradient" x1="20.33" y1="489.95" x2="489" y2="21.28" gradientUnits="userSpaceOnUse">
      <stop offset=".47" stop-color="#e4f1fb"/>
      <stop offset=".51" stop-color="#dae8f3"/>
      <stop offset=".63" stop-color="#bdcbd9"/>
      <stop offset=".74" stop-color="#abbaca"/>
      <stop offset=".82" stop-color="#a5b4c5"/>
    </linearGradient>
    <linearGradient id="linear-gradient-2" x1="96.68" y1="-23.12" x2="418.53" y2="534.35" gradientUnits="userSpaceOnUse">
      <stop offset="0" stop-color="#fff"/>
      <stop offset="1" stop-color="#d5e9f8"/>
    </linearGradient>
    <pattern id="New_Pattern_Swatch_1" data-name="New Pattern Swatch 1" x="0" y="0" width="74.6" height="74.6" patternTransform="translate(-2089.89 -164.94)" patternUnits="userSpaceOnUse" viewBox="0 0 74.6 74.6">
      <g>
        <rect class="cls-1" width="74.6" height="74.6"/>
        <rect class="cls-4" x="0" width="74.6" height="74.6"/>
      </g>
    </pattern>
  </defs>
  <g class="cls-5">
    <g id="Layer_3" data-name="Layer 3">
      <g>
        <rect class="cls-6" x="5.82" y="8.05" width="497.69" height="495.12" rx="47.21" ry="47.21"/>
        <rect class="cls-3" x="8.7" y="9.63" width="497.82" height="491.96" rx="42.61" ry="42.61"/>
      </g>
    </g>
    <g id="Layer_2" data-name="Layer 2">
      <g>
        <path class="cls-2" d="M316.17,311.66c11.04-25.28,35.12-76.53,40.67-88.78,3.09-6.83,12.15-31.37,20.34-51.4"/>
        <path class="cls-2" d="M336.93,176.48c-14.08,30.04-36.57,71.76-40.78,80.11-6.18,12.26-11.58,15.02-30.04,15.02h-105.14c-31.29,0-7.2,70.09,26.17,70.09h33.91"/>
        <path class="cls-2" d="M281.13,306.65c-33.57,0-60.08,9.5-60.08,20.03v30.04c0,10.52,26.51,20.03,60.08,20.03s60.08-9.5,60.08-20.03v-30.04c0-10.52-26.51-20.03-60.08-20.03Z"/>
        <path class="cls-2" d="M326.19,329.74c-10.95,4.19-26.98,6.95-45.06,6.95s-34.1-2.76-45.05-6.94"/>
      </g>
    </g>
  </g>
</svg>