<?xml version="1.0" encoding="UTF-8"?>
<svg xmlns="http://www.w3.org/2000/svg" xmlns:xlink="http://www.w3.org/1999/xlink" viewBox="0 0 512 512">
  <defs>
    <style>
      .cls-1 {
        fill: #58585a;
      }

      .cls-1, .cls-2, .cls-3, .cls-4, .cls-5, .cls-6, .cls-7 {
        fill-rule: evenodd;
      }

      .cls-8 {
        fill: none;
      }

      .cls-2, .cls-9 {
        fill: #fff;
      }

      .cls-10 {
        fill: url(#linear-gradient-2);
        mix-blend-mode: color-burn;
        opacity: .59;
      }

      .cls-11 {
        fill: #92bdc8;
      }

      .cls-12 {
        isolation: isolate;
      }

      .cls-13 {
        fill: url(#linear-gradient);
        opacity: .21;
      }

      .cls-4 {
        fill: url(#New_Pattern_Swatch_1-3);
      }

      .cls-5 {
        fill: url(#New_Pattern_Swatch_1-5);
      }

      .cls-6 {
        fill: url(#New_Pattern_Swatch_1-2);
      }

      .cls-7 {
        fill: url(#New_Pattern_Swatch_1-4);
      }

      .cls-14 {
        fill: url(#New_Pattern_Swatch_1);
      }
    </style>
    <linearGradient id="linear-gradient" x1="20.33" y1="489.95" x2="489" y2="21.28" gradientUnits="userSpaceOnUse">
      <stop offset=".47" stop-color="#e4f1fb"/>
      <stop offset=".51" stop-color="#dae8f3"/>
      <stop offset=".63" stop-color="#bdcbd9"/>
      <stop offset=".74" stop-color="#abbaca"/>
      <stop offset=".82" stop-color="#a5b4c5"/>
    </linearGradient>
    <linearGradient id="linear-gradient-2" x1="96.68" y1="-23.12" x2="418.53" y2="534.35" gradientUnits="userSpaceOnUse">
      <stop offset="0" stop-color="#fff"/>
      <stop offset="1" stop-color="#d5e9f8"/>
    </linearGradient>
    <pattern id="New_Pattern_Swatch_1" data-name="New Pattern Swatch 1" x="0" y="0" width="74.6" height="74.6" patternTransform="translate(-909.26 6903.82) scale(1.92)" patternUnits="userSpaceOnUse" viewBox="0 0 74.6 74.6">
      <g>
        <rect class="cls-8" width="74.6" height="74.6"/>
        <rect class="cls-11" x="0" width="74.6" height="74.6"/>
      </g>
    </pattern>
    <pattern id="New_Pattern_Swatch_1-2" data-name="New Pattern Swatch 1" patternTransform="translate(-7987.37 -164.94)" xlink:href="#New_Pattern_Swatch_1"/>
    <pattern id="New_Pattern_Swatch_1-3" data-name="New Pattern Swatch 1" patternTransform="translate(-7987.37 -164.94)" xlink:href="#New_Pattern_Swatch_1"/>
    <pattern id="New_Pattern_Swatch_1-4" data-name="New Pattern Swatch 1" patternTransform="translate(-7987.37 -164.94)" xlink:href="#New_Pattern_Swatch_1"/>
    <pattern id="New_Pattern_Swatch_1-5" data-name="New Pattern Swatch 1" patternTransform="translate(-7987.37 -164.94)" xlink:href="#New_Pattern_Swatch_1"/>
  </defs>
  <g class="cls-12">
    <g id="Layer_3" data-name="Layer 3">
      <g>
        <rect class="cls-13" x="5.82" y="8.05" width="497.69" height="495.12" rx="47.21" ry="47.21"/>
        <path class="cls-10" d="M51.31,9.63h412.59c23.52,0,42.61,19.09,42.61,42.61v406.74c0,23.52-19.09,42.61-42.61,42.61H51.31c-23.52,0-42.61-19.09-42.61-42.61V52.25c0-23.52,19.09-42.61,42.61-42.61Z"/>
      </g>
    </g>
    <g id="Layer_2" data-name="Layer 2">
      <path class="cls-14" d="M315.85,169.98h-119.7c-6.88,0-12.47,5.59-12.47,12.47v179.55c0,6.88,5.59,12.47,12.47,12.47h119.7c6.88,0,12.47-5.59,12.47-12.47v-179.55c0-6.88-5.59-12.47-12.47-12.47ZM323.33,362c0,4.12-3.36,7.48-7.48,7.48h-119.7c-4.13,0-7.48-3.36-7.48-7.48v-179.55c0-4.12,3.36-7.48,7.48-7.48h119.7c4.13,0,7.48,3.36,7.48,7.48v179.55Z"/>
      <g>
        <path class="cls-6" d="M245.18,239.4c12.85-6.81,26.72-8.27,38.02-5.59,25.79,6.12,27.83,25.49,14.08,45.53-6.28,9.15-15.59,17.96-26.81,23.51-18.38,9.09-36.04,9.61-47.61,2.6-11.61-7.04-14.42-18.84-10.28-31.39,4.34-13.13,16.2-26.55,32.58-34.65h0Z"/>
        <path class="cls-9" d="M285.73,254.19v.03c-.08.7-.06,1.43.04,2.17.11.81.33,1.65.64,2.48.44,1.17,1.02,2.23,1.73,3.11.64.79,1.38,1.44,2.2,1.9,1.06.45,2.02.65,2.82.64.66-.01,1.18-.18,1.51-.48.25-.23.4-.59.47-1.09.1-.68.03-1.56-.2-2.65-.06-.29-.13-.57-.21-.84-.08-.26-.17-.53-.27-.82-.53-1.42-1.29-2.71-2.23-3.7-.81-.85-1.76-1.48-2.81-1.76-1.1-.29-2.04-.32-2.71-.07-.44.17-.78.5-.96,1l-.02.09h0ZM285.24,236.84c5.47-2.04,10.92-1.58,15.53.7,4.8,2.37,8.68,6.69,10.73,12.17,1.15,3.07,1.62,6.25,1.44,9.32-.17,3.07-1,6.04-2.44,8.69-.06.12-.15.31-.28.55-.12.23-.23.41-.32.56-2.23,3.66-4.51,6.27-6.8,8.17-2.32,1.94-4.63,3.14-6.9,3.99-5.59,2.09-11.12,1.63-15.8-.63-4.91-2.37-8.85-6.74-10.9-12.23-1.12-3.01-1.63-6.01-1.54-8.93.09-2.95.8-5.79,2.12-8.45.98-1.98,2.55-4.25,4.58-6.42,1.78-1.92,3.94-3.78,6.36-5.35l.03-.02c.63-.42,1.29-.81,1.99-1.16.71-.36,1.44-.69,2.19-.97h0Z"/>
        <path class="cls-9" d="M259.61,246.95l9.33-3.49c.84-.32,1.78.11,2.1.96.02.05.03.09.04.14l13.31,35.5c.11.19.18.41.2.65.05.5-.14.97-.47,1.3l-4.36,4.37c-.18.18-.4.31-.63.39l-7.7,2.84c-.51.19-1.04.11-1.46-.17h0s-8.72-5.78-8.72-5.78l1.63,4.39c.15.25.24.55.23.86,0,.44-.19.84-.48,1.13l-4.37,4.35c-.17.17-.37.29-.58.37h0s-9.42,3.52-9.42,3.52c-.84.32-1.78-.11-2.1-.96l-13.4-35.87c-.25-.66-.04-1.39.48-1.82l4.24-4.26c.18-.18.4-.31.63-.39l8.21-3.02c.5-.19,1.04-.11,1.45.17h0s7.99,5.21,7.99,5.21l-1.46-3.93c-.23-.62-.06-1.28.37-1.72l4.34-4.36c.17-.17.37-.3.58-.37h0Z"/>
        <path class="cls-9" d="M227.72,305.76c-3.67.39-6.89-.33-9.65-1.98-3.73-2.22-6.53-6.09-8.41-11.11l-7.4-19.81c-.25-.66-.04-1.39.48-1.82l4.24-4.26c.17-.17.37-.3.58-.37h0s9.41-3.52,9.41-3.52c.84-.32,1.78.11,2.1.96l7.56,20.24c.44,1.18,1.07,2.27,1.91,2.99.64.56,1.44.92,2.41.96.2,0,.42.01.59-.02,0-.37-.03-.74-.1-1.11-.1-.56-.26-1.13-.48-1.71l-7.56-20.24c-.25-.67-.04-1.39.48-1.82l4.1-4.11c.18-.23.42-.42.72-.53l9.41-3.52c.84-.32,1.78.11,2.1.96l7.49,20.05c1.16,3.1,1.73,6.04,1.69,8.8-.04,2.79-.7,5.37-2,7.7-1.02,1.82-3.01,3.75-4.99,5.66-.45.43-.89.86-1.27,1.23l-.03.03c-.74.79-1.58,1.52-2.51,2.18-3.2,2.29-6.97,3.72-10.87,4.14h0Z"/>
        <polygon class="cls-3" points="260.19 248.48 269.52 244.99 282.97 280.86 282.99 280.85 278.63 285.22 270.89 288.08 258 279.52 261.48 288.86 261.44 288.87 261.51 288.87 257.14 293.22 247.72 296.74 234.32 260.87 238.66 256.51 246.91 253.48 259.04 261.4 255.85 252.84 260.19 248.48 260.19 248.48"/>
        <path class="cls-3" d="M285.81,238.37c10.28-3.84,20.44,1.96,24.16,11.91,2.15,5.74,1.75,11.87-.95,16.76-.14.31-.31.62-.5.95-4.27,7-8.63,9.9-12.87,11.48-10.59,3.96-20.89-1.98-24.6-11.91-2.11-5.64-1.91-11.19.51-16.09,1.72-3.48,5.47-7.96,10.36-11.12h0c1.18-.79,2.48-1.46,3.9-1.99h0ZM284.12,253.89c.02-.06.03-.11.05-.17.68-2.22,2.88-2.87,5.68-2.13,2.83.75,4.99,3.36,6.14,6.46.23.62.42,1.26.55,1.89.53,2.54.3,4.28-.76,5.27-1.24,1.15-3.52,1.25-6.12.13-2.15-1.14-3.81-3.32-4.78-5.91-.69-1.85-.97-3.77-.76-5.55h0Z"/>
        <polygon class="cls-3" points="266.92 266.55 260.19 248.48 269.52 244.99 282.97 280.86 275.23 283.72 254.42 269.91 261.48 288.86 252.06 292.38 238.66 256.51 246.91 253.48 266.92 266.55 266.92 266.55"/>
        <polygon class="cls-2" points="269.4 269.65 261.78 249.21 268.79 246.59 281.37 280.13 275.39 282.33 251.93 266.77 259.88 288.13 252.79 290.78 240.26 257.25 246.75 254.86 269.4 269.65 269.4 269.65"/>
        <polygon class="cls-4" points="258.77 287.63 253.29 289.67 241.37 257.76 246.64 255.82 271.13 271.81 262.89 249.71 268.29 247.7 280.26 279.62 275.5 281.37 250.2 264.58 258.77 287.63 258.77 287.63"/>
        <path class="cls-3" d="M285.81,238.37c10.28-3.84,20.44,1.96,24.16,11.91,3.71,9.93-.18,21.01-10.43,24.84-10.25,3.83-20.45-1.99-24.16-11.91-3.72-9.96.15-21,10.43-24.84h0ZM289.21,247.46c-5.18,1.94-6.1,7.23-4.33,11.98,1.78,4.76,5.93,8.15,11.12,6.21,5.2-1.94,6.09-7.22,4.31-11.98-1.77-4.75-5.92-8.15-11.11-6.22h0Z"/>
        <path class="cls-2" d="M286.25,239.53c9.63-3.6,19.08,1.87,22.57,11.19,3.47,9.29-.1,19.66-9.7,23.24-9.6,3.59-19.09-1.89-22.57-11.19-3.48-9.32.07-19.64,9.7-23.24h0ZM288.77,246.3c-5.85,2.18-7.07,8.18-5.05,13.58,2.02,5.41,6.86,9.13,12.72,6.94,5.86-2.19,7.06-8.17,5.04-13.57-2.02-5.4-6.85-9.13-12.7-6.94h0Z"/>
        <path class="cls-7" d="M288.47,245.49c6.09-2.28,11.53,1.34,13.81,7.45,2.28,6.11.57,12.4-5.54,14.68-6.11,2.28-11.55-1.33-13.83-7.44-2.28-6.11-.53-12.41,5.56-14.69h0ZM286.55,240.34c9.01-3.37,18.07,1.62,21.46,10.68,3.39,9.06-.24,18.79-9.2,22.13-8.96,3.35-18.07-1.62-21.46-10.68-3.39-9.06.18-18.77,9.2-22.13h0Z"/>
        <path class="cls-3" d="M226.7,304.21c-7.42.42-12.61-4.34-15.51-12.1l-7.4-19.81,4.34-4.36,9.41-3.51,7.56,20.24c.98,2.61,2.8,4.88,5.78,5.01.85.03,2.03-.03,2.27-1.19.08-1.26-.19-2.59-.66-3.84l-7.56-20.24,4.34-4.35h0s.01-.01.01-.01h0s0,0,0,0l9.38-3.51,7.49,20.05c2.17,5.8,2.15,10.94-.2,15.13-1.11,1.98-3.73,4.31-5.98,6.53h0c-3.33,3.59-8.48,5.7-13.28,5.97h0Z"/>
        <path class="cls-3" d="M239.07,297.65l.04.11-1.97.74c-.06.02-.12.04-.14.05-.06.02-.13.05-.19.07l-1.97.74-.04-.11c-9.44,2.48-15.89-2.47-19.26-11.49l-7.4-19.81,9.41-3.51,7.56,20.24c.98,2.61,2.8,4.88,5.78,5.01.89.04,1.78-.13,2.61-.44.85-.32,1.64-.79,2.3-1.41,2.15-2.05,2.01-4.95,1.04-7.54l-7.56-20.24,9.41-3.52,7.49,20.05c3.41,9.12,1.72,16.79-7.09,21.07h0Z"/>
        <path class="cls-2" d="M237.51,297v.03s-.8.3-.8.3c-.06.02-.12.04-.15.06-.06.02-.12.05-.18.07l-.81.3v-.03c-9.34,2.97-15.56-1.56-18.87-10.41l-6.97-18.65,7.08-2.65,7.13,19.07c1.16,3.1,3.39,5.67,6.89,5.81,1.06.04,2.11-.15,3.1-.52,1.01-.38,1.94-.93,2.72-1.68,2.52-2.41,2.5-5.79,1.34-8.87l-7.13-19.07,7.08-2.65,7.06,18.89c3.34,8.94,1.56,16.11-7.5,19.99h0Z"/>
        <path class="cls-5" d="M210.84,269.17l5.47-2.04,6.83,18.27c2.26,6.04,7.05,7.27,11.1,5.8,4.02-1.54,6.88-5.6,4.57-11.66l-6.83-18.27,5.47-2.04,6.76,18.08c2.7,7.22,2.73,15.11-7.79,19.2h0c-.05.02-.11.04-.16.06-.06.02-.11.04-.17.07h0c-10.34,3.69-15.8-2.24-18.57-9.64l-6.67-17.84h0Z"/>
        <path class="cls-1" d="M257.25,253.14l3.4-3.42,1.91,5.11-3.39,3.42-1.91-5.11h0ZM259.8,259.96l3.4-3.42.72,1.94-3.39,3.42-.72-1.93h0Z"/>
        <path class="cls-1" d="M226.34,264.68l3.4-3.42,1.91,5.11-3.39,3.42-1.91-5.11h0ZM228.89,271.51l3.4-3.42.72,1.94-3.39,3.42-.72-1.93h0Z"/>
        <path class="cls-1" d="M209.49,284.09l3.4-3.42,1.91,5.11-3.39,3.42-1.91-5.11h0ZM212.04,290.91l3.4-3.42h0s.09.25.09.25c.22.58.44,1.14.68,1.68l-3.44,3.46-.74-1.97h0Z"/>
        <path class="cls-1" d="M293.42,252.08l3.42-3.44c1.25,1.01,2.28,2.39,3.03,3.98l-3.39,3.41c-.76-1.49-1.78-2.89-3.06-3.95h0ZM297.2,257.66l3.34-3.36c.23.72.4,1.44.5,2.16l-3.25,3.27v-.04c-.15-.69-.35-1.37-.59-2.03h0Z"/>
      </g>
    </g>
  </g>
</svg>