<?xml version="1.0" encoding="UTF-8"?>
<svg xmlns="http://www.w3.org/2000/svg" xmlns:xlink="http://www.w3.org/1999/xlink" viewBox="0 0 512 512">
  <defs>
    <style>
      .cls-1 {
        fill: none;
      }

      .cls-2 {
        fill: url(#linear-gradient-2);
        mix-blend-mode: color-burn;
        opacity: .59;
      }

      .cls-3 {
        fill: #92bdc8;
      }

      .cls-4 {
        isolation: isolate;
      }

      .cls-5 {
        fill: url(#linear-gradient);
        opacity: .21;
      }

      .cls-6 {
        fill: url(#New_Pattern_Swatch_1);
      }
    </style>
    <linearGradient id="linear-gradient" x1="20.33" y1="489.95" x2="489" y2="21.28" gradientUnits="userSpaceOnUse">
      <stop offset=".47" stop-color="#e4f1fb"/>
      <stop offset=".51" stop-color="#dae8f3"/>
      <stop offset=".63" stop-color="#bdcbd9"/>
      <stop offset=".74" stop-color="#abbaca"/>
      <stop offset=".82" stop-color="#a5b4c5"/>
    </linearGradient>
    <linearGradient id="linear-gradient-2" x1="96.68" y1="-23.12" x2="418.53" y2="534.35" gradientUnits="userSpaceOnUse">
      <stop offset="0" stop-color="#fff"/>
      <stop offset="1" stop-color="#d5e9f8"/>
    </linearGradient>
    <pattern id="New_Pattern_Swatch_1" data-name="New Pattern Swatch 1" x="0" y="0" width="74.6" height="74.6" patternTransform="translate(-6676.82 -164.94)" patternUnits="userSpaceOnUse" viewBox="0 0 74.6 74.6">
      <g>
        <rect class="cls-1" width="74.6" height="74.6"/>
        <rect class="cls-3" x="0" width="74.6" height="74.6"/>
      </g>
    </pattern>
  </defs>
  <g class="cls-4">
    <g id="Layer_3" data-name="Layer 3">
      <g>
        <rect class="cls-5" x="5.82" y="8.05" width="497.69" height="495.12" rx="47.21" ry="47.21"/>
        <rect class="cls-2" x="8.7" y="9.63" width="497.82" height="491.96" rx="42.61" ry="42.61"/>
      </g>
    </g>
    <g id="Layer_2" data-name="Layer 2">
      <g>
        <g>
          <path class="cls-6" d="M172.51,369.02h-77.05c-4.13,0-7.48-3.36-7.48-7.48v-179.54c0-4.13,3.36-7.48,7.48-7.48h70.88v-4.99h-70.88c-6.88,0-12.47,5.59-12.47,12.47v179.54c0,6.88,5.59,12.47,12.47,12.47h77.05v-4.99Z"/>
          <path class="cls-6" d="M152.05,223.9l-2.06-12.2c-.22-1.36-1.54-2.27-2.87-2.05-1.36.23-2.27,1.51-2.05,2.87l1.8,10.64c-2.22-.73-5.03-1.24-8.03-.71-4.06.71-7.52,3.09-10.31,7.08-.79,1.13-.52,2.68.62,3.47,1.19.84,2.74.43,3.47-.62,6.37-9.17,15.1-3.55,16.08-2.87.82.56,1.9.59,2.76.06.23-.15.43-.33.59-.53v-5.15Z"/>
          <path class="cls-6" d="M152.05,293.94c-1.61-.74-2.7-1.75-2.95-2-.97-.97-2.55-.97-3.53,0s-.97,2.55,0,3.53c1.41,1.41,3.72,2.99,6.48,3.79v-5.31Z"/>
          <path class="cls-6" d="M147.33,269.52c0-1.38-1.12-2.49-2.49-2.49h-4.99c-1.38,0-2.49,1.12-2.49,2.49s1.12,2.49,2.49,2.49h4.99c1.38,0,2.49-1.12,2.49-2.49Z"/>
          <path class="cls-6" d="M152.05,336.42l-18.83-12.56-.24-14.6,14.44,7.22c1.48.74,3.04,1.25,4.63,1.55v-5.11c-.82-.22-1.63-.51-2.4-.9l-16.29-8.14c-3.74-1.87-5.48-5.73-5.48-12.17v-38.24c3.03-1.16,11.13-3.72,24.17-4.1v-4.99c-11.85.32-19.9,2.35-24.17,3.78v-4.67c3.03-1.16,11.13-3.72,24.17-4.1v-4.99c-13.19.36-21.67,2.84-25.47,4.24l-8.34-16.68c2.35-3.77,11.8-16.3,33.81-17.44v-5c-28.59,1.36-38.45,20.4-38.87,21.24-.35.7-.35,1.53,0,2.23l9.71,19.42v13.88h-3.49c-3.57,0-6.49,2.91-6.49,6.48v7.98c0,3.57,2.91,6.48,6.49,6.48h3.49v14.47c0,6.59,1.66,11.35,5.04,14.44l.24,14.35-1.41-.94c-.75-.5-1.71-.56-2.5-.16l-19.95,9.97c-1.23.62-1.73,2.11-1.12,3.35s2.11,1.74,3.35,1.12l18.65-9.33,26.84,17.89v-5.99ZM122.89,272.26h-3.49c-.83,0-1.5-.67-1.5-1.5v-7.98c0-.82.67-1.5,1.5-1.5h3.49v10.97Z"/>
          <path class="cls-6" d="M95.46,204.43h9.97c1.38,0,2.49-1.12,2.49-2.49v-19.95c0-1.38-1.12-2.49-2.49-2.49s-2.49,1.12-2.49,2.49v17.46h-4.99v-2.49c0-1.38-1.12-2.49-2.49-2.49s-2.49,1.12-2.49,2.49v4.99c0,1.38,1.12,2.49,2.49,2.49Z"/>
          <path class="cls-6" d="M107.2,339.82c-.97-.97-2.55-.97-3.53,0l-9.97,9.97c-.97.97-.97,2.55,0,3.53l9.97,9.97c.97.97,2.55.97,3.53,0l9.97-9.97c.97-.97.97-2.55,0-3.53l-9.97-9.97ZM105.44,358.01l-6.45-6.45,6.45-6.45,6.45,6.45-6.45,6.45Z"/>
        </g>
        <g>
          <path class="cls-6" d="M416.54,339.07h-9.97c-1.38,0-2.49,1.12-2.49,2.49v19.95c0,1.37,1.12,2.49,2.49,2.49s2.49-1.12,2.49-2.49v-17.46h4.99v2.49c0,1.37,1.12,2.49,2.49,2.49s2.49-1.12,2.49-2.49v-4.99c0-1.37-1.12-2.49-2.49-2.49Z"/>
          <path class="cls-6" d="M406.56,181.19c-4.08-3.36-12.47-1.91-12.47,6.78,0,6.43,9.05,14.37,10.87,15.9.46.39,1.03.59,1.6.59s1.14-.2,1.6-.59c1.82-1.53,10.87-9.46,10.87-15.9,0-8.7-8.39-10.14-12.47-6.78ZM406.56,198.61c-3.51-3.29-7.48-8.01-7.48-10.64,0-2.47,1.09-3.51,2.56-3.51.94,0,2.43.54,2.43,1.98s1.12,2.5,2.49,2.5,2.49-1.12,2.49-2.5,1.49-1.98,2.43-1.98c1.48,0,2.56,1.04,2.56,3.51,0,2.63-3.97,7.36-7.48,10.64Z"/>
          <path class="cls-6" d="M308.42,339.67c-.46-.39-1.03-.59-1.6-.59s-1.14.2-1.6.59c-1.82,1.53-10.87,9.46-10.87,15.9,0,8.7,8.39,10.14,12.47,6.78,4.08,3.36,12.47,1.91,12.47-6.78,0-6.43-9.05-14.37-10.87-15.9ZM311.74,359.07c-.94,0-2.43-.54-2.43-1.98s-1.12-2.5-2.49-2.5-2.49,1.12-2.49,2.5-1.49,1.98-2.43,1.98c-1.48,0-2.56-1.04-2.56-3.51,0-2.63,3.97-7.36,7.48-10.64,3.51,3.29,7.48,8.01,7.48,10.64,0,2.47-1.09,3.51-2.56,3.51Z"/>
          <path class="cls-6" d="M351.37,211.67c-.22-1.36-1.54-2.27-2.87-2.05-1.36.23-2.27,1.51-2.05,2.87l1.8,10.64c-2.22-.73-5.03-1.24-8.03-.71-4.06.71-7.52,3.09-10.31,7.08-.79,1.13-.52,2.68.62,3.47,1.19.84,2.74.43,3.47-.62,6.37-9.17,15.1-3.55,16.08-2.87.82.56,1.9.59,2.76.06.85-.54,1.29-1.53,1.13-2.52l-2.59-15.36Z"/>
          <path class="cls-6" d="M360.54,229.55c.86.53,1.94.51,2.76-.06.97-.67,9.71-6.3,16.08,2.87.73,1.05,2.28,1.46,3.47.62,1.13-.79,1.41-2.34.62-3.47-2.79-3.99-6.25-6.37-10.31-7.08-3-.53-5.82-.01-8.03.71l1.8-10.64c.23-1.36-.69-2.64-2.05-2.87-1.33-.23-2.65.69-2.87,2.05l-2.59,15.36c-.17.99.28,1.98,1.13,2.52Z"/>
          <path class="cls-6" d="M362.91,291.91c-5.98,5.97-11.8.62-12.43,0-.97-.97-2.55-.97-3.53,0s-.97,2.55,0,3.53c1.98,1.98,5.71,4.3,10.02,4.3,3.01,0,6.3-1.13,9.47-4.3.97-.97.97-2.55,0-3.53-.97-.97-2.55-.97-3.53,0Z"/>
          <path class="cls-6" d="M372.15,267h-4.99c-1.38,0-2.49,1.12-2.49,2.49s1.12,2.49,2.49,2.49h4.99c1.38,0,2.49-1.12,2.49-2.49s-1.12-2.49-2.49-2.49Z"/>
          <path class="cls-6" d="M348.71,269.5c0-1.38-1.12-2.49-2.49-2.49h-4.99c-1.38,0-2.49,1.12-2.49,2.49s1.12,2.49,2.49,2.49h4.99c1.38,0,2.49-1.12,2.49-2.49Z"/>
          <path class="cls-6" d="M408.79,332.7c.61-1.23.12-2.73-1.12-3.35l-19.95-9.97c-.8-.4-1.75-.34-2.5.16l-1.41.94.24-14.35c3.38-3.09,5.04-7.84,5.04-14.44v-14.47h3.49c3.57,0,6.48-2.91,6.48-6.48v-7.98c0-3.57-2.91-6.48-6.48-6.48h-3.49v-13.88l9.71-19.42c.35-.7.35-1.53,0-2.23-.43-.87-11.02-21.33-42.13-21.33s-41.7,20.46-42.13,21.33c-.35.7-.35,1.53,0,2.23l9.71,19.42v13.88h-3.49c-3.57,0-6.49,2.91-6.49,6.48v7.98c0,3.57,2.91,6.48,6.49,6.48h3.49v14.47c0,6.59,1.66,11.35,5.04,14.44l.24,14.35-1.41-.94c-.75-.5-1.71-.56-2.5-.16l-19.95,9.97c-1.23.62-1.73,2.11-1.12,3.35.61,1.23,2.11,1.74,3.35,1.12l18.65-9.33,28.72,19.15c.42.28.9.42,1.38.42s.96-.14,1.38-.42l28.72-19.15,18.65,9.33c1.24.63,2.73.12,3.35-1.12ZM324.27,272.23h-3.49c-.83,0-1.5-.67-1.5-1.5v-7.98c0-.82.67-1.5,1.5-1.5h3.49v10.97ZM384.12,248.14c-4.65-1.56-13.78-3.83-27.43-3.83s-22.78,2.27-27.43,3.83v-4.67c3.28-1.26,12.47-4.15,27.43-4.15s24.15,2.9,27.43,4.15v4.67ZM392.6,261.26c.82,0,1.5.67,1.5,1.5v7.98c0,.82-.67,1.5-1.5,1.5h-3.49v-10.97h3.49ZM319.62,221.94c2.46-3.95,12.71-17.53,37.07-17.53s34.6,13.58,37.07,17.53l-8.34,16.68c-4.11-1.52-13.67-4.29-28.73-4.29s-24.62,2.77-28.73,4.29l-8.34-16.68ZM378.79,323.83l-22.09,14.73-22.09-14.73-.24-14.6,14.44,7.22c2.47,1.24,5.19,1.85,7.89,1.85s5.43-.61,7.9-1.85l14.43-7.22-.24,14.59ZM378.65,303.85l-16.29,8.14c-3.54,1.77-7.78,1.78-11.33,0l-16.29-8.14c-3.74-1.87-5.48-5.73-5.48-12.17v-38.24c3.28-1.26,12.47-4.15,27.43-4.15s24.15,2.9,27.43,4.15v38.24c0,6.43-1.74,10.3-5.47,12.17Z"/>
          <path class="cls-6" d="M416.54,169.5h-119.7c-6.88,0-12.47,5.59-12.47,12.47v179.54c0,6.88,5.59,12.47,12.47,12.47h119.7c6.88,0,12.47-5.59,12.47-12.47v-179.54c0-6.88-5.59-12.47-12.47-12.47ZM424.02,361.51c0,4.13-3.36,7.48-7.48,7.48h-119.7c-4.13,0-7.48-3.36-7.48-7.48v-179.54c0-4.13,3.36-7.48,7.48-7.48h119.7c4.13,0,7.48,3.36,7.48,7.48v179.54Z"/>
          <path class="cls-6" d="M296.84,204.41h9.97c1.38,0,2.49-1.12,2.49-2.49v-19.95c0-1.38-1.12-2.49-2.49-2.49s-2.49,1.12-2.49,2.49v17.46h-4.99v-2.49c0-1.38-1.12-2.49-2.49-2.49s-2.49,1.12-2.49,2.49v4.99c0,1.38,1.12,2.49,2.49,2.49Z"/>
        </g>
        <path class="cls-6" d="M175.94,344.08c-.87,0-1.71.16-2.49.43v-2.93c0-1.37-1.12-2.49-2.49-2.49s-2.49,1.12-2.49,2.49v2.93c-.78-.28-1.62-.43-2.49-.43-4.13,0-7.48,3.36-7.48,7.48,0,3.37,2.24,6.22,5.31,7.16.94,3.07,3.79,5.31,7.16,5.31s6.22-2.24,7.16-5.31c3.07-.94,5.31-3.79,5.31-7.16,0-4.12-3.36-7.48-7.48-7.48ZM175.94,354.05c-1.38,0-2.49,1.12-2.49,2.49s-1.12,2.49-2.49,2.49-2.49-1.12-2.49-2.49-1.12-2.49-2.49-2.49-2.49-1.12-2.49-2.49,1.12-2.49,2.49-2.49,2.49,1.12,2.49,2.49,1.12,2.49,2.49,2.49,2.49-1.12,2.49-2.49,1.12-2.49,2.49-2.49,2.49,1.12,2.49,2.49-1.12,2.49-2.49,2.49Z"/>
        <g>
          <path class="cls-6" d="M232.59,369.02h-69.54c-4.13,0-7.48-3.36-7.48-7.48v-179.54c0-4.13,3.36-7.48,7.48-7.48h70.34v-4.99h-70.34c-6.88,0-12.47,5.59-12.47,12.47v179.54c0,6.88,5.59,12.47,12.47,12.47h69.54v-4.99Z"/>
          <path class="cls-6" d="M219.64,223.9l-2.06-12.2c-.22-1.36-1.54-2.27-2.87-2.05-1.36.23-2.27,1.51-2.05,2.87l1.8,10.64c-2.22-.73-5.03-1.24-8.03-.71-4.06.71-7.52,3.09-10.31,7.08-.79,1.13-.52,2.68.62,3.47,1.19.84,2.74.43,3.47-.62,6.37-9.17,15.1-3.55,16.08-2.87.82.56,1.9.59,2.76.06.23-.15.43-.33.59-.53v-5.15Z"/>
          <path class="cls-6" d="M219.64,293.94c-1.61-.74-2.7-1.75-2.95-2-.97-.97-2.55-.97-3.53,0-.97.97-.97,2.55,0,3.53,1.41,1.41,3.72,2.99,6.48,3.79v-5.31Z"/>
          <path class="cls-6" d="M214.92,269.52c0-1.38-1.12-2.49-2.49-2.49h-4.99c-1.38,0-2.49,1.12-2.49,2.49s1.12,2.49,2.49,2.49h4.99c1.38,0,2.49-1.12,2.49-2.49Z"/>
          <path class="cls-6" d="M219.64,336.42l-18.83-12.56-.24-14.6,14.44,7.22c1.48.74,3.04,1.25,4.63,1.55v-5.11c-.82-.22-1.63-.51-2.4-.9l-16.29-8.14c-3.74-1.87-5.48-5.73-5.48-12.17v-38.24c3.03-1.16,11.13-3.72,24.17-4.1v-4.99c-11.85.32-19.9,2.35-24.17,3.78v-4.67c3.03-1.16,11.13-3.72,24.17-4.1v-4.99c-13.19.36-21.67,2.84-25.47,4.24l-8.34-16.68c2.35-3.77,11.8-16.3,33.81-17.44v-5c-28.59,1.36-38.45,20.4-38.87,21.24-.35.7-.35,1.53,0,2.23l9.71,19.42v13.88h-3.49c-3.57,0-6.49,2.91-6.49,6.48v7.98c0,3.57,2.91,6.48,6.49,6.48h3.49v14.47c0,6.59,1.66,11.35,5.04,14.44l.24,14.35-1.41-.94c-.75-.5-1.71-.56-2.5-.16l-19.95,9.97c-1.23.62-1.73,2.11-1.12,3.35s2.11,1.74,3.35,1.12l18.65-9.33,26.84,17.89v-5.99ZM190.48,272.26h-3.49c-.83,0-1.5-.67-1.5-1.5v-7.98c0-.82.67-1.5,1.5-1.5h3.49v10.97Z"/>
          <path class="cls-6" d="M163.05,204.43h9.97c1.38,0,2.49-1.12,2.49-2.49v-19.95c0-1.38-1.12-2.49-2.49-2.49s-2.49,1.12-2.49,2.49v17.46h-4.99v-2.49c0-1.38-1.12-2.49-2.49-2.49s-2.49,1.12-2.49,2.49v4.99c0,1.38,1.12,2.49,2.49,2.49Z"/>
        </g>
        <g>
          <path class="cls-6" d="M299.65,369.02h-69.33c-4.13,0-7.48-3.36-7.48-7.48v-179.54c0-4.13,3.36-7.48,7.48-7.48h66.52v-4.99h-66.52c-6.88,0-12.47,5.59-12.47,12.47v179.54c0,6.88,5.59,12.47,12.47,12.47h69.33v-4.99Z"/>
          <path class="cls-6" d="M286.91,223.9l-2.06-12.2c-.22-1.36-1.54-2.27-2.87-2.05-1.36.23-2.27,1.51-2.05,2.87l1.8,10.64c-2.22-.73-5.03-1.24-8.03-.71-4.06.71-7.52,3.09-10.31,7.08-.79,1.13-.52,2.68.62,3.47,1.19.84,2.74.43,3.47-.62,6.37-9.17,15.1-3.55,16.08-2.87.82.56,1.9.59,2.76.06.23-.15.43-.33.59-.53v-5.15Z"/>
          <path class="cls-6" d="M286.91,293.94c-1.61-.74-2.7-1.75-2.95-2-.97-.97-2.55-.97-3.53,0-.97.97-.97,2.55,0,3.53,1.41,1.41,3.72,2.99,6.48,3.79v-5.31Z"/>
          <path class="cls-6" d="M282.19,269.52c0-1.38-1.12-2.49-2.49-2.49h-4.99c-1.38,0-2.49,1.12-2.49,2.49s1.12,2.49,2.49,2.49h4.99c1.38,0,2.49-1.12,2.49-2.49Z"/>
          <path class="cls-6" d="M286.91,336.42l-18.83-12.56-.24-14.6,14.44,7.22c1.48.74,3.04,1.25,4.63,1.55v-5.11c-.82-.22-1.63-.51-2.4-.9l-16.29-8.14c-3.74-1.87-5.48-5.73-5.48-12.17v-38.24c3.03-1.16,11.13-3.72,24.17-4.1v-4.99c-11.85.32-19.9,2.35-24.17,3.78v-4.67c3.03-1.16,11.13-3.72,24.17-4.1v-4.99c-13.19.36-21.67,2.84-25.47,4.24l-8.34-16.68c2.35-3.77,11.8-16.3,33.81-17.44v-5c-28.59,1.36-38.45,20.4-38.87,21.24-.35.7-.35,1.53,0,2.23l9.71,19.42v13.88h-3.49c-3.57,0-6.49,2.91-6.49,6.48v7.98c0,3.57,2.91,6.48,6.49,6.48h3.49v14.47c0,6.59,1.66,11.35,5.04,14.44l.24,14.35-1.41-.94c-.75-.5-1.71-.56-2.5-.16l-19.95,9.97c-1.23.62-1.73,2.11-1.12,3.35s2.11,1.74,3.35,1.12l18.65-9.33,26.84,17.89v-5.99ZM257.75,272.26h-3.49c-.83,0-1.5-.67-1.5-1.5v-7.98c0-.82.67-1.5,1.5-1.5h3.49v10.97Z"/>
          <path class="cls-6" d="M230.32,204.43h9.97c1.38,0,2.49-1.12,2.49-2.49v-19.95c0-1.38-1.12-2.49-2.49-2.49s-2.49,1.12-2.49,2.49v17.46h-4.99v-2.49c0-1.38-1.12-2.49-2.49-2.49s-2.49,1.12-2.49,2.49v4.99c0,1.38,1.12,2.49,2.49,2.49Z"/>
        </g>
        <path class="cls-6" d="M243.13,342.67v-1.91c0-1.37-1.12-2.49-2.49-2.49s-2.49,1.12-2.49,2.49v1.91c-4.44-1.39-9.97,1.11-9.97,8.07s10.29,11.74,11.46,12.25c.63.29,1.37.29,2.01,0,1.17-.52,11.46-5.25,11.46-12.25s-5.54-9.46-9.97-8.07ZM240.64,357.94c-2.95-1.5-7.48-4.56-7.48-7.21s1.18-3.51,2.56-3.51c.94,0,2.43.54,2.43,1.98s1.12,2.49,2.49,2.49,2.49-1.12,2.49-2.49c0-1.44,1.49-1.98,2.43-1.98,1.39,0,2.56.95,2.56,3.51s-4.53,5.71-7.48,7.21Z"/>
      </g>
    </g>
  </g>
</svg>