<?xml version="1.0" encoding="UTF-8"?>
<svg xmlns="http://www.w3.org/2000/svg" xmlns:xlink="http://www.w3.org/1999/xlink" viewBox="0 0 512 512">
  <defs>
    <style>
      .cls-1, .cls-2 {
        fill: none;
      }

      .cls-3 {
        fill: url(#linear-gradient-2);
        mix-blend-mode: color-burn;
        opacity: .59;
      }

      .cls-4 {
        fill: #92bdc8;
      }

      .cls-5 {
        isolation: isolate;
      }

      .cls-6 {
        fill: url(#linear-gradient);
        opacity: .21;
      }

      .cls-2 {
        stroke: url(#New_Pattern_Swatch_1);
        stroke-miterlimit: 10;
        stroke-width: 8px;
      }

      .cls-7 {
        fill: url(#New_Pattern_Swatch_1);
      }
    </style>
    <linearGradient id="linear-gradient" x1="20.33" y1="489.95" x2="489" y2="21.28" gradientUnits="userSpaceOnUse">
      <stop offset=".47" stop-color="#e4f1fb"/>
      <stop offset=".51" stop-color="#dae8f3"/>
      <stop offset=".63" stop-color="#bdcbd9"/>
      <stop offset=".74" stop-color="#abbaca"/>
      <stop offset=".82" stop-color="#a5b4c5"/>
    </linearGradient>
    <linearGradient id="linear-gradient-2" x1="96.68" y1="-23.12" x2="418.53" y2="534.35" gradientUnits="userSpaceOnUse">
      <stop offset="0" stop-color="#fff"/>
      <stop offset="1" stop-color="#d5e9f8"/>
    </linearGradient>
    <pattern id="New_Pattern_Swatch_1" data-name="New Pattern Swatch 1" x="0" y="0" width="74.6" height="74.6" patternTransform="translate(-4055.72 -164.94)" patternUnits="userSpaceOnUse" viewBox="0 0 74.6 74.6">
      <g>
        <rect class="cls-1" width="74.6" height="74.6"/>
        <rect class="cls-4" x="0" width="74.6" height="74.6"/>
      </g>
    </pattern>
  </defs>
  <g class="cls-5">
    <g id="Layer_3" data-name="Layer 3">
      <g>
        <rect class="cls-6" x="5.82" y="8.05" width="497.69" height="495.12" rx="47.21" ry="47.21"/>
        <path class="cls-3" d="M51.31,9.63h412.59c23.52,0,42.61,19.09,42.61,42.61v406.74c0,23.52-19.09,42.61-42.61,42.61H51.31c-23.52,0-42.61-19.09-42.61-42.61V52.25c0-23.52,19.09-42.61,42.61-42.61Z"/>
      </g>
    </g>
    <g id="Layer_2" data-name="Layer 2">
      <g>
        <path class="cls-2" d="M203.88,249.13c7.5-25.11,16.78-50.81,35.46-69.2,19.41-19.1,48.24-28.15,75.08-23.56,26.86,4.57,48.35,23.85,63.56,47.04,15.18,23.17,24.31,50.57,17.79,77.03-6.5,26.45-26.27,49.26-51.54,59.44-24.32,9.81-51.6,8.06-77.6,4.94-5.71-.69-11.46-1.44-17.21-2.18,0,0-.05,0-.15-.01-.11-.02-.21-.04-.34-.05-4.67-.8-41.31-7.39-72.17-22.72,13.79-21.12,19.87-46.5,27.12-70.73Z"/>
        <path class="cls-7" d="M225.14,267.11c3.22,4.93,10.9-.08,7.65-5.02-3.24-4.92-10.9.08-7.65,5.02Z"/>
        <path class="cls-7" d="M260.79,297.66c3.24,4.93,10.9-.09,7.67-5.02-3.24-4.94-10.9.1-7.67,5.02Z"/>
        <path class="cls-7" d="M258.6,318.17c3.24,4.93,10.9-.1,7.65-5.02-3.22-4.94-10.89.08-7.65,5.02Z"/>
        <path class="cls-7" d="M263.16,278.69c3.22,4.92,10.9-.1,7.65-5.02-3.22-4.94-10.89.08-7.65,5.02Z"/>
        <path class="cls-7" d="M265.94,259.43c3.22,4.92,10.9-.09,7.65-5.02-3.22-4.92-10.89.08-7.65,5.02Z"/>
        <path class="cls-7" d="M267.72,239.18c3.23,4.94,10.9-.08,7.65-5.02-3.22-4.91-10.89.1-7.65,5.02Z"/>
        <path class="cls-7" d="M269.17,218.28c3.22,4.92,10.9-.08,7.65-5.02-3.22-4.91-10.89.09-7.65,5.02Z"/>
        <path class="cls-7" d="M270.45,196.93c3.23,4.91,10.9-.09,7.65-5.02-3.22-4.94-10.89.08-7.65,5.02Z"/>
        <path class="cls-7" d="M278.69,324.95c3.23,4.93,10.89-.1,7.66-5.02-3.23-4.94-10.89.08-7.66,5.02Z"/>
        <path class="cls-7" d="M279.89,304.2c3.24,4.93,10.9-.1,7.65-5.02-3.22-4.94-10.88.08-7.65,5.02Z"/>
        <path class="cls-7" d="M281.92,283.81c3.22,4.93,10.88-.1,7.65-5.02-3.23-4.94-10.89.08-7.65,5.02Z"/>
        <path class="cls-7" d="M284.46,264.72c3.23,4.92,10.89-.1,7.64-5.02-3.22-4.93-10.89.08-7.64,5.02Z"/>
        <path class="cls-7" d="M287.07,245.58c3.22,4.92,10.89-.08,7.65-5.01-3.22-4.94-10.9.08-7.65,5.01Z"/>
        <path class="cls-7" d="M289.02,225.23c3.22,4.93,10.89-.09,7.64-5.02-3.22-4.92-10.89.1-7.64,5.02Z"/>
        <path class="cls-7" d="M290.29,204.44c3.24,4.92,10.9-.1,7.66-5.02-3.23-4.93-10.91.09-7.66,5.02Z"/>
        <path class="cls-7" d="M299.4,177.94c-3.22-4.94-10.89.08-7.64,5.02,3.23,4.92,10.89-.09,7.64-5.02Z"/>
        <path class="cls-7" d="M299.81,311.09c3.24,4.94,10.9-.08,7.67-5.02-3.24-4.93-10.9.1-7.67,5.02Z"/>
        <path class="cls-7" d="M301.19,290.24c3.23,4.94,10.89-.1,7.66-5.02-3.24-4.93-10.9.08-7.66,5.02Z"/>
        <path class="cls-7" d="M303.05,269.95c3.24,4.93,10.9-.09,7.65-5.02-3.24-4.94-10.9.1-7.65,5.02Z"/>
        <path class="cls-7" d="M305.75,250.76c3.23,4.92,10.89-.1,7.66-5.02-3.24-4.93-10.91.09-7.66,5.02Z"/>
        <path class="cls-7" d="M308.19,231.72c3.23,4.93,10.9-.09,7.65-5.02-3.22-4.92-10.89.08-7.65,5.02Z"/>
        <path class="cls-7" d="M310.32,211.26c3.23,4.93,10.89-.09,7.66-5.02-3.23-4.92-10.91.1-7.66,5.02Z"/>
        <path class="cls-7" d="M319.08,185.55c-3.24-4.91-10.9.09-7.66,5.02,3.23,4.94,10.89-.08,7.66-5.02Z"/>
        <path class="cls-7" d="M319.75,318.54c3.23,4.94,10.89-.08,7.66-5.02-3.23-4.93-10.89.1-7.66,5.02Z"/>
        <path class="cls-7" d="M320.95,297.25c3.23,4.93,10.88-.1,7.65-5.02-3.23-4.94-10.89.08-7.65,5.02Z"/>
        <path class="cls-7" d="M322.48,276.27c3.23,4.94,10.89-.1,7.66-5.02-3.23-4.93-10.89.09-7.66,5.02Z"/>
        <path class="cls-7" d="M324.18,256.11c3.23,4.93,10.89-.1,7.64-5.02-3.22-4.94-10.89.08-7.64,5.02Z"/>
        <path class="cls-7" d="M327.04,236.79c3.23,4.92,10.91-.09,7.66-5.01-3.23-4.94-10.89.08-7.66,5.01Z"/>
        <path class="cls-7" d="M329.32,217.87c3.24,4.92,10.9-.08,7.65-5.01-3.22-4.94-10.9.08-7.65,5.01Z"/>
        <path class="cls-7" d="M339.27,192.27c-3.23-4.92-10.89.1-7.66,5.02,3.24,4.94,10.91-.08,7.66-5.02Z"/>
        <path class="cls-7" d="M342.07,283.38c3.22,4.94,10.9-.08,7.65-5.02-3.24-4.93-10.9.1-7.65,5.02Z"/>
        <path class="cls-7" d="M341.06,304.57c3.22,4.94,10.87-.08,7.64-5.02-3.23-4.93-10.89.1-7.64,5.02Z"/>
        <path class="cls-7" d="M343.78,262.32c3.23,4.93,10.88-.1,7.65-5.02-3.23-4.94-10.89.08-7.65,5.02Z"/>
        <path class="cls-7" d="M345.3,242.24c3.24,4.93,10.9-.09,7.65-5.02-3.22-4.94-10.88.1-7.65,5.02Z"/>
        <path class="cls-7" d="M356,217.81c-3.22-4.94-10.89.08-7.64,5.02,3.22,4.92,10.89-.1,7.64-5.02Z"/>
        <path class="cls-7" d="M363.2,269.54c3.23,4.93,10.89-.1,7.64-5.02-3.23-4.93-10.89.1-7.64,5.02Z"/>
        <path class="cls-7" d="M362.35,290.62c3.22,4.93,10.89-.09,7.65-5.02-3.24-4.94-10.9.1-7.65,5.02Z"/>
        <path class="cls-7" d="M372.74,243.33c-3.24-4.94-10.9.08-7.65,5.02,3.23,4.93,10.89-.1,7.65-5.02Z"/>
        <path class="cls-7" d="M246.43,253.15c3.22,4.94,10.9-.08,7.65-5.02-3.22-4.92-10.89.1-7.65,5.02Z"/>
        <path class="cls-7" d="M244.8,273.27c3.24,4.93,10.91-.09,7.67-5.02-3.24-4.92-10.9.08-7.67,5.02Z"/>
        <path class="cls-7" d="M248.05,232.12c3.22,4.94,10.89-.08,7.65-5.01-3.22-4.92-10.9.08-7.65,5.01Z"/>
        <path class="cls-7" d="M249.16,210.88c3.22,4.92,10.9-.08,7.65-5.02-3.22-4.93-10.89.09-7.65,5.02Z"/>
        <path class="cls-7" d="M241.87,292.65c3.22,4.91,10.9-.1,7.65-5.02-3.22-4.94-10.89.08-7.65,5.02Z"/>
        <path class="cls-7" d="M234.57,240.96c-3.22-4.93-10.89.09-7.65,5.02,3.22,4.92,10.9-.08,7.65-5.02Z"/>
        <path class="cls-2" d="M198.47,316.16c6.55-.41,20.48-1.02,33.34.35,1.78.19,2.99-1.77,2.01-3.27l-10.29-15.7-10.3-15.71c-.98-1.5-3.26-1.16-3.8.56-3.87,12.33-9.98,24.86-12.99,30.69-.75,1.48.38,3.2,2.04,3.09Z"/>
      </g>
      <path class="cls-2" d="M119.38,356.31l9.65-3.5,47.66-31.26,1.26-.62,39.67,14.69c-3.83.1-7.64.34-11.44.76-5.68.63-11.04,2.95-15.41,6.62h0s-47.68,31.27-47.68,31.27l-7.02,7.45-7.96,5.21-16.67-25.41,7.95-5.21Z"/>
    </g>
  </g>
</svg>