<?xml version="1.0" encoding="UTF-8"?>
<svg xmlns="http://www.w3.org/2000/svg" xmlns:xlink="http://www.w3.org/1999/xlink" viewBox="0 0 512 512">
  <defs>
    <style>
      .cls-1, .cls-2 {
        fill: none;
      }

      .cls-3 {
        fill: url(#linear-gradient-2);
        mix-blend-mode: color-burn;
        opacity: .59;
      }

      .cls-4 {
        fill: #92bdc8;
      }

      .cls-5 {
        isolation: isolate;
      }

      .cls-6 {
        fill: url(#linear-gradient);
        opacity: .21;
      }

      .cls-7 {
        fill: #fff;
      }

      .cls-2 {
        stroke: url(#New_Pattern_Swatch_1);
        stroke-miterlimit: 10;
        stroke-width: 7px;
      }

      .cls-8 {
        fill: url(#New_Pattern_Swatch_1);
      }
    </style>
    <linearGradient id="linear-gradient" x1="20.33" y1="489.95" x2="489" y2="21.28" gradientUnits="userSpaceOnUse">
      <stop offset=".47" stop-color="#e4f1fb"/>
      <stop offset=".51" stop-color="#dae8f3"/>
      <stop offset=".63" stop-color="#bdcbd9"/>
      <stop offset=".74" stop-color="#abbaca"/>
      <stop offset=".82" stop-color="#a5b4c5"/>
    </linearGradient>
    <linearGradient id="linear-gradient-2" x1="96.68" y1="-23.12" x2="418.53" y2="534.35" gradientUnits="userSpaceOnUse">
      <stop offset="0" stop-color="#fff"/>
      <stop offset="1" stop-color="#d5e9f8"/>
    </linearGradient>
    <pattern id="New_Pattern_Swatch_1" data-name="New Pattern Swatch 1" x="0" y="0" width="74.6" height="74.6" patternTransform="translate(1711.84 6001.93) scale(1.92)" patternUnits="userSpaceOnUse" viewBox="0 0 74.6 74.6">
      <g>
        <rect class="cls-1" width="74.6" height="74.6"/>
        <rect class="cls-4" x="0" width="74.6" height="74.6"/>
      </g>
    </pattern>
  </defs>
  <g class="cls-5">
    <g id="Layer_3" data-name="Layer 3">
      <g>
        <rect class="cls-6" x="5.82" y="8.05" width="497.69" height="495.12" rx="47.21" ry="47.21"/>
        <path class="cls-3" d="M51.31,9.63h412.59c23.52,0,42.61,19.09,42.61,42.61v406.74c0,23.52-19.09,42.61-42.61,42.61H51.31c-23.52,0-42.61-19.09-42.61-42.61V52.25c0-23.52,19.09-42.61,42.61-42.61Z"/>
      </g>
    </g>
    <g id="Layer_4" data-name="Layer 4">
      <g>
        <g>
          <g>
            <polygon class="cls-2" points="323.56 421.41 86.61 316.35 191.66 79.41 428.61 184.46 323.56 421.41"/>
            <polygon class="cls-2" points="211.17 371.58 199 366.18 304.06 129.24 316.22 134.63 211.17 371.58"/>
            <polygon class="cls-2" points="301.25 135.57 188.86 85.74 191.66 79.41 304.06 129.24 301.25 135.57"/>
            <polygon class="cls-2" points="425.8 190.79 313.41 140.96 316.22 134.63 428.61 184.46 425.8 190.79"/>
          </g>
          <g>
            <polygon class="cls-8" points="188.86 85.74 159.38 178.93 207.59 94.04 188.86 85.74"/>
            <polygon class="cls-8" points="207.59 94.04 178.12 187.24 226.33 102.35 207.59 94.04"/>
            <polygon class="cls-8" points="226.33 102.35 196.86 195.54 245.07 110.66 226.33 102.35"/>
            <polygon class="cls-8" points="245.07 110.66 215.59 203.85 263.8 118.97 245.07 110.66"/>
            <polygon class="cls-8" points="263.8 118.97 234.33 212.16 282.54 127.27 263.8 118.97"/>
            <polygon class="cls-8" points="282.54 127.27 253.07 220.47 301.28 135.58 282.54 127.27"/>
          </g>
          <g>
            <polygon class="cls-8" points="425.82 190.8 376.55 275.21 407.08 182.49 425.82 190.8"/>
            <polygon class="cls-8" points="407.08 182.49 357.81 266.9 388.34 174.18 407.08 182.49"/>
            <polygon class="cls-8" points="388.34 174.18 339.07 258.6 369.61 165.88 388.34 174.18"/>
            <polygon class="cls-8" points="369.61 165.88 320.34 250.29 350.87 157.57 369.61 165.88"/>
            <polygon class="cls-8" points="350.87 157.57 301.6 241.98 332.13 149.26 350.87 157.57"/>
            <polygon class="cls-8" points="332.13 149.26 282.86 233.68 313.4 140.95 332.13 149.26"/>
          </g>
          <g>
            <polygon class="cls-8" points="210.83 371.43 260.11 287.01 229.57 379.74 210.83 371.43"/>
            <polygon class="cls-8" points="229.57 379.74 278.84 295.32 248.31 388.04 229.57 379.74"/>
            <polygon class="cls-8" points="248.31 388.04 297.58 303.63 267.04 396.35 248.31 388.04"/>
            <polygon class="cls-8" points="267.04 396.35 316.31 311.93 285.78 404.66 267.04 396.35"/>
            <polygon class="cls-8" points="285.78 404.66 335.05 320.24 304.52 412.96 285.78 404.66"/>
            <polygon class="cls-8" points="304.52 412.96 353.79 328.55 323.25 421.27 304.52 412.96"/>
          </g>
          <g>
            <polygon class="cls-8" points="199.02 366.19 228.49 273 180.28 357.88 199.02 366.19"/>
            <polygon class="cls-8" points="180.28 357.88 209.75 264.69 161.54 349.58 180.28 357.88"/>
            <polygon class="cls-8" points="161.54 349.58 191.02 256.38 142.81 341.27 161.54 349.58"/>
            <polygon class="cls-8" points="142.81 341.27 172.28 248.08 124.07 332.96 142.81 341.27"/>
            <polygon class="cls-8" points="124.07 332.96 153.54 239.77 105.33 324.65 124.07 332.96"/>
            <polygon class="cls-8" points="105.33 324.65 134.81 231.46 86.6 316.35 105.33 324.65"/>
          </g>
        </g>
        <g>
          <path class="cls-7" d="M271.74,377.95c-1.5,3.38-5.46,4.91-8.84,3.41-3.38-1.5-4.91-5.46-3.41-8.84,1.5-3.38,5.46-4.91,8.84-3.41s4.91,5.46,3.41,8.84Z"/>
          <path class="cls-7" d="M272.45,376.35c-1.5,3.38-5.46,4.91-8.84,3.41-3.38-1.5-4.91-5.46-3.41-8.84s5.46-4.91,8.84-3.41c3.38,1.5,4.91,5.46,3.41,8.84Z"/>
          <path class="cls-7" d="M270.37,375.42c-.99,2.23-3.6,3.24-5.83,2.25-2.23-.99-3.24-3.6-2.25-5.83.99-2.23,3.6-3.24,5.83-2.25s3.24,3.6,2.25,5.83Z"/>
        </g>
        <g>
          <path class="cls-7" d="M279.35,360.79c-1.5,3.38-5.46,4.91-8.84,3.41-3.38-1.5-4.91-5.46-3.41-8.84,1.5-3.38,5.46-4.91,8.84-3.41s4.91,5.46,3.41,8.84Z"/>
          <path class="cls-7" d="M280.06,359.18c-1.5,3.38-5.46,4.91-8.84,3.41-3.38-1.5-4.91-5.46-3.41-8.84,1.5-3.38,5.46-4.91,8.84-3.41,3.38,1.5,4.91,5.46,3.41,8.84Z"/>
          <path class="cls-7" d="M277.98,358.26c-.99,2.23-3.6,3.24-5.83,2.25s-3.24-3.6-2.25-5.83,3.6-3.24,5.83-2.25,3.24,3.6,2.25,5.83Z"/>
        </g>
        <g>
          <path class="cls-7" d="M128.41,314.41c-1.5,3.38-5.46,4.91-8.84,3.41-3.38-1.5-4.91-5.46-3.41-8.84,1.5-3.38,5.46-4.91,8.84-3.41s4.91,5.46,3.41,8.84Z"/>
          <path class="cls-7" d="M129.13,312.8c-1.5,3.38-5.46,4.91-8.84,3.41-3.38-1.5-4.91-5.46-3.41-8.84s5.46-4.91,8.84-3.41c3.38,1.5,4.91,5.46,3.41,8.84Z"/>
          <path class="cls-7" d="M127.04,311.88c-.99,2.23-3.6,3.24-5.83,2.25s-3.24-3.6-2.25-5.83,3.6-3.24,5.83-2.25c2.23.99,3.24,3.6,2.25,5.83Z"/>
        </g>
        <g>
          <path class="cls-7" d="M136.02,297.24c-1.5,3.38-5.46,4.91-8.84,3.41-3.38-1.5-4.91-5.46-3.41-8.84,1.5-3.38,5.46-4.91,8.84-3.41,3.38,1.5,4.91,5.46,3.41,8.84Z"/>
          <path class="cls-7" d="M136.74,295.64c-1.5,3.38-5.46,4.91-8.84,3.41-3.38-1.5-4.91-5.46-3.41-8.84,1.5-3.38,5.46-4.91,8.84-3.41s4.91,5.46,3.41,8.84Z"/>
          <path class="cls-7" d="M134.65,294.71c-.99,2.23-3.6,3.24-5.83,2.25-2.23-.99-3.24-3.6-2.25-5.83.99-2.23,3.6-3.24,5.83-2.25,2.23.99,3.24,3.6,2.25,5.83Z"/>
        </g>
        <g>
          <path class="cls-7" d="M235.01,124.54c-1.5,3.38-5.46,4.91-8.84,3.41s-4.91-5.46-3.41-8.84c1.5-3.38,5.46-4.91,8.84-3.41,3.38,1.5,4.91,5.46,3.41,8.84Z"/>
          <path class="cls-7" d="M235.72,122.93c-1.5,3.38-5.46,4.91-8.84,3.41-3.38-1.5-4.91-5.46-3.41-8.84,1.5-3.38,5.46-4.91,8.84-3.41s4.91,5.46,3.41,8.84Z"/>
          <path class="cls-7" d="M233.64,122.01c-.99,2.23-3.6,3.24-5.83,2.25-2.23-.99-3.24-3.6-2.25-5.83s3.6-3.24,5.83-2.25c2.23.99,3.24,3.6,2.25,5.83Z"/>
        </g>
        <g>
          <path class="cls-7" d="M283.56,166.79c-1.5,3.38-5.46,4.91-8.84,3.41s-4.91-5.46-3.41-8.84c1.5-3.38,5.46-4.91,8.84-3.41,3.38,1.5,4.91,5.46,3.41,8.84Z"/>
          <path class="cls-7" d="M284.27,165.18c-1.5,3.38-5.46,4.91-8.84,3.41-3.38-1.5-4.91-5.46-3.41-8.84,1.5-3.38,5.46-4.91,8.84-3.41s4.91,5.46,3.41,8.84Z"/>
          <path class="cls-7" d="M282.19,164.25c-.99,2.23-3.6,3.24-5.83,2.25s-3.24-3.6-2.25-5.83c.99-2.23,3.6-3.24,5.83-2.25,2.23.99,3.24,3.6,2.25,5.83Z"/>
        </g>
        <g>
          <path class="cls-7" d="M206.66,289.62c-1.5,3.38-5.46,4.91-8.84,3.41s-4.91-5.46-3.41-8.84,5.46-4.91,8.84-3.41c3.38,1.5,4.91,5.46,3.41,8.84Z"/>
          <path class="cls-7" d="M207.37,288.01c-1.5,3.38-5.46,4.91-8.84,3.41-3.38-1.5-4.91-5.46-3.41-8.84,1.5-3.38,5.46-4.91,8.84-3.41,3.38,1.5,4.91,5.46,3.41,8.84Z"/>
          <circle class="cls-7" cx="201.25" cy="285.3" r="4.42"/>
        </g>
        <g>
          <path class="cls-7" d="M199.43,305.92c-1.5,3.38-5.46,4.91-8.84,3.41s-4.91-5.46-3.41-8.84c1.5-3.38,5.46-4.91,8.84-3.41,3.38,1.5,4.91,5.46,3.41,8.84Z"/>
          <path class="cls-7" d="M200.15,304.31c-1.5,3.38-5.46,4.91-8.84,3.41s-4.91-5.46-3.41-8.84c1.5-3.38,5.46-4.91,8.84-3.41,3.38,1.5,4.91,5.46,3.41,8.84Z"/>
          <circle class="cls-7" cx="194.02" cy="301.6" r="4.42"/>
        </g>
        <g>
          <path class="cls-7" d="M192.21,322.22c-1.5,3.38-5.46,4.91-8.84,3.41-3.38-1.5-4.91-5.46-3.41-8.84,1.5-3.38,5.46-4.91,8.84-3.41,3.38,1.5,4.91,5.46,3.41,8.84Z"/>
          <path class="cls-7" d="M192.92,320.62c-1.5,3.38-5.46,4.91-8.84,3.41-3.38-1.5-4.91-5.46-3.41-8.84,1.5-3.38,5.46-4.91,8.84-3.41,3.38,1.5,4.91,5.46,3.41,8.84Z"/>
          <circle class="cls-7" cx="186.8" cy="317.9" r="4.42"/>
        </g>
        <g>
          <path class="cls-7" d="M184.98,338.52c-1.5,3.38-5.46,4.91-8.84,3.41-3.38-1.5-4.91-5.46-3.41-8.84,1.5-3.38,5.46-4.91,8.84-3.41s4.91,5.46,3.41,8.84Z"/>
          <path class="cls-7" d="M185.69,336.92c-1.5,3.38-5.46,4.91-8.84,3.41-3.38-1.5-4.91-5.46-3.41-8.84,1.5-3.38,5.46-4.91,8.84-3.41,3.38,1.5,4.91,5.46,3.41,8.84Z"/>
          <path class="cls-7" d="M183.61,335.99c-.99,2.23-3.6,3.24-5.83,2.25-2.23-.99-3.24-3.6-2.25-5.83.99-2.23,3.6-3.24,5.83-2.25s3.24,3.6,2.25,5.83Z"/>
        </g>
        <g>
          <path class="cls-7" d="M309.53,393.75c-1.5,3.38-5.46,4.91-8.84,3.41-3.38-1.5-4.91-5.46-3.41-8.84s5.46-4.91,8.84-3.41c3.38,1.5,4.91,5.46,3.41,8.84Z"/>
          <path class="cls-7" d="M310.25,392.14c-1.5,3.38-5.46,4.91-8.84,3.41-3.38-1.5-4.91-5.46-3.41-8.84s5.46-4.91,8.84-3.41,4.91,5.46,3.41,8.84Z"/>
          <path class="cls-7" d="M308.16,391.22c-.99,2.23-3.6,3.24-5.83,2.25s-3.24-3.6-2.25-5.83c.99-2.23,3.6-3.24,5.83-2.25,2.23.99,3.24,3.6,2.25,5.83Z"/>
        </g>
        <g>
          <path class="cls-7" d="M291.32,149.27c-1.5,3.38-5.46,4.91-8.84,3.41-3.38-1.5-4.91-5.46-3.41-8.84s5.46-4.91,8.84-3.41c3.38,1.5,4.91,5.46,3.41,8.84Z"/>
          <path class="cls-7" d="M292.04,147.66c-1.5,3.38-5.46,4.91-8.84,3.41-3.38-1.5-4.91-5.46-3.41-8.84s5.46-4.91,8.84-3.41,4.91,5.46,3.41,8.84Z"/>
          <path class="cls-7" d="M289.95,146.73c-.99,2.23-3.6,3.24-5.83,2.25s-3.24-3.6-2.25-5.83,3.6-3.24,5.83-2.25,3.24,3.6,2.25,5.83Z"/>
        </g>
        <g>
          <path class="cls-7" d="M378.39,187.87c-1.5,3.38-5.46,4.91-8.84,3.41-3.38-1.5-4.91-5.46-3.41-8.84,1.5-3.38,5.46-4.91,8.84-3.41,3.38,1.5,4.91,5.46,3.41,8.84Z"/>
          <path class="cls-7" d="M379.1,186.26c-1.5,3.38-5.46,4.91-8.84,3.41-3.38-1.5-4.91-5.46-3.41-8.84,1.5-3.38,5.46-4.91,8.84-3.41s4.91,5.46,3.41,8.84Z"/>
          <circle class="cls-7" cx="372.98" cy="183.55" r="4.42"/>
        </g>
      </g>
    </g>
  </g>
</svg>