<?xml version="1.0" encoding="UTF-8"?>
<svg xmlns="http://www.w3.org/2000/svg" xmlns:xlink="http://www.w3.org/1999/xlink" viewBox="0 0 512 512">
  <defs>
    <style>
      .cls-1 {
        fill: none;
      }

      .cls-2 {
        fill: url(#linear-gradient-2);
        mix-blend-mode: color-burn;
        opacity: .59;
      }

      .cls-3 {
        fill: #92bdc8;
      }

      .cls-4 {
        isolation: isolate;
      }

      .cls-5 {
        fill: url(#linear-gradient);
        opacity: .21;
      }

      .cls-6 {
        fill: url(#New_Pattern_Swatch_1);
      }
    </style>
    <linearGradient id="linear-gradient" x1="20.33" y1="489.95" x2="489" y2="21.28" gradientUnits="userSpaceOnUse">
      <stop offset=".47" stop-color="#e4f1fb"/>
      <stop offset=".51" stop-color="#dae8f3"/>
      <stop offset=".63" stop-color="#bdcbd9"/>
      <stop offset=".74" stop-color="#abbaca"/>
      <stop offset=".82" stop-color="#a5b4c5"/>
    </linearGradient>
    <linearGradient id="linear-gradient-2" x1="96.68" y1="-23.12" x2="418.53" y2="534.35" gradientUnits="userSpaceOnUse">
      <stop offset="0" stop-color="#fff"/>
      <stop offset="1" stop-color="#d5e9f8"/>
    </linearGradient>
    <pattern id="New_Pattern_Swatch_1" data-name="New Pattern Swatch 1" x="0" y="0" width="74.6" height="74.6" patternTransform="translate(-6021.55 -164.94)" patternUnits="userSpaceOnUse" viewBox="0 0 74.6 74.6">
      <g>
        <rect class="cls-1" width="74.6" height="74.6"/>
        <rect class="cls-3" x="0" width="74.6" height="74.6"/>
      </g>
    </pattern>
  </defs>
  <g class="cls-4">
    <g id="Layer_3" data-name="Layer 3">
      <g>
        <rect class="cls-5" x="5.82" y="8.05" width="497.69" height="495.12" rx="47.21" ry="47.21"/>
        <path class="cls-2" d="M51.31,9.63h412.59c23.52,0,42.61,19.09,42.61,42.61v406.74c0,23.52-19.09,42.61-42.61,42.61H51.31c-23.52,0-42.61-19.09-42.61-42.61V52.25c0-23.52,19.09-42.61,42.61-42.61Z"/>
      </g>
    </g>
    <g id="Layer_2" data-name="Layer 2">
      <g>
        <path class="cls-6" d="M315.5,338.14h-9.92c-1.37,0-2.48,1.11-2.48,2.48v19.83c0,1.37,1.11,2.48,2.48,2.48s2.48-1.11,2.48-2.48v-17.35h4.96v2.48c0,1.37,1.11,2.48,2.48,2.48s2.48-1.11,2.48-2.48v-4.96c0-1.37-1.11-2.48-2.48-2.48Z"/>
        <path class="cls-6" d="M305.58,181.17c-4.06-3.34-12.4-1.9-12.4,6.75,0,6.4,9,14.29,10.8,15.81.46.39,1.03.58,1.59.58s1.13-.19,1.59-.58c1.81-1.52,10.8-9.41,10.8-15.81,0-8.65-8.34-10.08-12.4-6.75ZM305.58,198.5c-3.49-3.27-7.44-7.96-7.44-10.58,0-2.46,1.08-3.49,2.55-3.49.93,0,2.41.53,2.41,1.97s1.11,2.48,2.48,2.48,2.48-1.11,2.48-2.48,1.48-1.97,2.41-1.97c1.47,0,2.55,1.03,2.55,3.49,0,2.62-3.95,7.31-7.44,10.58Z"/>
        <path class="cls-6" d="M208.01,338.74c-.46-.39-1.03-.58-1.59-.58s-1.13.19-1.59.58c-1.81,1.52-10.8,9.41-10.8,15.81,0,8.65,8.34,10.08,12.4,6.75,4.06,3.34,12.4,1.9,12.4-6.75,0-6.4-9-14.29-10.8-15.81ZM211.31,358.03c-.93,0-2.41-.53-2.41-1.97s-1.11-2.48-2.48-2.48-2.48,1.11-2.48,2.48-1.48,1.97-2.41,1.97c-1.47,0-2.55-1.03-2.55-3.49,0-2.62,3.95-7.31,7.44-10.58,3.49,3.27,7.44,7.96,7.44,10.58,0,2.46-1.08,3.49-2.55,3.49Z"/>
        <path class="cls-6" d="M250.71,211.49c-.22-1.35-1.53-2.26-2.86-2.03-1.35.23-2.26,1.51-2.03,2.86l1.79,10.58c-2.2-.72-5-1.23-7.98-.71-4.03.71-7.48,3.07-10.25,7.04-.78,1.12-.51,2.66.61,3.45,1.19.83,2.73.43,3.45-.61,6.33-9.12,15.02-3.53,15.98-2.86.81.56,1.89.59,2.75.06.84-.54,1.28-1.52,1.12-2.5l-2.58-15.27Z"/>
        <path class="cls-6" d="M259.83,229.26c.86.53,1.93.5,2.75-.06.97-.67,9.65-6.26,15.98,2.86.73,1.04,2.26,1.45,3.45.61,1.13-.79,1.4-2.33.61-3.45-2.77-3.97-6.22-6.33-10.25-7.04-2.98-.52-5.78-.01-7.98.71l1.79-10.58c.23-1.35-.68-2.63-2.03-2.86-1.33-.23-2.63.68-2.86,2.03l-2.58,15.27c-.16.98.28,1.97,1.12,2.5Z"/>
        <path class="cls-6" d="M262.18,291.26c-5.94,5.94-11.73.61-12.36,0-.97-.97-2.54-.97-3.51,0s-.97,2.54,0,3.51c1.97,1.97,5.68,4.28,9.96,4.28,2.99,0,6.26-1.12,9.41-4.28.97-.97.97-2.54,0-3.51s-2.54-.97-3.51,0Z"/>
        <path class="cls-6" d="M271.37,266.49h-4.96c-1.37,0-2.48,1.11-2.48,2.48s1.11,2.48,2.48,2.48h4.96c1.37,0,2.48-1.11,2.48-2.48s-1.11-2.48-2.48-2.48Z"/>
        <path class="cls-6" d="M248.07,268.97c0-1.37-1.11-2.48-2.48-2.48h-4.96c-1.37,0-2.48,1.11-2.48,2.48s1.11,2.48,2.48,2.48h4.96c1.37,0,2.48-1.11,2.48-2.48Z"/>
        <path class="cls-6" d="M307.8,331.81c.61-1.23.12-2.71-1.11-3.33l-19.83-9.92c-.8-.4-1.74-.34-2.48.15l-1.4.94.24-14.26c3.36-3.07,5.01-7.8,5.01-14.36v-14.38h3.47c3.55,0,6.44-2.89,6.44-6.44v-7.93c0-3.55-2.89-6.44-6.44-6.44h-3.47v-13.8l9.66-19.31c.35-.7.35-1.52,0-2.22-.43-.87-10.96-21.2-41.88-21.2s-41.45,20.34-41.88,21.2c-.35.7-.35,1.52,0,2.22l9.66,19.31v13.8h-3.47c-3.55,0-6.45,2.89-6.45,6.44v7.93c0,3.55,2.9,6.44,6.45,6.44h3.47v14.38c0,6.56,1.65,11.29,5.01,14.36l.24,14.26-1.4-.93c-.75-.49-1.7-.56-2.48-.15l-19.83,9.92c-1.23.61-1.72,2.1-1.11,3.33.61,1.23,2.1,1.73,3.33,1.11l18.55-9.27,28.55,19.03c.42.28.9.42,1.38.42s.96-.14,1.38-.42l28.55-19.03,18.55,9.27c1.23.62,2.71.12,3.33-1.11ZM223.77,271.69h-3.47c-.82,0-1.49-.67-1.49-1.49v-7.93c0-.82.67-1.49,1.49-1.49h3.47v10.9ZM283.27,247.74c-4.62-1.55-13.7-3.81-27.27-3.81s-22.65,2.26-27.27,3.81v-4.64c3.26-1.25,12.39-4.13,27.27-4.13s24.01,2.88,27.27,4.13v4.64ZM291.7,260.79c.82,0,1.49.67,1.49,1.49v7.93c0,.82-.67,1.49-1.49,1.49h-3.47v-10.9h3.47ZM219.15,221.69c2.45-3.93,12.64-17.43,36.85-17.43s34.4,13.5,36.85,17.43l-8.29,16.58c-4.08-1.51-13.59-4.27-28.56-4.27s-24.48,2.76-28.56,4.27l-8.29-16.58ZM277.97,322.99l-21.97,14.65-21.97-14.65-.24-14.51,14.36,7.18c2.46,1.23,5.16,1.84,7.85,1.84s5.39-.61,7.85-1.84l14.35-7.18-.24,14.51ZM277.83,303.13l-16.19,8.1c-3.52,1.76-7.74,1.77-11.27,0l-16.19-8.1c-3.72-1.86-5.45-5.7-5.45-12.1v-38.02c3.26-1.25,12.39-4.13,27.27-4.13s24.01,2.88,27.27,4.13v38.02c0,6.4-1.73,10.24-5.44,12.1Z"/>
        <path class="cls-6" d="M315.5,169.55h-119c-6.84,0-12.4,5.56-12.4,12.4v178.5c0,6.84,5.56,12.4,12.4,12.4h119c6.84,0,12.4-5.56,12.4-12.4v-178.5c0-6.84-5.56-12.4-12.4-12.4ZM322.94,360.45c0,4.1-3.34,7.44-7.44,7.44h-119c-4.1,0-7.44-3.34-7.44-7.44v-178.5c0-4.1,3.34-7.44,7.44-7.44h119c4.1,0,7.44,3.34,7.44,7.44v178.5Z"/>
        <path class="cls-6" d="M196.5,204.26h9.92c1.37,0,2.48-1.11,2.48-2.48v-19.83c0-1.37-1.11-2.48-2.48-2.48s-2.48,1.11-2.48,2.48v17.35h-4.96v-2.48c0-1.37-1.11-2.48-2.48-2.48s-2.48,1.11-2.48,2.48v4.96c0,1.37,1.11,2.48,2.48,2.48Z"/>
      </g>
    </g>
  </g>
</svg>