<?xml version="1.0" encoding="UTF-8"?>
<svg xmlns="http://www.w3.org/2000/svg" xmlns:xlink="http://www.w3.org/1999/xlink" viewBox="0 0 512 512">
  <defs>
    <style>
      .cls-1 {
        fill: none;
      }

      .cls-2 {
        fill: url(#linear-gradient-2);
        mix-blend-mode: color-burn;
        opacity: .59;
      }

      .cls-3 {
        fill: #92bdc8;
      }

      .cls-4 {
        isolation: isolate;
      }

      .cls-5 {
        fill: url(#linear-gradient);
        opacity: .21;
      }

      .cls-6 {
        fill: url(#New_Pattern_Swatch_1);
      }
    </style>
    <linearGradient id="linear-gradient" x1="20.33" y1="489.95" x2="489" y2="21.28" gradientUnits="userSpaceOnUse">
      <stop offset=".47" stop-color="#e4f1fb"/>
      <stop offset=".51" stop-color="#dae8f3"/>
      <stop offset=".63" stop-color="#bdcbd9"/>
      <stop offset=".74" stop-color="#abbaca"/>
      <stop offset=".82" stop-color="#a5b4c5"/>
    </linearGradient>
    <linearGradient id="linear-gradient-2" x1="96.68" y1="-23.12" x2="418.53" y2="534.35" gradientUnits="userSpaceOnUse">
      <stop offset="0" stop-color="#fff"/>
      <stop offset="1" stop-color="#d5e9f8"/>
    </linearGradient>
    <pattern id="New_Pattern_Swatch_1" data-name="New Pattern Swatch 1" x="0" y="0" width="74.6" height="74.6" patternTransform="translate(3677.67 6903.82) scale(1.92)" patternUnits="userSpaceOnUse" viewBox="0 0 74.6 74.6">
      <g>
        <rect class="cls-1" width="74.6" height="74.6"/>
        <rect class="cls-3" x="0" width="74.6" height="74.6"/>
      </g>
    </pattern>
  </defs>
  <g class="cls-4">
    <g id="Layer_3" data-name="Layer 3">
      <g>
        <rect class="cls-5" x="5.82" y="8.05" width="497.69" height="495.12" rx="47.21" ry="47.21"/>
        <rect class="cls-2" x="8.7" y="9.63" width="497.82" height="491.96" rx="42.61" ry="42.61"/>
      </g>
    </g>
    <g id="Layer_2" data-name="Layer 2">
      <g>
        <g>
          <polygon class="cls-6" points="358.46 257.55 358.17 257.55 357.07 257.55 356.93 257.55 356.78 257.55 355.62 257.55 355.31 257.55 354.37 257.55 354.08 257.55 353.92 257.55 353.37 257.55 353.08 257.55 352.86 257.55 352.53 257.55 352.38 257.55 352.07 257.55 351.45 257.55 351.39 257.55 351.07 257.55 350.42 257.55 350.08 257.55 349.47 257.55 349.12 257.55 344.84 257.55 101.82 257.55 101.82 264.46 344.84 264.46 349.12 264.46 349.47 264.46 350.08 264.46 350.42 264.46 351.07 264.46 351.39 264.46 351.45 264.46 352.07 264.46 352.38 264.46 352.53 264.46 352.86 264.46 353.08 264.46 353.37 264.46 353.92 264.46 354.08 264.46 354.37 264.46 355.31 264.46 355.62 264.46 356.78 264.46 356.93 264.46 357.07 264.46 358.17 264.46 358.46 264.46 400.36 264.46 400.36 257.55 358.46 257.55"/>
          <g>
            <path class="cls-6" d="M397.76,261.01v-8.89c5.07,4.27,12.09,1.48,12.09,1.48,6.23-2.54,12.84-2.59,12.84-2.59l8.5.05c13.03-.85,12.62,9.95,12.62,9.95,0,0,.4,10.8-12.62,9.95l-8.5.05s-6.61-.05-12.84-2.59c0,0-7.01-2.79-12.09,1.48v-8.89Z"/>
            <path class="cls-6" d="M396.56,274.09c-.78,0-1.42-.9-1.42-2.01v-22.14c0-1.11.63-2.01,1.42-2.01h2.41c.78,0,1.42.9,1.42,2.01v22.14c0,1.11-.63,2.01-1.42,2.01h-2.41Z"/>
          </g>
          <g>
            <path class="cls-6" d="M104.45,261.01v-8.89c-5.08,4.27-12.09,1.48-12.09,1.48-6.23-2.54-12.84-2.59-12.84-2.59l-8.5.05c-13.03-.85-12.62,9.95-12.62,9.95,0,0-.41,10.8,12.62,9.95l8.5.05s6.61-.05,12.84-2.59c0,0,7.01-2.79,12.09,1.48v-8.89Z"/>
            <path class="cls-6" d="M105.66,274.09c.78,0,1.42-.9,1.42-2.01v-22.14c0-1.11-.63-2.01-1.42-2.01h-2.41c-.78,0-1.42.9-1.42,2.01v22.14c0,1.11.63,2.01,1.42,2.01h2.41Z"/>
          </g>
          <g>
            <path class="cls-6" d="M386.95,265.09c-.3,0-.58-.26-.82-.7-.4-.75-.68-2.03-.68-3.45s.27-2.7.68-3.45c.24-.44.52-.7.82-.7s.58.26.82.7h.35c-.31-.69-.72-1.1-1.17-1.1s-.86.41-1.17,1.1c-.37.83-.61,2.06-.61,3.45s.23,2.62.61,3.45c.31.69.72,1.1,1.17,1.1s.86-.41,1.17-1.1h-.35c-.24.44-.52.7-.82.7Z"/>
            <path class="cls-6" d="M388.14,265.48c-.4,0-.76-.42-1.05-1.09-.36-.84-.59-2.09-.59-3.45s.23-2.61.59-3.45c.29-.68.66-1.09,1.05-1.09s.76.42,1.05,1.09h.34c-.35-.93-.84-1.5-1.39-1.5s-1.04.57-1.39,1.5c-.33.89-.53,2.1-.53,3.45s.2,2.57.53,3.45c.35.93.84,1.5,1.39,1.5s1.04-.57,1.39-1.5h-.34c-.29.68-.66,1.09-1.05,1.09Z"/>
            <path class="cls-6" d="M389.32,265.86c-.5,0-.95-.56-1.27-1.47-.32-.89-.51-2.11-.51-3.45s.2-2.56.51-3.45c.32-.91.77-1.47,1.27-1.47s.95.56,1.27,1.47h.31c-.38-1.15-.94-1.87-1.58-1.87s-1.21.72-1.58,1.87c-.3.92-.48,2.12-.48,3.45s.18,2.53.48,3.45c.38,1.15.94,1.87,1.58,1.87s1.21-.72,1.58-1.87h-.31c-.32.91-.77,1.47-1.27,1.47Z"/>
            <path class="cls-6" d="M390.51,266.25c-.59,0-1.11-.73-1.46-1.86-.29-.93-.47-2.13-.47-3.45s.18-2.52.47-3.45c.35-1.14.88-1.87,1.46-1.87s1.11.73,1.46,1.87h.31c-.4-1.38-1.04-2.27-1.77-2.27s-1.37.88-1.77,2.27c-.28.95-.44,2.14-.44,3.45s.16,2.5.44,3.45c.4,1.38,1.04,2.27,1.77,2.27s1.37-.88,1.77-2.27h-.31c-.35,1.14-.88,1.86-1.46,1.86Z"/>
            <path class="cls-6" d="M391.74,266.76c-.7,0-1.32-.93-1.7-2.37-.26-.97-.42-2.16-.42-3.45s.16-2.49.42-3.45c.39-1.43,1-2.37,1.7-2.37s1.32.93,1.7,2.37h.29c-.43-1.67-1.16-2.77-2-2.77s-1.57,1.1-2,2.77c-.26.99-.4,2.18-.4,3.45s.15,2.46.41,3.45c.43,1.67,1.16,2.77,2,2.77s1.57-1.1,2-2.77h-.3c-.39,1.43-1,2.37-1.7,2.37Z"/>
            <path class="cls-6" d="M392.93,267.19c-.79,0-1.49-1.12-1.9-2.8-.24-.99-.38-2.18-.38-3.45s.14-2.46.38-3.45c.41-1.69,1.11-2.8,1.9-2.8s1.49,1.12,1.9,2.8h.29c-.45-1.92-1.26-3.21-2.19-3.21s-1.74,1.29-2.19,3.21c-.24,1.01-.38,2.19-.38,3.45s.14,2.44.38,3.45c.45,1.92,1.26,3.21,2.19,3.21s1.74-1.29,2.19-3.21h-.29c-.41,1.69-1.11,2.8-1.9,2.8Z"/>
          </g>
          <g>
            <path class="cls-6" d="M115.25,265.09c.3,0,.58-.26.82-.7.4-.75.68-2.03.68-3.45s-.27-2.7-.68-3.45c-.24-.44-.52-.7-.82-.7s-.58.26-.82.7h-.35c.31-.69.72-1.1,1.17-1.1s.86.41,1.17,1.1c.37.83.61,2.06.61,3.45s-.23,2.62-.61,3.45c-.31.69-.72,1.1-1.17,1.1s-.86-.41-1.17-1.1h.35c.24.44.52.7.82.7Z"/>
            <path class="cls-6" d="M114.06,265.48c.4,0,.76-.42,1.05-1.09.36-.84.59-2.09.59-3.45s-.23-2.61-.59-3.45c-.29-.68-.66-1.09-1.05-1.09s-.76.42-1.05,1.09h-.34c.35-.93.84-1.5,1.39-1.5s1.04.57,1.39,1.5c.33.89.54,2.1.54,3.45s-.2,2.57-.54,3.45c-.35.93-.84,1.5-1.39,1.5s-1.04-.57-1.39-1.5h.34c.29.68.66,1.09,1.05,1.09Z"/>
            <path class="cls-6" d="M112.88,265.86c.5,0,.94-.56,1.27-1.47.32-.89.51-2.11.51-3.45s-.2-2.56-.51-3.45c-.32-.91-.77-1.47-1.27-1.47s-.94.56-1.27,1.47h-.31c.38-1.15.94-1.87,1.58-1.87s1.21.72,1.58,1.87c.3.92.48,2.12.48,3.45s-.18,2.53-.48,3.45c-.38,1.15-.94,1.87-1.58,1.87s-1.21-.72-1.58-1.87h.31c.32.91.77,1.47,1.27,1.47Z"/>
            <path class="cls-6" d="M111.69,266.25c.59,0,1.11-.73,1.46-1.86.29-.93.46-2.13.46-3.45s-.18-2.52-.46-3.45c-.35-1.14-.88-1.87-1.46-1.87s-1.11.73-1.46,1.87h-.31c.4-1.38,1.04-2.27,1.77-2.27s1.37.88,1.77,2.27c.28.95.44,2.14.44,3.45s-.16,2.5-.44,3.45c-.4,1.38-1.04,2.27-1.77,2.27s-1.37-.88-1.77-2.27h.31c.35,1.14.88,1.86,1.46,1.86Z"/>
            <path class="cls-6" d="M110.46,266.76c.7,0,1.31-.93,1.7-2.37.26-.97.42-2.16.42-3.45s-.16-2.49-.42-3.45c-.39-1.43-1-2.37-1.7-2.37s-1.32.93-1.7,2.37h-.29c.43-1.67,1.16-2.77,2-2.77s1.57,1.1,2,2.77c.26.99.4,2.18.4,3.45s-.15,2.46-.4,3.45c-.43,1.67-1.17,2.77-2,2.77s-1.57-1.1-2-2.77h.3c.39,1.43,1,2.37,1.7,2.37Z"/>
            <path class="cls-6" d="M109.26,267.19c.79,0,1.49-1.12,1.9-2.8.24-.99.38-2.18.38-3.45s-.14-2.46-.38-3.45c-.41-1.69-1.11-2.8-1.9-2.8s-1.49,1.12-1.9,2.8h-.29c.45-1.92,1.26-3.21,2.19-3.21s1.74,1.29,2.19,3.21c.24,1.01.38,2.19.38,3.45s-.14,2.44-.38,3.45c-.45,1.92-1.26,3.21-2.19,3.21s-1.74-1.29-2.19-3.21h.29c.41,1.69,1.11,2.8,1.9,2.8Z"/>
          </g>
        </g>
        <g>
          <path class="cls-6" d="M162.53,321.86c0-2.44-1.39-4.42-3.11-4.42h-12.56c-1.72,0-3.11,1.98-3.11,4.42v12.61h18.77v-12.61Z"/>
          <path class="cls-6" d="M153.14,305c-.96.89-2.71,1.24-4.27,1.24-1.01,0-2.09-.14-2.98-.48.16.54.34,1.05.53,1.5h13.44c.19-.45.37-.96.54-1.5-.9.34-1.98.48-2.98.48-1.57,0-3.32-.35-4.27-1.24Z"/>
          <path class="cls-6" d="M153.14,317.44h-6.64c-.98-4.05-.89-12.67-.89-12.67h15.05s.09,8.62-.89,12.67h-6.63Z"/>
          <path class="cls-6" d="M162.1,286.95h-17.91s-.16,7.95.79,14.46c.1.67.21,1.32.33,1.94,0,0,.96.75,3.56.79.74.01,1.51-.1,2.13-.24.33-.08.64-.17.87-.27.35-.16.54-.28.54-.28h0s.01,0,.02,0c0-.01,0-.02,0-.04.32-.45.27-1.2.71-1.6.25.23.44.51.57.83.05.27.1.55.15.81,0,0,0,0,0,0,0,0,0,.02,0,.03,0,0,.28.22.79.39.26.09.59.16.96.24.51.1,1.11.12,1.81.13.51,0,1.02-.05,1.5-.11.48-.07.91-.18,1.26-.3.49-.17.81-.37.81-.37.12-.63.23-1.28.33-1.94.95-6.51.79-14.46.79-14.46Z"/>
          <path class="cls-6" d="M166.58,271.88c0,.48-.27.87-.61.87h-2.15c-.34,0-.61-.39-.61-.87v-19.44c0-.48.27-.87.61-.87h2.15c.34,0,.61.39.61.87v19.44Z"/>
          <path class="cls-6" d="M139.7,271.88c0,.48.27.87.61.87h2.15c.34,0,.61-.39.61-.87v-19.44c0-.48-.27-.87-.61-.87h-2.15c-.34,0-.61.39-.61.87v19.44Z"/>
          <path class="cls-6" d="M153.14,255.83c-2.11,0-3.83,2.43-3.83,5.44s1.71,5.44,3.83,5.44,3.83-2.43,3.83-5.44-1.71-5.44-3.83-5.44Z"/>
          <path class="cls-6" d="M153.14,252.68c.83,0,4.37-10.02,4.37-10.02l.19-2.26h-9.1l.19,2.26s3.53,10.02,4.37,10.02Z"/>
          <path class="cls-6" d="M153.14,257.09c-.48.22-1.01-.11-1.57-.78-1.33.85-2.26,2.75-2.26,4.96,0,3,1.71,5.44,3.83,5.44s3.83-2.43,3.83-5.44c0-2.21-.93-4.11-2.26-4.96-.55.67-1.09,1.01-1.56.78Z"/>
          <path class="cls-6" d="M151.58,256.31c.55.67,1.09,1.01,1.57.78.48.22,1.01-.11,1.56-.78-.48-.3-1.01-.48-1.56-.48s-1.09.17-1.57.48Z"/>
          <path class="cls-6" d="M151.58,256.31c.48-.3,1.01-.48,1.57-.48s1.09.17,1.56.48c2.23-2.73,4.73-11.08,4.73-11.08-.32-1.41-1.92-2.56-1.92-2.56,0,0-3.53,10.02-4.37,10.02s-4.37-10.02-4.37-10.02c0,0-1.6,1.15-1.92,2.56,0,0,2.49,8.35,4.72,11.08Z"/>
          <path class="cls-6" d="M166.39,248.89c-.37-2.47-6.96-3.67-6.96-3.67,0,0-2.49,8.35-4.73,11.08,1.33.85,2.26,2.75,2.26,4.96,0,3-1.71,5.44-3.83,5.44s-3.83-2.43-3.83-5.44c0-2.21.93-4.11,2.26-4.96-2.23-2.73-4.72-11.08-4.72-11.08,0,0-6.6,1.19-6.96,3.67,0,0-.24,2.08-.18,4.86,0,0,1.04,1.16,2.95,1.33,0,0-.46,14.07.88,18.62.12.41.26.75.41.99,0,0,2.06,3.75,9.2,3.79,7.14-.04,9.2-3.79,9.2-3.79.15-.24.29-.57.41-.99,1.34-4.56.88-18.62.88-18.62,1.91-.17,2.95-1.33,2.95-1.33.06-2.78-.18-4.86-.18-4.86Z"/>
          <path class="cls-6" d="M158.12,225.42c-1.39-.26-1.83-1.06-1.83-1.06-1.71.43-2.17-.59-2.17-.59-.21-.46-.98-.39-.98-.39,0,0-.76-.07-.98.39,0,0-.46,1.02-2.17.59,0,0-.44.8-1.83,1.06,0,0-1.8.39-1.51,6.01,0,0-.71.22.25,2.28,0,0-.19,3.05.66,3.11,0,0,.81,7.09,5.58,7.09s5.58-7.09,5.58-7.09c.86-.06.66-3.11.66-3.11.96-2.05.25-2.28.25-2.28.29-5.62-1.51-6.01-1.51-6.01Z"/>
          <path class="cls-6" d="M160.18,228.06c.61-1.48-.12-2.47-.12-2.47.2-2.08-.99-2.5-.99-2.5,0-1.66-1.53-1.94-1.53-1.94-.4-1.32-1.66-1.03-1.66-1.03-.61-1.06-1.59-.39-1.59-.39-.22-.69-1.16-.61-1.16-.61,0,0-.94-.09-1.16.61,0,0-.98-.67-1.59.39,0,0-1.26-.29-1.66,1.03,0,0-1.52.27-1.53,1.94,0,0-1.19.42-.99,2.5,0,0-.73,1-.12,2.47,0,0-.48,1.39.55,3.36-.29-5.62,1.51-6.01,1.51-6.01,1.39-.26,1.83-1.06,1.83-1.06,1.71.43,2.17-.59,2.17-.59.21-.46.98-.39.98-.39,0,0,.76-.07.98.39,0,0,.46,1.02,2.17.59,0,0,.44.8,1.83,1.06,0,0,1.8.39,1.51,6.01,1.04-1.97.55-3.36.55-3.36Z"/>
          <path class="cls-6" d="M153.14,278.48c-7.15-.04-9.2-3.79-9.2-3.79-.15-.24-.29-.57-.41-.99v17.65c0,.48.27.87.61.87h17.99c.34,0,.61-.39.61-.87v-17.65c-.12.41-.26.75-.41.99,0,0-2.06,3.75-9.2,3.79Z"/>
          <path class="cls-6" d="M153.14,255.83c-2.11,0-3.83,2.43-3.83,5.44s1.71,5.44,3.83,5.44,3.83-2.43,3.83-5.44-1.71-5.44-3.83-5.44ZM153.14,264.37c-1.21,0-2.18-1.39-2.18-3.1s.98-3.1,2.18-3.1,2.18,1.39,2.18,3.1-.98,3.1-2.18,3.1Z"/>
          <rect class="cls-6" x="152.96" y="282.09" width=".37" height="10.13"/>
          <rect class="cls-6" x="152.96" y="292.22" width=".37" height="9.75"/>
          <rect class="cls-6" x="152.96" y="301.89" width=".37" height="15.55"/>
          <path class="cls-6" d="M162.42,303.36c0-.86-.44-1.49-1.12-1.94-.1.67-.35,1.97-.35,1.94-.48.35-1.82.79-3.54.79s-3.05-.43-3.54-.78c0,0-.01,0-.02-.01-.06-.29-.11-.58-.16-.88-.13-.29-.32-.54-.55-.76-.24.22-.43.47-.55.76-.05.3-.1.59-.16.88,0,0-.01,0-.02.01-.49.35-1.84.78-3.54.78s-3.06-.44-3.54-.79c0,.02-.25-1.28-.35-1.94-.68.45-1.12,1.09-1.12,1.94,0,.68.28,1.22.73,1.64h0s0,0,.01.01c.05.05.1.09.16.13.02.01.04.03.05.04.04.03.09.07.14.1.02.02.04.03.07.04.05.03.09.06.14.09.02.01.05.03.07.04.05.03.11.06.16.09.02,0,.04.02.06.03.07.04.15.07.22.1.03.01.06.02.09.04.04.02.08.03.11.05,0,0,0,0,0,0,.9.34,1.98.48,2.98.48s2.08-.14,2.98-.48c.5-.19.95-.44,1.29-.76.34.32.79.57,1.29.76.9.34,1.98.48,2.98.48s2.08-.14,2.98-.48h0s.08-.03.11-.04c.03-.01.06-.02.09-.04.08-.03.15-.07.22-.1.02,0,.04-.02.06-.03.06-.03.11-.06.16-.09.02-.01.05-.03.07-.04.05-.03.09-.06.14-.09.02-.01.04-.03.07-.04.05-.03.09-.06.14-.1.02-.01.04-.03.05-.04.05-.04.11-.09.16-.13,0,0,0,0,.01-.01h0c.45-.42.73-.96.73-1.64Z"/>
        </g>
        <g>
          <path class="cls-6" d="M211.54,321.86c0-2.44-1.39-4.42-3.11-4.42h-12.56c-1.72,0-3.11,1.98-3.11,4.42v12.61h18.77v-12.61Z"/>
          <path class="cls-6" d="M202.15,305c-.96.89-2.71,1.24-4.27,1.24-1.01,0-2.08-.14-2.98-.48.16.54.34,1.05.54,1.5h13.44c.19-.45.37-.96.53-1.5-.9.34-1.98.48-2.98.48-1.57,0-3.32-.35-4.27-1.24Z"/>
          <path class="cls-6" d="M202.15,317.44h-6.64c-.98-4.05-.89-12.67-.89-12.67h15.05s.09,8.62-.89,12.67h-6.64Z"/>
          <path class="cls-6" d="M211.11,286.95h-17.91s-.16,7.95.79,14.46c.1.67.21,1.32.33,1.94,0,0,.96.75,3.56.79.74.01,1.51-.1,2.13-.24.33-.08.64-.17.87-.27.35-.16.54-.28.54-.28,0,0,0,0,0,.01,0,0,.01,0,.02-.01,0-.01,0-.02,0-.04.32-.45.27-1.2.71-1.6.25.23.44.51.57.83.05.27.1.55.15.81,0,0,0,0,0,0,0,0,0,.02,0,.03,0,0,.28.22.79.39.26.09.59.16.96.24.51.1,1.11.12,1.81.13.51,0,1.02-.05,1.5-.11.48-.07.91-.18,1.26-.3.49-.17.81-.37.81-.37.12-.63.23-1.28.33-1.94.95-6.51.79-14.46.79-14.46Z"/>
          <path class="cls-6" d="M215.59,271.88c0,.48-.27.87-.61.87h-2.15c-.34,0-.61-.39-.61-.87v-19.44c0-.48.27-.87.61-.87h2.15c.34,0,.61.39.61.87v19.44Z"/>
          <path class="cls-6" d="M188.71,271.88c0,.48.27.87.61.87h2.15c.34,0,.61-.39.61-.87v-19.44c0-.48-.27-.87-.61-.87h-2.15c-.34,0-.61.39-.61.87v19.44Z"/>
          <path class="cls-6" d="M202.15,255.83c-2.11,0-3.83,2.43-3.83,5.44s1.71,5.44,3.83,5.44,3.83-2.43,3.83-5.44-1.71-5.44-3.83-5.44Z"/>
          <path class="cls-6" d="M202.15,252.68c.83,0,4.37-10.02,4.37-10.02l.19-2.26h-9.1l.19,2.26s3.53,10.02,4.37,10.02Z"/>
          <path class="cls-6" d="M202.15,257.09c-.48.22-1.01-.11-1.57-.78-1.33.85-2.26,2.75-2.26,4.96,0,3,1.71,5.44,3.83,5.44s3.83-2.43,3.83-5.44c0-2.21-.93-4.11-2.26-4.96-.55.67-1.09,1.01-1.56.78Z"/>
          <path class="cls-6" d="M200.58,256.31c.55.67,1.09,1.01,1.57.78.48.22,1.01-.11,1.56-.78-.48-.3-1.01-.48-1.56-.48s-1.09.17-1.57.48Z"/>
          <path class="cls-6" d="M200.58,256.31c.48-.3,1.01-.48,1.57-.48s1.09.17,1.56.48c2.23-2.73,4.73-11.08,4.73-11.08-.32-1.41-1.92-2.56-1.92-2.56,0,0-3.53,10.02-4.37,10.02s-4.37-10.02-4.37-10.02c0,0-1.6,1.15-1.92,2.56,0,0,2.49,8.35,4.72,11.08Z"/>
          <path class="cls-6" d="M215.4,248.89c-.37-2.47-6.96-3.67-6.96-3.67,0,0-2.49,8.35-4.73,11.08,1.33.85,2.26,2.75,2.26,4.96,0,3-1.71,5.44-3.83,5.44s-3.83-2.43-3.83-5.44c0-2.21.93-4.11,2.26-4.96-2.23-2.73-4.72-11.08-4.72-11.08,0,0-6.6,1.19-6.96,3.67,0,0-.24,2.08-.18,4.86,0,0,1.04,1.16,2.95,1.33,0,0-.46,14.07.88,18.62.12.41.26.75.41.99,0,0,2.06,3.75,9.2,3.79,7.14-.04,9.2-3.79,9.2-3.79.15-.24.29-.57.41-.99,1.34-4.56.88-18.62.88-18.62,1.91-.17,2.95-1.33,2.95-1.33.06-2.78-.18-4.86-.18-4.86Z"/>
          <path class="cls-6" d="M207.13,225.42c-1.39-.26-1.83-1.06-1.83-1.06-1.71.43-2.17-.59-2.17-.59-.21-.46-.98-.39-.98-.39,0,0-.76-.07-.98.39,0,0-.46,1.02-2.17.59,0,0-.44.8-1.83,1.06,0,0-1.8.39-1.51,6.01,0,0-.71.22.25,2.28,0,0-.19,3.05.66,3.11,0,0,.81,7.09,5.58,7.09s5.58-7.09,5.58-7.09c.86-.06.66-3.11.66-3.11.96-2.05.25-2.28.25-2.28.29-5.62-1.51-6.01-1.51-6.01Z"/>
          <path class="cls-6" d="M209.19,228.06c.61-1.48-.12-2.47-.12-2.47.2-2.08-.99-2.5-.99-2.5-.01-1.66-1.53-1.94-1.53-1.94-.4-1.32-1.66-1.03-1.66-1.03-.61-1.06-1.59-.39-1.59-.39-.22-.69-1.16-.61-1.16-.61,0,0-.94-.09-1.16.61,0,0-.98-.67-1.59.39,0,0-1.26-.29-1.66,1.03,0,0-1.52.27-1.53,1.94,0,0-1.19.42-.99,2.5,0,0-.73,1-.12,2.47,0,0-.48,1.39.55,3.36-.29-5.62,1.51-6.01,1.51-6.01,1.39-.26,1.83-1.06,1.83-1.06,1.71.43,2.17-.59,2.17-.59.21-.46.98-.39.98-.39,0,0,.76-.07.98.39,0,0,.46,1.02,2.17.59,0,0,.44.8,1.83,1.06,0,0,1.8.39,1.51,6.01,1.04-1.97.55-3.36.55-3.36Z"/>
          <path class="cls-6" d="M202.15,278.48c-7.14-.04-9.2-3.79-9.2-3.79-.15-.24-.29-.57-.41-.99v17.65c0,.48.27.87.61.87h17.99c.34,0,.61-.39.61-.87v-17.65c-.12.41-.26.75-.41.99,0,0-2.06,3.75-9.2,3.79Z"/>
          <path class="cls-6" d="M202.15,255.83c-2.11,0-3.83,2.43-3.83,5.44s1.71,5.44,3.83,5.44,3.83-2.43,3.83-5.44-1.71-5.44-3.83-5.44ZM202.15,264.37c-1.21,0-2.18-1.39-2.18-3.1s.98-3.1,2.18-3.1,2.18,1.39,2.18,3.1-.98,3.1-2.18,3.1Z"/>
          <rect class="cls-6" x="201.97" y="282.09" width=".37" height="10.13"/>
          <rect class="cls-6" x="201.97" y="292.22" width=".37" height="9.75"/>
          <rect class="cls-6" x="201.97" y="301.89" width=".37" height="15.55"/>
          <path class="cls-6" d="M211.43,303.36c0-.86-.44-1.49-1.12-1.94-.1.67-.35,1.97-.35,1.94-.48.35-1.82.79-3.54.79s-3.05-.43-3.54-.78c0,0-.01,0-.02-.01-.06-.29-.11-.58-.16-.88-.13-.29-.32-.54-.55-.76-.24.22-.43.47-.55.76-.05.3-.1.59-.16.88,0,0-.01,0-.02.01-.49.35-1.84.78-3.54.78s-3.06-.44-3.54-.79c0,.02-.25-1.28-.35-1.94-.68.45-1.12,1.09-1.12,1.94,0,.68.28,1.22.73,1.64h0s0,0,.01.01c.05.05.1.09.16.13.02.01.04.03.05.04.04.03.09.07.14.1.02.02.04.03.07.04.05.03.09.06.14.09.02.01.05.03.07.04.05.03.11.06.16.09.02,0,.04.02.06.03.07.04.15.07.22.1.03.01.06.02.09.04.04.02.08.03.11.05,0,0,0,0,0,0,.9.34,1.98.48,2.98.48s2.08-.14,2.98-.48c.5-.19.95-.44,1.29-.76.34.32.79.57,1.29.76.9.34,1.98.48,2.98.48s2.08-.14,2.98-.48c0,0,0,0,0,0,.04-.01.08-.03.11-.05.03-.01.06-.02.09-.04.08-.03.15-.07.22-.1.02,0,.04-.02.06-.03.06-.03.11-.06.16-.09.02-.01.05-.03.07-.04.05-.03.09-.06.14-.09.02-.01.04-.03.07-.04.05-.03.09-.06.14-.1.02-.01.04-.03.05-.04.05-.04.11-.09.16-.13,0,0,0,0,.01-.01h0c.45-.42.73-.96.73-1.64Z"/>
        </g>
        <g>
          <path class="cls-6" d="M260.54,321.86c0-2.44-1.39-4.42-3.11-4.42h-12.56c-1.72,0-3.11,1.98-3.11,4.42v12.61h18.77v-12.61Z"/>
          <path class="cls-6" d="M251.16,305c-.96.89-2.71,1.24-4.27,1.24-1.01,0-2.08-.14-2.98-.48.16.54.34,1.05.54,1.5h13.44c.19-.45.37-.96.53-1.5-.9.34-1.98.48-2.98.48-1.57,0-3.32-.35-4.27-1.24Z"/>
          <path class="cls-6" d="M251.16,317.44h-6.64c-.98-4.05-.89-12.67-.89-12.67h15.05s.09,8.62-.89,12.67h-6.64Z"/>
          <path class="cls-6" d="M260.11,286.95h-17.91s-.16,7.95.79,14.46c.1.67.21,1.32.33,1.94,0,0,.96.75,3.56.79.74.01,1.51-.1,2.13-.24.33-.08.64-.17.87-.27.35-.16.54-.28.54-.28,0,0,0,0,0,.01,0,0,.01,0,.02-.01,0-.01,0-.02,0-.04.32-.45.27-1.2.71-1.6.25.23.44.51.57.83.05.27.1.55.15.81,0,0,0,0,0,0,0,0,0,.02,0,.03,0,0,.28.22.79.39.26.09.59.16.96.24.51.1,1.11.12,1.81.13.51,0,1.02-.05,1.5-.11.48-.07.91-.18,1.26-.3.49-.17.81-.37.81-.37.12-.63.23-1.28.33-1.94.95-6.51.79-14.46.79-14.46Z"/>
          <path class="cls-6" d="M264.6,271.88c0,.48-.27.87-.61.87h-2.15c-.34,0-.61-.39-.61-.87v-19.44c0-.48.27-.87.61-.87h2.15c.34,0,.61.39.61.87v19.44Z"/>
          <path class="cls-6" d="M237.71,271.88c0,.48.27.87.61.87h2.15c.34,0,.61-.39.61-.87v-19.44c0-.48-.27-.87-.61-.87h-2.15c-.34,0-.61.39-.61.87v19.44Z"/>
          <path class="cls-6" d="M251.16,255.83c-2.11,0-3.83,2.43-3.83,5.44s1.71,5.44,3.83,5.44,3.83-2.43,3.83-5.44-1.71-5.44-3.83-5.44Z"/>
          <path class="cls-6" d="M251.16,252.68c.83,0,4.37-10.02,4.37-10.02l.19-2.26h-9.1l.19,2.26s3.53,10.02,4.37,10.02Z"/>
          <path class="cls-6" d="M251.16,257.09c-.48.22-1.01-.11-1.57-.78-1.33.85-2.26,2.75-2.26,4.96,0,3,1.71,5.44,3.83,5.44s3.83-2.43,3.83-5.44c0-2.21-.93-4.11-2.26-4.96-.55.67-1.09,1.01-1.56.78Z"/>
          <path class="cls-6" d="M249.59,256.31c.55.67,1.09,1.01,1.57.78.48.22,1.01-.11,1.56-.78-.48-.3-1.01-.48-1.56-.48s-1.09.17-1.57.48Z"/>
          <path class="cls-6" d="M249.59,256.31c.48-.3,1.01-.48,1.57-.48s1.09.17,1.56.48c2.23-2.73,4.72-11.08,4.72-11.08-.32-1.41-1.92-2.56-1.92-2.56,0,0-3.53,10.02-4.37,10.02s-4.37-10.02-4.37-10.02c0,0-1.6,1.15-1.92,2.56,0,0,2.49,8.35,4.72,11.08Z"/>
          <path class="cls-6" d="M264.41,248.89c-.37-2.47-6.96-3.67-6.96-3.67,0,0-2.49,8.35-4.72,11.08,1.33.85,2.26,2.75,2.26,4.96,0,3-1.71,5.44-3.83,5.44s-3.83-2.43-3.83-5.44c0-2.21.93-4.11,2.26-4.96-2.23-2.73-4.72-11.08-4.72-11.08,0,0-6.6,1.19-6.96,3.67,0,0-.24,2.08-.18,4.86,0,0,1.04,1.16,2.95,1.33,0,0-.46,14.07.88,18.62.12.41.26.75.41.99,0,0,2.06,3.75,9.2,3.79,7.14-.04,9.2-3.79,9.2-3.79.15-.24.29-.57.41-.99,1.34-4.56.88-18.62.88-18.62,1.91-.17,2.95-1.33,2.95-1.33.06-2.78-.18-4.86-.18-4.86Z"/>
          <path class="cls-6" d="M256.13,225.42c-1.39-.26-1.83-1.06-1.83-1.06-1.71.43-2.17-.59-2.17-.59-.21-.46-.98-.39-.98-.39,0,0-.76-.07-.98.39,0,0-.46,1.02-2.17.59,0,0-.44.8-1.83,1.06,0,0-1.8.39-1.51,6.01,0,0-.71.22.25,2.28,0,0-.19,3.05.66,3.11,0,0,.81,7.09,5.58,7.09s5.58-7.09,5.58-7.09c.86-.06.66-3.11.66-3.11.96-2.05.25-2.28.25-2.28.29-5.62-1.51-6.01-1.51-6.01Z"/>
          <path class="cls-6" d="M258.2,228.06c.61-1.48-.12-2.47-.12-2.47.2-2.08-.99-2.5-.99-2.5-.01-1.66-1.53-1.94-1.53-1.94-.4-1.32-1.66-1.03-1.66-1.03-.61-1.06-1.59-.39-1.59-.39-.22-.69-1.16-.61-1.16-.61,0,0-.94-.09-1.16.61,0,0-.98-.67-1.59.39,0,0-1.26-.29-1.66,1.03,0,0-1.52.27-1.53,1.94,0,0-1.19.42-.99,2.5,0,0-.73,1-.12,2.47,0,0-.48,1.39.55,3.36-.29-5.62,1.51-6.01,1.51-6.01,1.39-.26,1.83-1.06,1.83-1.06,1.71.43,2.17-.59,2.17-.59.21-.46.98-.39.98-.39,0,0,.76-.07.98.39,0,0,.46,1.02,2.17.59,0,0,.44.8,1.83,1.06,0,0,1.8.39,1.51,6.01,1.04-1.97.55-3.36.55-3.36Z"/>
          <path class="cls-6" d="M251.16,278.48c-7.14-.04-9.2-3.79-9.2-3.79-.15-.24-.29-.57-.41-.99v17.65c0,.48.27.87.61.87h17.99c.34,0,.61-.39.61-.87v-17.65c-.12.41-.26.75-.41.99,0,0-2.06,3.75-9.2,3.79Z"/>
          <path class="cls-6" d="M251.16,255.83c-2.11,0-3.83,2.43-3.83,5.44s1.71,5.44,3.83,5.44,3.83-2.43,3.83-5.44-1.71-5.44-3.83-5.44ZM251.16,264.37c-1.21,0-2.18-1.39-2.18-3.1s.98-3.1,2.18-3.1,2.18,1.39,2.18,3.1-.98,3.1-2.18,3.1Z"/>
          <rect class="cls-6" x="250.97" y="282.09" width=".37" height="10.13"/>
          <rect class="cls-6" x="250.97" y="292.22" width=".37" height="9.75"/>
          <rect class="cls-6" x="250.97" y="301.89" width=".37" height="15.55"/>
          <path class="cls-6" d="M260.44,303.36c0-.86-.44-1.49-1.12-1.94-.1.67-.35,1.97-.35,1.94-.48.35-1.82.79-3.54.79s-3.05-.43-3.54-.78c0,0-.01,0-.02-.01-.06-.29-.11-.58-.16-.88-.13-.29-.32-.54-.55-.76-.24.22-.43.47-.55.76-.05.3-.1.59-.16.88,0,0-.01,0-.02.01-.49.35-1.84.78-3.54.78s-3.06-.44-3.54-.79c0,.02-.25-1.28-.35-1.94-.68.45-1.12,1.09-1.12,1.94,0,.68.28,1.22.73,1.64h0s0,0,.01.01c.05.05.1.09.16.13.02.01.03.03.05.04.04.03.09.07.14.1.02.02.04.03.07.04.05.03.09.06.14.09.02.01.05.03.07.04.05.03.11.06.16.09.02,0,.04.02.06.03.07.04.15.07.22.1.03.01.06.02.09.04.04.02.08.03.11.05,0,0,0,0,0,0,.9.34,1.98.48,2.98.48s2.08-.14,2.98-.48c.5-.19.95-.44,1.29-.76.34.32.79.57,1.29.76.9.34,1.98.48,2.98.48s2.08-.14,2.98-.48c0,0,0,0,0,0,.04-.01.08-.03.11-.05.03-.01.06-.02.09-.04.08-.03.15-.07.22-.1.02,0,.04-.02.06-.03.06-.03.11-.06.16-.09.02-.01.05-.03.07-.04.05-.03.09-.06.14-.09.02-.01.04-.03.07-.04.05-.03.09-.06.14-.1.02-.01.04-.03.05-.04.05-.04.11-.09.16-.13,0,0,0,0,.01-.01h0c.45-.42.73-.96.73-1.64Z"/>
        </g>
        <g>
          <path class="cls-6" d="M309.55,321.86c0-2.44-1.39-4.42-3.11-4.42h-12.56c-1.72,0-3.11,1.98-3.11,4.42v12.61h18.77v-12.61Z"/>
          <path class="cls-6" d="M300.17,305c-.96.89-2.71,1.24-4.27,1.24-1.01,0-2.08-.14-2.98-.48.16.54.34,1.05.54,1.5h13.44c.19-.45.37-.96.53-1.5-.9.34-1.98.48-2.98.48-1.57,0-3.32-.35-4.27-1.24Z"/>
          <path class="cls-6" d="M300.17,317.44h-6.64c-.98-4.05-.89-12.67-.89-12.67h15.05s.09,8.62-.89,12.67h-6.64Z"/>
          <path class="cls-6" d="M309.12,286.95h-17.91s-.16,7.95.79,14.46c.1.67.21,1.32.33,1.94,0,0,.96.75,3.56.79.74.01,1.51-.1,2.13-.24.33-.08.64-.17.87-.27.35-.16.54-.28.54-.28,0,0,0,0,0,.01,0,0,.01,0,.02-.01,0-.01,0-.02,0-.04.32-.45.27-1.2.71-1.6.25.23.44.51.57.83.05.27.1.55.15.81,0,0,0,0,0,0,0,0,0,.02,0,.03,0,0,.28.22.79.39.26.09.59.16.96.24.51.1,1.11.12,1.81.13.51,0,1.02-.05,1.5-.11.48-.07.91-.18,1.26-.3.49-.17.81-.37.81-.37.12-.63.23-1.28.33-1.94.95-6.51.79-14.46.79-14.46Z"/>
          <path class="cls-6" d="M313.61,271.88c0,.48-.27.87-.61.87h-2.15c-.34,0-.61-.39-.61-.87v-19.44c0-.48.27-.87.61-.87h2.15c.34,0,.61.39.61.87v19.44Z"/>
          <path class="cls-6" d="M286.72,271.88c0,.48.27.87.61.87h2.15c.34,0,.61-.39.61-.87v-19.44c0-.48-.27-.87-.61-.87h-2.15c-.34,0-.61.39-.61.87v19.44Z"/>
          <path class="cls-6" d="M300.17,255.83c-2.11,0-3.83,2.43-3.83,5.44s1.71,5.44,3.83,5.44,3.83-2.43,3.83-5.44-1.71-5.44-3.83-5.44Z"/>
          <path class="cls-6" d="M300.17,252.68c.83,0,4.37-10.02,4.37-10.02l.19-2.26h-9.1l.19,2.26s3.53,10.02,4.37,10.02Z"/>
          <path class="cls-6" d="M300.17,257.09c-.48.22-1.01-.11-1.56-.78-1.33.85-2.26,2.75-2.26,4.96,0,3,1.71,5.44,3.83,5.44s3.83-2.43,3.83-5.44c0-2.21-.93-4.11-2.26-4.96-.55.67-1.09,1.01-1.56.78Z"/>
          <path class="cls-6" d="M298.6,256.31c.55.67,1.09,1.01,1.56.78.48.22,1.01-.11,1.56-.78-.48-.3-1.01-.48-1.56-.48s-1.09.17-1.56.48Z"/>
          <path class="cls-6" d="M298.6,256.31c.48-.3,1.01-.48,1.56-.48s1.09.17,1.56.48c2.23-2.73,4.72-11.08,4.72-11.08-.32-1.41-1.92-2.56-1.92-2.56,0,0-3.53,10.02-4.37,10.02s-4.37-10.02-4.37-10.02c0,0-1.6,1.15-1.92,2.56,0,0,2.49,8.35,4.73,11.08Z"/>
          <path class="cls-6" d="M313.42,248.89c-.37-2.47-6.96-3.67-6.96-3.67,0,0-2.49,8.35-4.72,11.08,1.33.85,2.26,2.75,2.26,4.96,0,3-1.71,5.44-3.83,5.44s-3.83-2.43-3.83-5.44c0-2.21.93-4.11,2.26-4.96-2.23-2.73-4.73-11.08-4.73-11.08,0,0-6.6,1.19-6.96,3.67,0,0-.24,2.08-.18,4.86,0,0,1.04,1.16,2.95,1.33,0,0-.46,14.07.88,18.62.12.41.26.75.41.99,0,0,2.06,3.75,9.2,3.79,7.14-.04,9.2-3.79,9.2-3.79.15-.24.29-.57.41-.99,1.34-4.56.88-18.62.88-18.62,1.91-.17,2.95-1.33,2.95-1.33.06-2.78-.18-4.86-.18-4.86Z"/>
          <path class="cls-6" d="M305.14,225.42c-1.39-.26-1.83-1.06-1.83-1.06-1.71.43-2.17-.59-2.17-.59-.21-.46-.98-.39-.98-.39,0,0-.76-.07-.98.39,0,0-.46,1.02-2.17.59,0,0-.44.8-1.83,1.06,0,0-1.8.39-1.51,6.01,0,0-.71.22.25,2.28,0,0-.19,3.05.66,3.11,0,0,.81,7.09,5.58,7.09s5.58-7.09,5.58-7.09c.85-.06.66-3.11.66-3.11.96-2.05.25-2.28.25-2.28.29-5.62-1.51-6.01-1.51-6.01Z"/>
          <path class="cls-6" d="M307.21,228.06c.61-1.48-.12-2.47-.12-2.47.2-2.08-.99-2.5-.99-2.5-.01-1.66-1.53-1.94-1.53-1.94-.4-1.32-1.66-1.03-1.66-1.03-.61-1.06-1.59-.39-1.59-.39-.22-.69-1.16-.61-1.16-.61,0,0-.94-.09-1.16.61,0,0-.98-.67-1.59.39,0,0-1.26-.29-1.66,1.03,0,0-1.52.27-1.53,1.94,0,0-1.19.42-.99,2.5,0,0-.73,1-.12,2.47,0,0-.48,1.39.55,3.36-.29-5.62,1.51-6.01,1.51-6.01,1.39-.26,1.83-1.06,1.83-1.06,1.71.43,2.17-.59,2.17-.59.21-.46.98-.39.98-.39,0,0,.76-.07.98.39,0,0,.46,1.02,2.17.59,0,0,.44.8,1.83,1.06,0,0,1.8.39,1.51,6.01,1.04-1.97.55-3.36.55-3.36Z"/>
          <path class="cls-6" d="M300.17,278.48c-7.14-.04-9.2-3.79-9.2-3.79-.15-.24-.29-.57-.41-.99v17.65c0,.48.27.87.61.87h17.99c.34,0,.61-.39.61-.87v-17.65c-.12.41-.26.75-.41.99,0,0-2.06,3.75-9.2,3.79Z"/>
          <path class="cls-6" d="M300.17,255.83c-2.11,0-3.83,2.43-3.83,5.44s1.71,5.44,3.83,5.44,3.83-2.43,3.83-5.44-1.71-5.44-3.83-5.44ZM300.17,264.37c-1.21,0-2.18-1.39-2.18-3.1s.98-3.1,2.18-3.1,2.18,1.39,2.18,3.1-.98,3.1-2.18,3.1Z"/>
          <rect class="cls-6" x="299.98" y="282.09" width=".37" height="10.13"/>
          <rect class="cls-6" x="299.98" y="292.22" width=".37" height="9.75"/>
          <rect class="cls-6" x="299.98" y="301.89" width=".37" height="15.55"/>
          <path class="cls-6" d="M309.45,303.36c0-.86-.44-1.49-1.12-1.94-.1.67-.35,1.97-.35,1.94-.48.35-1.82.79-3.54.79s-3.05-.43-3.54-.78c0,0-.01,0-.02-.01-.06-.29-.11-.58-.16-.88-.13-.29-.32-.54-.55-.76-.24.22-.43.47-.55.76-.05.3-.1.59-.16.88,0,0-.01,0-.02.01-.49.35-1.84.78-3.54.78s-3.06-.44-3.54-.79c0,.02-.25-1.28-.35-1.94-.68.45-1.12,1.09-1.12,1.94,0,.68.28,1.22.73,1.64h0s0,0,.01.01c.05.05.1.09.16.13.02.01.04.03.05.04.04.03.09.07.14.1.02.02.04.03.07.04.05.03.09.06.14.09.02.01.05.03.07.04.05.03.11.06.16.09.02,0,.04.02.06.03.07.04.15.07.22.1.03.01.06.02.09.04.04.02.08.03.11.05h0c.9.34,1.98.48,2.98.48s2.08-.14,2.98-.48c.5-.19.95-.44,1.29-.76.34.32.79.57,1.29.76.9.34,1.98.48,2.98.48s2.08-.14,2.98-.48c0,0,0,0,0,0,.04-.01.08-.03.11-.05.03-.01.06-.02.09-.04.08-.03.15-.07.22-.1.02,0,.04-.02.06-.03.06-.03.11-.06.16-.09.02-.01.05-.03.07-.04.05-.03.09-.06.14-.09.02-.01.04-.03.07-.04.05-.03.09-.06.14-.1.02-.01.04-.03.05-.04.05-.04.11-.09.16-.13,0,0,0,0,.01-.01h0c.45-.42.73-.96.73-1.64Z"/>
        </g>
        <g>
          <path class="cls-6" d="M358.56,321.86c0-2.44-1.39-4.42-3.11-4.42h-12.56c-1.72,0-3.11,1.98-3.11,4.42v12.61h18.77v-12.61Z"/>
          <path class="cls-6" d="M349.17,305c-.96.89-2.71,1.24-4.27,1.24-1.01,0-2.08-.14-2.98-.48.16.54.34,1.05.54,1.5h13.44c.19-.45.37-.96.53-1.5-.9.34-1.98.48-2.98.48-1.57,0-3.32-.35-4.27-1.24Z"/>
          <path class="cls-6" d="M349.17,317.44h-6.64c-.98-4.05-.89-12.67-.89-12.67h15.05s.09,8.62-.89,12.67h-6.64Z"/>
          <path class="cls-6" d="M358.13,286.95h-17.91s-.16,7.95.79,14.46c.1.67.21,1.32.33,1.94,0,0,.96.75,3.56.79.74.01,1.51-.1,2.13-.24.33-.08.64-.17.87-.27.35-.16.54-.28.54-.28,0,0,0,0,0,.01,0,0,.01,0,.02-.01,0-.01,0-.02,0-.04.32-.45.27-1.2.71-1.6.25.23.44.51.57.83.05.27.1.55.15.81,0,0,0,0,0,0,0,0,0,.02,0,.03,0,0,.28.22.79.39.26.09.59.16.96.24.51.1,1.11.12,1.81.13.51,0,1.02-.05,1.5-.11.48-.07.91-.18,1.26-.3.49-.17.81-.37.81-.37.12-.63.23-1.28.33-1.94.95-6.51.79-14.46.79-14.46Z"/>
          <path class="cls-6" d="M362.62,271.88c0,.48-.27.87-.61.87h-2.15c-.34,0-.61-.39-.61-.87v-19.44c0-.48.27-.87.61-.87h2.15c.34,0,.61.39.61.87v19.44Z"/>
          <path class="cls-6" d="M335.73,271.88c0,.48.27.87.61.87h2.15c.34,0,.61-.39.61-.87v-19.44c0-.48-.27-.87-.61-.87h-2.15c-.34,0-.61.39-.61.87v19.44Z"/>
          <path class="cls-6" d="M349.17,255.83c-2.11,0-3.83,2.43-3.83,5.44s1.71,5.44,3.83,5.44,3.83-2.43,3.83-5.44-1.71-5.44-3.83-5.44Z"/>
          <path class="cls-6" d="M349.17,252.68c.83,0,4.37-10.02,4.37-10.02l.19-2.26h-9.1l.19,2.26s3.53,10.02,4.37,10.02Z"/>
          <path class="cls-6" d="M349.17,257.09c-.48.22-1.01-.11-1.57-.78-1.33.85-2.26,2.75-2.26,4.96,0,3,1.71,5.44,3.83,5.44s3.83-2.43,3.83-5.44c0-2.21-.93-4.11-2.26-4.96-.55.67-1.09,1.01-1.56.78Z"/>
          <path class="cls-6" d="M347.61,256.31c.55.67,1.09,1.01,1.57.78.48.22,1.01-.11,1.56-.78-.48-.3-1.01-.48-1.56-.48s-1.09.17-1.57.48Z"/>
          <path class="cls-6" d="M347.61,256.31c.48-.3,1.01-.48,1.57-.48s1.09.17,1.56.48c2.23-2.73,4.72-11.08,4.72-11.08-.32-1.41-1.92-2.56-1.92-2.56,0,0-3.53,10.02-4.37,10.02s-4.37-10.02-4.37-10.02c0,0-1.6,1.15-1.92,2.56,0,0,2.49,8.35,4.72,11.08Z"/>
          <path class="cls-6" d="M362.42,248.89c-.37-2.47-6.96-3.67-6.96-3.67,0,0-2.49,8.35-4.72,11.08,1.33.85,2.26,2.75,2.26,4.96,0,3-1.71,5.44-3.83,5.44s-3.83-2.43-3.83-5.44c0-2.21.93-4.11,2.26-4.96-2.23-2.73-4.72-11.08-4.72-11.08,0,0-6.6,1.19-6.96,3.67,0,0-.24,2.08-.18,4.86,0,0,1.04,1.16,2.95,1.33,0,0-.46,14.07.88,18.62.12.41.26.75.41.99,0,0,2.06,3.75,9.2,3.79,7.14-.04,9.2-3.79,9.2-3.79.15-.24.29-.57.41-.99,1.34-4.56.88-18.62.88-18.62,1.91-.17,2.95-1.33,2.95-1.33.06-2.78-.18-4.86-.18-4.86Z"/>
          <path class="cls-6" d="M354.15,225.42c-1.39-.26-1.83-1.06-1.83-1.06-1.71.43-2.17-.59-2.17-.59-.21-.46-.98-.39-.98-.39,0,0-.76-.07-.98.39,0,0-.46,1.02-2.17.59,0,0-.44.8-1.83,1.06,0,0-1.8.39-1.51,6.01,0,0-.71.22.25,2.28,0,0-.19,3.05.66,3.11,0,0,.81,7.09,5.58,7.09s5.58-7.09,5.58-7.09c.85-.06.66-3.11.66-3.11.96-2.05.25-2.28.25-2.28.29-5.62-1.51-6.01-1.51-6.01Z"/>
          <path class="cls-6" d="M356.22,228.06c.61-1.48-.12-2.47-.12-2.47.2-2.08-.99-2.5-.99-2.5-.01-1.66-1.53-1.94-1.53-1.94-.4-1.32-1.66-1.03-1.66-1.03-.61-1.06-1.59-.39-1.59-.39-.22-.69-1.16-.61-1.16-.61,0,0-.94-.09-1.16.61,0,0-.98-.67-1.59.39,0,0-1.26-.29-1.66,1.03,0,0-1.52.27-1.53,1.94,0,0-1.19.42-.99,2.5,0,0-.73,1-.12,2.47,0,0-.48,1.39.55,3.36-.29-5.62,1.51-6.01,1.51-6.01,1.39-.26,1.83-1.06,1.83-1.06,1.71.43,2.17-.59,2.17-.59.21-.46.98-.39.98-.39,0,0,.76-.07.98.39,0,0,.46,1.02,2.17.59,0,0,.44.8,1.83,1.06,0,0,1.8.39,1.51,6.01,1.04-1.97.55-3.36.55-3.36Z"/>
          <path class="cls-6" d="M349.17,278.48c-7.14-.04-9.2-3.79-9.2-3.79-.15-.24-.29-.57-.41-.99v17.65c0,.48.27.87.61.87h17.99c.34,0,.61-.39.61-.87v-17.65c-.12.41-.26.75-.41.99,0,0-2.06,3.75-9.2,3.79Z"/>
          <path class="cls-6" d="M349.17,255.83c-2.11,0-3.83,2.43-3.83,5.44s1.71,5.44,3.83,5.44,3.83-2.43,3.83-5.44-1.71-5.44-3.83-5.44ZM349.17,264.37c-1.21,0-2.18-1.39-2.18-3.1s.98-3.1,2.18-3.1,2.18,1.39,2.18,3.1-.98,3.1-2.18,3.1Z"/>
          <rect class="cls-6" x="348.99" y="282.09" width=".37" height="10.13"/>
          <rect class="cls-6" x="348.99" y="292.22" width=".37" height="9.75"/>
          <rect class="cls-6" x="348.99" y="301.89" width=".37" height="15.55"/>
          <path class="cls-6" d="M358.45,303.36c0-.86-.44-1.49-1.12-1.94-.1.67-.35,1.97-.35,1.94-.48.35-1.82.79-3.54.79s-3.05-.43-3.54-.78c0,0-.01,0-.02-.01-.06-.29-.11-.58-.16-.88-.13-.29-.32-.54-.55-.76-.24.22-.43.47-.55.76-.05.3-.1.59-.16.88,0,0-.01,0-.02.01-.49.35-1.84.78-3.54.78s-3.06-.44-3.54-.79c0,.02-.25-1.28-.35-1.94-.68.45-1.12,1.09-1.12,1.94,0,.68.28,1.22.73,1.64h0s0,0,.01.01c.05.05.1.09.16.13.02.01.04.03.05.04.04.03.09.07.14.1.02.02.04.03.07.04.05.03.09.06.14.09.02.01.05.03.07.04.05.03.11.06.16.09.02,0,.04.02.06.03.07.04.15.07.22.1.03.01.06.02.09.04.04.02.08.03.11.05h0c.9.34,1.98.48,2.98.48s2.08-.14,2.98-.48c.5-.19.95-.44,1.29-.76.34.32.79.57,1.29.76.9.34,1.98.48,2.98.48s2.08-.14,2.98-.48h0s.08-.03.11-.04c.03-.01.06-.02.09-.04.08-.03.15-.07.22-.1.02,0,.04-.02.06-.03.06-.03.11-.06.16-.09.02-.01.05-.03.07-.04.05-.03.09-.06.14-.09.02-.01.04-.03.07-.04.05-.03.09-.06.14-.1.02-.01.04-.03.05-.04.05-.04.11-.09.16-.13,0,0,.01,0,.01-.01h0c.45-.42.73-.96.73-1.64Z"/>
        </g>
      </g>
    </g>
  </g>
</svg>