<?xml version="1.0" encoding="UTF-8"?>
<svg xmlns="http://www.w3.org/2000/svg" xmlns:xlink="http://www.w3.org/1999/xlink" viewBox="0 0 512 512">
  <defs>
    <style>
      .cls-1, .cls-2 {
        fill: none;
      }

      .cls-3 {
        fill: url(#linear-gradient-2);
        mix-blend-mode: color-burn;
        opacity: .59;
      }

      .cls-4 {
        fill: #92bdc8;
      }

      .cls-5 {
        isolation: isolate;
      }

      .cls-6 {
        fill: url(#linear-gradient);
        opacity: .21;
      }

      .cls-2 {
        stroke: url(#New_Pattern_Swatch_1);
        stroke-miterlimit: 10;
        stroke-width: 8px;
      }
    </style>
    <linearGradient id="linear-gradient" x1="20.33" y1="489.95" x2="489" y2="21.28" gradientUnits="userSpaceOnUse">
      <stop offset=".47" stop-color="#e4f1fb"/>
      <stop offset=".51" stop-color="#dae8f3"/>
      <stop offset=".63" stop-color="#bdcbd9"/>
      <stop offset=".74" stop-color="#abbaca"/>
      <stop offset=".82" stop-color="#a5b4c5"/>
    </linearGradient>
    <linearGradient id="linear-gradient-2" x1="96.68" y1="-23.12" x2="418.53" y2="534.35" gradientUnits="userSpaceOnUse">
      <stop offset="0" stop-color="#fff"/>
      <stop offset="1" stop-color="#d5e9f8"/>
    </linearGradient>
    <pattern id="New_Pattern_Swatch_1" data-name="New Pattern Swatch 1" x="0" y="0" width="74.6" height="74.6" patternTransform="translate(-2089.89 -1066.83)" patternUnits="userSpaceOnUse" viewBox="0 0 74.6 74.6">
      <g>
        <rect class="cls-1" width="74.6" height="74.6"/>
        <rect class="cls-4" x="0" width="74.6" height="74.6"/>
      </g>
    </pattern>
  </defs>
  <g class="cls-5">
    <g id="Layer_3" data-name="Layer 3">
      <g>
        <rect class="cls-6" x="5.82" y="8.05" width="497.69" height="495.12" rx="47.21" ry="47.21"/>
        <path class="cls-3" d="M51.31,9.63h412.59c23.52,0,42.61,19.09,42.61,42.61v406.74c0,23.52-19.09,42.61-42.61,42.61H51.31c-23.52,0-42.61-19.09-42.61-42.61V52.25c0-23.52,19.09-42.61,42.61-42.61Z"/>
      </g>
    </g>
    <g id="Layer_2" data-name="Layer 2">
      <g>
        <path class="cls-2" d="M311.11,308.03c-31.88,13.48-69.1,8.79-90.71-12.83-28.91-28.91-27.56-85.73,7.08-120.37,34.64-34.64,89.16-38.28,120.37-7.08,26.83,26.83,27.9,70.92,5.64,104.77"/>
        <path class="cls-2" d="M252.25,312.9c-23.47,0-30.58,2.26-38.94,10.62-9.25,9.25-27.87,32.3-35.4,42.48-4.84,6.55-18.05,3.19-24.78-3.54-6.73-6.73-10.09-19.94-3.54-24.78,10.19-7.53,33.24-26.16,42.48-35.4,8.36-8.36,10.62-15.47,10.62-38.94"/>
        <path class="cls-2" d="M359.72,287.86c0,16.34-13.25,29.59-29.59,29.59s-29.59-13.25-29.59-29.59,13.25-29.59,29.59-29.59,29.59,13.25,29.59,29.59Z"/>
      </g>
    </g>
  </g>
</svg>