<?xml version="1.0" encoding="UTF-8"?>
<svg xmlns="http://www.w3.org/2000/svg" xmlns:xlink="http://www.w3.org/1999/xlink" viewBox="0 0 512 512">
  <defs>
    <style>
      .cls-1 {
        fill: none;
      }

      .cls-2 {
        fill: url(#linear-gradient-2);
        mix-blend-mode: color-burn;
        opacity: .59;
      }

      .cls-3 {
        fill: url(#New_Pattern_Swatch_1-3);
      }

      .cls-4 {
        fill: url(#New_Pattern_Swatch_1-4);
      }

      .cls-5 {
        fill: url(#New_Pattern_Swatch_1-2);
      }

      .cls-6 {
        fill: url(#New_Pattern_Swatch_1-9);
      }

      .cls-7 {
        fill: url(#New_Pattern_Swatch_1-8);
      }

      .cls-8 {
        fill: url(#New_Pattern_Swatch_1-7);
      }

      .cls-9 {
        fill: url(#New_Pattern_Swatch_1-6);
      }

      .cls-10 {
        fill: url(#New_Pattern_Swatch_1-5);
      }

      .cls-11 {
        fill: #92bdc8;
      }

      .cls-12 {
        isolation: isolate;
      }

      .cls-13 {
        clip-path: url(#clippath-1);
      }

      .cls-14 {
        clip-path: url(#clippath-3);
      }

      .cls-15 {
        clip-path: url(#clippath-4);
      }

      .cls-16 {
        clip-path: url(#clippath-2);
      }

      .cls-17 {
        clip-path: url(#clippath-7);
      }

      .cls-18 {
        clip-path: url(#clippath-6);
      }

      .cls-19 {
        clip-path: url(#clippath-9);
      }

      .cls-20 {
        clip-path: url(#clippath-8);
      }

      .cls-21 {
        clip-path: url(#clippath-5);
      }

      .cls-22 {
        fill: url(#linear-gradient);
        opacity: .21;
      }

      .cls-23 {
        fill: url(#New_Pattern_Swatch_1-10);
      }

      .cls-24 {
        fill: url(#New_Pattern_Swatch_1-11);
      }

      .cls-25 {
        clip-path: url(#clippath);
      }

      .cls-26 {
        fill: url(#New_Pattern_Swatch_1);
      }
    </style>
    <linearGradient id="linear-gradient" x1="20.33" y1="489.95" x2="489" y2="21.28" gradientUnits="userSpaceOnUse">
      <stop offset=".47" stop-color="#e4f1fb"/>
      <stop offset=".51" stop-color="#dae8f3"/>
      <stop offset=".63" stop-color="#bdcbd9"/>
      <stop offset=".74" stop-color="#abbaca"/>
      <stop offset=".82" stop-color="#a5b4c5"/>
    </linearGradient>
    <linearGradient id="linear-gradient-2" x1="96.68" y1="-23.12" x2="418.53" y2="534.35" gradientUnits="userSpaceOnUse">
      <stop offset="0" stop-color="#fff"/>
      <stop offset="1" stop-color="#d5e9f8"/>
    </linearGradient>
    <pattern id="New_Pattern_Swatch_1" data-name="New Pattern Swatch 1" x="0" y="0" width="74.6" height="74.6" patternTransform="translate(-4711 -164.94)" patternUnits="userSpaceOnUse" viewBox="0 0 74.6 74.6">
      <g>
        <rect class="cls-1" width="74.6" height="74.6"/>
        <rect class="cls-11" x="0" width="74.6" height="74.6"/>
      </g>
    </pattern>
    <clipPath id="clippath">
      <path class="cls-1" d="M295.43,285.68l-54.31,33.66c-.59.36-1.36.18-1.72-.4l-5.73-9.24c-.36-.59-.18-1.36.4-1.72l54.31-33.66c.59-.36,1.36-.18,1.72.4l5.73,9.24c.36.59.18,1.36-.4,1.72ZM240.87,316.56l52.18-32.35-4.41-7.12-52.18,32.35,4.41,7.12Z"/>
    </clipPath>
    <pattern id="New_Pattern_Swatch_1-2" data-name="New Pattern Swatch 1" patternTransform="translate(-4628.57 -164.94)" xlink:href="#New_Pattern_Swatch_1"/>
    <clipPath id="clippath-1">
      <path class="cls-1" d="M268.97,289.28c-.11.07-.24.12-.38.15-.67.16-1.35-.26-1.5-.94-1.58-6.78-1.71-13.04-.41-18.59,1.08-4.61,3.15-8.76,6.16-12.35,5.19-6.2,11.65-8.97,14.19-9.88.65-.23,1.37.11,1.6.76.23.65-.11,1.37-.76,1.6-1.83.65-8.18,3.24-13.11,9.13-2.75,3.28-4.65,7.09-5.64,11.31-1.21,5.18-1.07,11.05.41,17.46.12.54-.12,1.07-.56,1.35Z"/>
    </clipPath>
    <pattern id="New_Pattern_Swatch_1-3" data-name="New Pattern Swatch 1" patternTransform="translate(-4628.57 -164.94)" xlink:href="#New_Pattern_Swatch_1"/>
    <clipPath id="clippath-2">
      <path class="cls-1" d="M289.7,276.44c-.5.31-1.16.23-1.58-.22-.13-.14-3.24-3.55-5-8.67-1.64-4.8-2.35-12.03,3.64-19.21.44-.53,1.23-.6,1.76-.16.53.44.6,1.23.16,1.76-4.19,5.03-5.27,10.65-3.22,16.73,1.57,4.64,4.47,7.84,4.5,7.87.47.51.43,1.3-.07,1.77-.06.05-.12.1-.19.14Z"/>
    </clipPath>
    <pattern id="New_Pattern_Swatch_1-4" data-name="New Pattern Swatch 1" patternTransform="translate(-4628.57 -164.94)" xlink:href="#New_Pattern_Swatch_1"/>
    <clipPath id="clippath-3">
      <path class="cls-1" d="M292.49,250.52c-2.22,1.37-5.14.69-6.51-1.53-1.37-2.22-.69-5.14,1.53-6.51s5.14-.69,6.51,1.53c1.37,2.22.69,5.14-1.53,6.51ZM288.83,244.6c-1.04.65-1.37,2.02-.72,3.07.65,1.04,2.02,1.37,3.07.72s1.37-2.02.72-3.07-2.02-1.37-3.07-.72Z"/>
    </clipPath>
    <pattern id="New_Pattern_Swatch_1-5" data-name="New Pattern Swatch 1" patternTransform="translate(-4628.57 -164.94)" xlink:href="#New_Pattern_Swatch_1"/>
    <clipPath id="clippath-4">
      <path class="cls-1" d="M234.68,251.69c-2.22,1.37-5.14.69-6.51-1.53-1.37-2.22-.69-5.14,1.53-6.51s5.14-.69,6.51,1.53.69,5.14-1.53,6.51ZM231.01,245.77c-1.04.65-1.37,2.02-.72,3.07.65,1.04,2.02,1.37,3.07.72s1.37-2.02.72-3.07-2.02-1.37-3.07-.72Z"/>
    </clipPath>
    <pattern id="New_Pattern_Swatch_1-6" data-name="New Pattern Swatch 1" patternTransform="translate(-4628.57 -164.94)" xlink:href="#New_Pattern_Swatch_1"/>
    <clipPath id="clippath-5">
      <path class="cls-1" d="M256.12,297.25c-.44.27-1.03.25-1.45-.1-5.07-4.18-10.27-6.92-15.45-8.14-4.22-.99-8.48-.99-12.64.02-7.47,1.8-12.61,6.34-14.01,7.68-.5.48-1.29.46-1.77-.03-.48-.5-.46-1.29.03-1.77,1.94-1.87,7.3-6.42,15.16-8.32,4.55-1.1,9.19-1.1,13.8-.02,5.55,1.31,11.09,4.21,16.47,8.64.53.44.61,1.23.17,1.76-.09.11-.19.2-.31.27Z"/>
    </clipPath>
    <pattern id="New_Pattern_Swatch_1-7" data-name="New Pattern Swatch 1" patternTransform="translate(-4628.57 -164.94)" xlink:href="#New_Pattern_Swatch_1"/>
    <clipPath id="clippath-6">
      <path class="cls-1" d="M235.39,310.1c-.07.04-.14.08-.21.11-.65.25-1.37-.08-1.61-.72-.03-.09-1.6-4.07-5.05-7.52-4.53-4.54-10.05-6.07-16.41-4.55-.67.16-1.35-.25-1.51-.93-.16-.67.26-1.35.93-1.51,9.09-2.17,15.26,1.68,18.83,5.29,3.81,3.85,5.48,8.15,5.55,8.33.22.57,0,1.2-.51,1.51Z"/>
    </clipPath>
    <pattern id="New_Pattern_Swatch_1-8" data-name="New Pattern Swatch 1" patternTransform="translate(-4628.57 -164.94)" xlink:href="#New_Pattern_Swatch_1"/>
    <clipPath id="clippath-7">
      <path class="cls-1" d="M210.94,301.07c-2.22,1.37-5.14.69-6.51-1.53s-.69-5.14,1.53-6.51c2.22-1.37,5.14-.69,6.51,1.53,1.37,2.22.69,5.14-1.53,6.51ZM207.27,295.16c-1.04.65-1.37,2.02-.72,3.07.65,1.04,2.02,1.37,3.07.72s1.37-2.02.72-3.07c-.65-1.04-2.02-1.37-3.07-.72Z"/>
    </clipPath>
    <pattern id="New_Pattern_Swatch_1-9" data-name="New Pattern Swatch 1" patternTransform="translate(-4628.57 -164.94)" xlink:href="#New_Pattern_Swatch_1"/>
    <clipPath id="clippath-8">
      <path class="cls-1" d="M268.05,274s-.06.04-.09.05c-.62.31-1.37.07-1.68-.55-2.9-5.72-8.41-10.92-16.37-15.44-6.36-3.62-12.52-5.78-15.62-6.75-.66-.21-1.03-.91-.82-1.57.21-.66.91-1.03,1.57-.82,6.02,1.88,26.22,9.14,33.47,23.45.3.58.09,1.29-.46,1.63Z"/>
    </clipPath>
    <pattern id="New_Pattern_Swatch_1-10" data-name="New Pattern Swatch 1" patternTransform="translate(-4628.57 -164.94)" xlink:href="#New_Pattern_Swatch_1"/>
    <clipPath id="clippath-9">
      <path class="cls-1" d="M244.6,290.26c-.35.22-.8.26-1.2.07-.15-.07-3.82-1.87-7.05-7.74-1.85-3.36-3.21-7.41-4.03-12.01-1.01-5.7-1.21-12.3-.57-19.62.06-.69.67-1.2,1.35-1.14.69.06,1.2.67,1.14,1.35-.6,7.01-.43,13.32.51,18.76.75,4.32,1.98,8.1,3.67,11.23,2.84,5.28,6.04,6.91,6.07,6.92.62.3.88,1.04.59,1.67-.11.22-.27.4-.47.52Z"/>
    </clipPath>
    <pattern id="New_Pattern_Swatch_1-11" data-name="New Pattern Swatch 1" patternTransform="translate(-4628.57 -164.94)" xlink:href="#New_Pattern_Swatch_1"/>
  </defs>
  <g class="cls-12">
    <g id="Layer_3" data-name="Layer 3">
      <g>
        <rect class="cls-22" x="5.82" y="8.05" width="497.69" height="495.12" rx="47.21" ry="47.21"/>
        <path class="cls-2" d="M51.31,9.63h412.59c23.52,0,42.61,19.09,42.61,42.61v406.74c0,23.52-19.09,42.61-42.61,42.61H51.31c-23.52,0-42.61-19.09-42.61-42.61V52.25c0-23.52,19.09-42.61,42.61-42.61Z"/>
      </g>
    </g>
    <g id="Layer_2" data-name="Layer 2">
      <g>
        <g>
          <g>
            <g>
              <path class="cls-26" d="M203.61,200.95c0,.81-.09,1.47-.28,1.98-.19.51-.51.93-.96,1.28-.45.35-1.08.65-1.88.89l-.3-.79c.53-.2.91-.41,1.13-.62.22-.21.38-.47.46-.78.09-.31.13-.73.13-1.26v-10.14c0-.52-.03-.88-.08-1.07-.05-.19-.14-.34-.25-.44-.12-.1-.36-.2-.73-.3v-.44h3.81v.44c-.26.07-.46.13-.57.2-.12.07-.21.15-.28.25-.07.1-.12.25-.15.45-.03.2-.05.51-.05.92v9.45Z"/>
              <path class="cls-26" d="M200.18,205.72l-.64-1.7.46-.18c.58-.23.85-.41.97-.52.16-.15.26-.33.33-.55.07-.27.11-.65.11-1.13v-10.14c0-.63-.04-.86-.06-.95-.02-.06-.05-.15-.1-.19,0,0-.11-.08-.52-.19l-.37-.1v-1.33h4.81v1.33l-.38.09c-.3.08-.42.13-.45.15-.05.03-.09.06-.11.1,0,0-.04.06-.07.24-.02.12-.04.36-.04.84v9.45c0,.88-.1,1.59-.32,2.15-.22.59-.6,1.1-1.12,1.5-.5.39-1.17.71-2.04.98l-.45.14ZM202.04,189.75c.12.15.22.33.27.55.06.24.09.62.09,1.2v10.14c0,.58-.05,1.04-.15,1.4-.11.4-.31.74-.61,1.01-.02.02-.05.05-.08.07.18-.1.34-.2.48-.31.38-.29.64-.64.8-1.06.17-.44.25-1.05.25-1.8v-9.45c0-.45.02-.78.06-1.01.04-.27.12-.48.24-.65.02-.04.05-.07.08-.1h-1.44Z"/>
            </g>
            <g>
              <path class="cls-26" d="M202.29,221.21c-.72,0-1.38-.12-1.97-.36-.59-.24-1.1-.61-1.53-1.11-.42-.5-.75-1.14-.98-1.93-.23-.78-.35-1.72-.35-2.81,0-1.34.2-2.49.61-3.46.41-.96.99-1.7,1.76-2.2.76-.5,1.64-.75,2.65-.75,1.07,0,1.97.24,2.7.71.73.47,1.28,1.17,1.65,2.08.37.92.55,2.03.55,3.35,0,1.41-.21,2.6-.63,3.56-.42.97-1.02,1.69-1.78,2.17-.77.48-1.66.72-2.69.72ZM199.32,214.75c0,1.85.27,3.25.81,4.22.54.96,1.32,1.44,2.36,1.44.66,0,1.21-.21,1.67-.63.46-.42.8-1.03,1.03-1.84.23-.81.34-1.75.34-2.83,0-1.31-.13-2.4-.4-3.26-.27-.86-.63-1.49-1.1-1.88-.46-.39-1-.59-1.62-.59-.54,0-1.01.13-1.39.38-.39.25-.71.61-.97,1.08-.26.47-.44,1.03-.56,1.69-.12.66-.18,1.4-.18,2.21Z"/>
              <path class="cls-26" d="M202.29,221.71c-.78,0-1.51-.13-2.16-.39-.67-.27-1.25-.69-1.72-1.25-.47-.55-.83-1.26-1.08-2.11-.24-.82-.37-1.82-.37-2.95,0-1.4.22-2.63.65-3.65.45-1.05,1.1-1.87,1.94-2.42.84-.55,1.83-.84,2.92-.84,1.16,0,2.16.27,2.97.79.82.53,1.44,1.31,1.84,2.32.39.97.59,2.16.59,3.54,0,1.47-.23,2.74-.67,3.76-.46,1.06-1.13,1.87-1.98,2.4-.84.53-1.84.8-2.95.8ZM200.48,209.55c-.13.07-.25.14-.37.22-.68.45-1.2,1.1-1.57,1.98-.38.9-.57,1.99-.57,3.26,0,1.04.11,1.93.33,2.66.21.71.51,1.3.89,1.75.37.44.82.76,1.33.97.15.06.3.11.45.15-.51-.28-.93-.73-1.27-1.32-.59-1.05-.87-2.51-.87-4.46,0-.84.06-1.61.18-2.3.13-.72.33-1.34.61-1.85.23-.43.52-.78.86-1.06ZM203.9,209.28c.16.09.31.2.45.32.54.45.96,1.16,1.25,2.12.28.91.42,2.05.42,3.41,0,1.12-.12,2.11-.36,2.96-.25.89-.65,1.59-1.17,2.07-.03.03-.06.05-.09.08.1-.05.21-.11.3-.17.68-.42,1.21-1.08,1.59-1.95.39-.9.59-2.03.59-3.37,0-1.25-.17-2.31-.52-3.17-.33-.82-.82-1.44-1.46-1.85-.3-.19-.63-.34-1.01-.45ZM202.41,209.89c-.45,0-.81.1-1.12.3-.32.21-.58.5-.8.9-.23.41-.4.93-.51,1.54-.11.63-.17,1.34-.17,2.12,0,1.75.25,3.09.74,3.97.45.81,1.07,1.19,1.92,1.19.53,0,.97-.16,1.33-.5.39-.35.68-.89.89-1.6.21-.76.32-1.66.32-2.69,0-1.26-.13-2.3-.38-3.11-.24-.77-.55-1.32-.94-1.65-.37-.31-.8-.47-1.29-.47Z"/>
            </g>
            <g>
              <path class="cls-26" d="M199.89,230.27h.27c.23,0,.44-.04.63-.11.19-.07.4-.21.64-.41.23-.2.59-.57,1.07-1.11.58-.64.97-1.11,1.18-1.4.27-.34.44-.63.53-.87.07-.17.11-.34.11-.51,0-.24-.07-.42-.21-.53-.14-.11-.33-.18-.57-.2v-.44h3.93v.44c-.19.04-.38.12-.57.22-.19.11-.38.25-.57.43-.2.18-.48.49-.86.91l-3.03,3.41,3.28,4.77c.35.51.62.86.82,1.06.2.2.39.35.57.44.18.09.37.15.58.19v.44h-3.98v-.44c.22-.02.38-.06.49-.13.1-.07.15-.17.15-.3,0-.11-.03-.24-.1-.39-.07-.15-.18-.34-.33-.55l-2.1-3.13c-.25-.37-.43-.62-.54-.74-.11-.12-.24-.21-.37-.27-.13-.06-.31-.09-.53-.09h-.48v3.78c0,.4.01.7.04.88.03.19.07.33.14.44.06.11.16.2.28.27.12.07.32.14.6.22v.44h-3.8v-.44c.37-.1.62-.2.75-.32s.21-.28.25-.5c.04-.22.06-.55.06-.99v-7.81c0-.42-.01-.72-.04-.91-.03-.19-.08-.34-.15-.44-.07-.11-.16-.19-.28-.25-.11-.06-.31-.13-.59-.21v-.44h3.8v.44c-.26.07-.46.13-.57.2-.12.07-.21.15-.28.25-.07.1-.12.25-.15.45-.03.2-.05.51-.05.92v3.31Z"/>
              <path class="cls-26" d="M208.19,237.52h-4.98v-1.4l.46-.04c.07,0,.12-.01.16-.02,0-.03-.02-.06-.04-.09-.06-.13-.15-.29-.28-.47l-2.11-3.14c-.3-.46-.44-.62-.49-.68-.07-.07-.14-.12-.21-.15-.03-.01-.12-.04-.31-.04v3.28c0,.37.01.64.04.81.02.16.06.24.07.26.02.03.05.06.1.09.04.02.16.08.47.16l.37.1v1.33h-4.8v-1.33l.38-.1c.43-.11.53-.2.53-.2.05-.05.08-.15.09-.22.02-.13.05-.39.05-.9v-7.81c0-.48-.02-.72-.04-.83-.03-.17-.06-.23-.07-.25-.02-.03-.05-.06-.1-.09-.03-.02-.16-.07-.48-.17l-.36-.1v-1.32h4.8v1.33l-.38.09c-.3.08-.41.13-.45.15-.05.03-.09.06-.12.1,0,0-.04.06-.07.24-.02.12-.04.36-.04.84v2.79c.07-.01.14-.03.21-.06.09-.04.25-.12.49-.32.21-.18.56-.54,1.02-1.06.57-.63.96-1.09,1.15-1.36.3-.39.42-.62.47-.75.05-.12.08-.23.08-.33,0-.09-.02-.13-.02-.14-.06-.05-.16-.08-.3-.09l-.45-.04v-1.4h4.93v1.35l-.39.09c-.14.03-.29.09-.43.17-.15.08-.31.21-.48.36-.19.18-.46.47-.83.88l-2.77,3.12,3.06,4.45c.33.48.59.81.77.99.16.16.31.28.44.35.13.07.27.11.42.13l.43.06v1.37ZM204.78,236.52h1.65c-.08-.07-.16-.14-.23-.22-.22-.22-.51-.59-.88-1.13l-3.5-5.09s-.04.04-.06.06c-.25.21-.47.36-.69.45l.05.02c.19.08.37.21.53.38.14.15.33.4.6.81l2.1,3.13c.17.24.29.45.37.63.1.23.15.42.15.6,0,.13-.03.26-.08.37ZM198.34,236.52h1.43c-.05-.06-.09-.11-.13-.18-.1-.17-.16-.37-.2-.62-.03-.21-.05-.54-.05-.95v-7.81c0-.43.02-.77.06-1,.05-.28.12-.49.24-.65.02-.04.05-.07.08-.1h-1.44s.07.09.1.13c.11.17.18.38.22.64.03.22.05.54.05.99v7.81c0,.48-.02.83-.07,1.08-.05.27-.15.5-.3.67ZM204.64,225.2c.1.16.18.38.18.67,0,.23-.05.46-.15.7-.09.24-.25.51-.48.83l.91-1.02c.39-.44.69-.75.89-.94.09-.08.18-.16.27-.23h-1.62Z"/>
            </g>
            <g>
              <path class="cls-26" d="M206.6,240.51v2.73h-.88c-.09-.29-.18-.55-.28-.78-.1-.22-.2-.41-.3-.56-.1-.15-.22-.27-.34-.36-.12-.09-.27-.15-.44-.19-.17-.03-.37-.05-.6-.05h-2.85v4.73h1.93c.27,0,.47-.04.62-.11.15-.08.28-.2.37-.38.1-.18.19-.46.28-.85h.85v3.47h-.85c-.08-.36-.18-.63-.28-.82-.1-.18-.22-.31-.36-.39-.14-.08-.35-.12-.64-.12h-1.93v5.21h2.81c.29,0,.53-.03.72-.08.18-.05.34-.14.47-.26.13-.12.25-.28.35-.48s.19-.4.26-.62c.07-.21.16-.52.28-.93h.89l-.17,3.17h-8.36v-.44c.37-.1.62-.2.75-.32.13-.12.21-.28.25-.5.04-.22.06-.55.06-.99v-7.81c0-.42-.01-.72-.04-.91-.03-.19-.08-.34-.15-.44-.07-.11-.16-.19-.27-.25-.11-.06-.31-.13-.59-.21v-.44h8.44Z"/>
              <path class="cls-26" d="M206.99,253.33h-9.33v-1.33l.38-.1c.43-.11.53-.2.54-.2.05-.05.08-.15.1-.22.02-.13.05-.39.05-.9v-7.81c0-.48-.02-.72-.04-.83-.03-.16-.06-.23-.07-.24-.03-.04-.06-.07-.1-.09-.03-.02-.16-.08-.48-.17l-.36-.1v-1.32h9.44v3.73h-1.75l-.11-.35c-.08-.27-.17-.52-.26-.72-.08-.19-.17-.35-.25-.48-.07-.1-.14-.18-.22-.24-.06-.05-.14-.08-.24-.1-.14-.03-.31-.04-.51-.04h-2.35v3.73h1.43c.25,0,.36-.04.4-.06.06-.03.11-.09.16-.18.05-.1.14-.3.24-.72l.09-.39h1.74v4.47h-1.75l-.09-.39c-.09-.39-.17-.59-.23-.69-.05-.1-.11-.17-.17-.2-.01,0-.11-.06-.4-.06h-1.43v4.21h2.31c.31,0,.49-.03.58-.06.11-.03.19-.08.27-.15.09-.08.17-.2.25-.35.09-.18.17-.36.23-.54.07-.21.16-.52.28-.92l.11-.36h1.79l-.23,4.17ZM204.86,252.33h1.19l.12-2.14c-.07.23-.13.42-.17.56-.08.24-.17.47-.29.69-.13.25-.28.46-.46.62-.11.11-.24.2-.39.27ZM199.35,252.33h1.05v-11.32h-1.06s.07.09.1.13c.11.16.18.37.22.64.03.22.05.54.05.99v7.81c0,.48-.02.83-.07,1.08-.05.27-.15.5-.3.68ZM203.54,246.43c.06.02.12.05.18.08.22.12.41.32.56.59.07.12.13.27.19.44v-2.23c-.06.19-.13.34-.2.47-.15.27-.34.47-.59.59-.05.02-.09.04-.14.06ZM206.08,242.74h.02v-1.73h-1.21c.07.04.14.08.2.12.17.12.32.29.46.48.12.18.23.39.34.65.06.15.12.3.18.48Z"/>
            </g>
            <g>
              <path class="cls-26" d="M199.98,263.29v3.07c0,.43.02.75.05.94.03.2.08.34.15.44.07.1.16.18.27.24.11.06.31.13.59.21v.44h-3.81v-.44c.37-.1.62-.2.75-.32s.21-.28.25-.5c.04-.22.06-.55.06-.99v-7.81c0-.42-.01-.72-.04-.91-.03-.19-.08-.34-.15-.44-.07-.11-.16-.19-.28-.25-.11-.06-.31-.13-.59-.21v-.44h4.47c1.41,0,2.46.26,3.16.77.7.51,1.05,1.31,1.05,2.38,0,.82-.23,1.53-.68,2.1-.45.58-1.14,1.03-2.04,1.35v.07c.37.15.68.37.94.65.26.28.55.71.87,1.3l.81,1.48c.23.43.44.76.6.99s.34.4.51.52c.17.12.41.2.69.25v.44h-2.5c-.23-.32-.45-.66-.65-1.03-.2-.37-.41-.74-.6-1.12l-.79-1.51c-.24-.46-.44-.79-.59-1.01-.15-.22-.29-.37-.42-.46-.13-.09-.27-.15-.42-.18-.15-.03-.37-.05-.66-.05h-.99ZM199.98,257.16v5.36h1.02c.52,0,.95-.04,1.27-.11.32-.08.63-.22.9-.43.28-.21.5-.5.66-.88.17-.38.25-.84.25-1.39s-.1-1.05-.29-1.43c-.2-.38-.49-.67-.89-.87-.4-.2-.93-.3-1.61-.3-.54,0-.98.01-1.32.04Z"/>
              <path class="cls-26" d="M208.12,269.15h-3.26l-.15-.21c-.24-.33-.47-.69-.68-1.08-.21-.37-.41-.75-.61-1.13l-.79-1.51c-.23-.44-.42-.76-.56-.95-.15-.22-.25-.3-.29-.33-.08-.05-.16-.09-.25-.11-.06-.01-.22-.04-.55-.04h-.49v2.57c0,.51.02.75.04.86.03.18.07.24.07.25.01.02.04.05.1.08.04.02.16.08.48.17l.36.1v1.32h-4.81v-1.33l.38-.1c.43-.11.53-.2.53-.2.06-.05.08-.15.1-.22.02-.13.05-.39.05-.91v-7.81c0-.48-.02-.72-.04-.83-.03-.16-.06-.23-.08-.25-.02-.03-.05-.06-.1-.09-.03-.02-.16-.08-.48-.17l-.36-.1v-1.32h4.97c1.53,0,2.66.28,3.46.86.83.61,1.25,1.55,1.25,2.79,0,.94-.27,1.75-.79,2.41-.35.45-.83.83-1.42,1.15.1.09.2.18.29.28.29.31.6.77.95,1.41l.81,1.48c.22.41.41.73.57.94.13.18.27.32.39.41.11.08.28.14.49.17l.42.07v1.36ZM205.38,268.15h1c-.13-.12-.25-.26-.37-.42-.18-.25-.4-.6-.64-1.05l-.81-1.48c-.3-.55-.57-.96-.8-1.2-.21-.23-.47-.4-.77-.52l-.31-.13v-.53c-.09.03-.19.06-.29.08-.11.02-.22.04-.34.06.1.04.19.09.28.15.18.12.36.31.55.58.17.24.37.58.63,1.07l.79,1.51c.2.38.4.75.6,1.11.15.27.31.53.47.77ZM198.42,268.15h1.44s-.06-.08-.09-.12c-.11-.16-.18-.37-.23-.64-.04-.23-.06-.55-.06-1.03v-9.54h-1.07s.07.08.1.13c.11.17.19.38.23.64.03.22.05.55.05.99v7.81c0,.48-.02.84-.07,1.08-.05.27-.15.49-.3.67ZM203.03,256.92s.07.03.1.05c.49.25.87.61,1.11,1.08.23.45.35,1.01.35,1.66,0,.61-.1,1.15-.29,1.59-.15.33-.33.61-.56.84.46-.24.82-.54,1.08-.87.39-.49.58-1.08.58-1.79,0-.92-.28-1.56-.84-1.98-.38-.28-.89-.47-1.53-.57ZM200.48,262.02h.52c.48,0,.87-.03,1.16-.1.26-.06.49-.17.71-.34.21-.16.38-.38.51-.68.14-.31.21-.71.21-1.18s-.08-.89-.24-1.2c-.15-.28-.37-.5-.67-.65-.33-.16-.79-.25-1.38-.25-.31,0-.58,0-.82.01v4.39Z"/>
            </g>
          </g>
          <g>
            <g>
              <path class="cls-26" d="M308.95,341.54c0-.81.09-1.47.28-1.98.19-.51.51-.93.96-1.28.45-.35,1.08-.65,1.88-.89l.3.79c-.53.2-.91.41-1.13.62-.22.21-.38.47-.46.78-.09.31-.13.73-.13,1.26v10.14c0,.52.03.88.08,1.07.05.19.14.34.25.44.12.1.36.2.73.3v.44h-3.81v-.44c.26-.07.46-.13.57-.2.12-.07.21-.15.28-.25s.12-.25.15-.45c.03-.2.05-.51.05-.92v-9.45Z"/>
              <path class="cls-26" d="M312.2,353.75h-4.81v-1.33l.38-.09c.3-.07.41-.13.45-.15.05-.03.09-.06.12-.1,0,0,.04-.06.07-.24.03-.17.04-.45.04-.84v-9.45c0-.88.1-1.59.32-2.15.22-.59.6-1.1,1.12-1.5.5-.39,1.17-.71,2.04-.98l.45-.14.64,1.7-.46.18c-.58.23-.85.41-.97.52-.16.15-.26.33-.33.55-.07.27-.11.65-.11,1.13v10.14c0,.63.04.86.06.95.02.09.06.16.1.19,0,0,.11.08.53.19l.37.1v1.33ZM309.08,352.75h1.44c-.12-.15-.21-.33-.27-.55-.06-.24-.09-.62-.09-1.2v-10.14c0-.58.05-1.04.15-1.4.11-.4.31-.74.6-1.01.03-.02.05-.05.08-.07-.18.1-.34.2-.48.31-.38.29-.64.64-.8,1.06-.17.45-.25,1.05-.25,1.8v9.45c0,.46-.02.78-.06,1-.04.27-.12.48-.24.65-.02.04-.05.07-.08.1Z"/>
            </g>
            <g>
              <path class="cls-26" d="M310.27,321.29c.72,0,1.38.12,1.97.36.59.24,1.1.61,1.53,1.11.42.5.75,1.14.98,1.93.23.78.35,1.72.35,2.81,0,1.34-.2,2.49-.61,3.46-.41.96-.99,1.7-1.76,2.2-.76.5-1.64.75-2.65.75-1.07,0-1.97-.24-2.7-.71-.73-.47-1.28-1.17-1.65-2.08-.37-.92-.55-2.03-.55-3.35,0-1.41.21-2.6.63-3.56.42-.97,1.02-1.69,1.78-2.17.77-.48,1.66-.72,2.69-.72ZM313.24,327.74c0-1.85-.27-3.25-.81-4.21-.54-.96-1.32-1.44-2.36-1.44-.66,0-1.21.21-1.67.63-.46.42-.8,1.03-1.03,1.84-.23.81-.34,1.75-.34,2.83,0,1.31.13,2.4.4,3.26.27.86.63,1.49,1.1,1.88.46.39,1,.59,1.62.59.54,0,1.01-.13,1.39-.38.39-.25.71-.61.97-1.08.26-.47.44-1.03.56-1.69.12-.66.18-1.4.18-2.21Z"/>
              <path class="cls-26" d="M310.08,334.39c-1.17,0-2.17-.27-2.97-.79-.82-.53-1.44-1.31-1.84-2.32-.39-.97-.59-2.16-.59-3.54,0-1.47.23-2.74.67-3.76.46-1.06,1.12-1.86,1.98-2.4.84-.53,1.84-.8,2.95-.8.78,0,1.51.13,2.16.39.67.27,1.25.69,1.72,1.25.47.55.83,1.26,1.08,2.11.24.82.37,1.82.37,2.95,0,1.4-.22,2.63-.65,3.65-.45,1.05-1.1,1.87-1.94,2.42-.84.55-1.82.84-2.92.84ZM308.15,322.26c-.1.05-.21.11-.3.17-.68.42-1.21,1.08-1.59,1.95-.39.9-.59,2.03-.59,3.37,0,1.25.17,2.31.52,3.17.33.82.82,1.44,1.46,1.85.3.19.64.34,1.01.45-.16-.09-.31-.2-.45-.32-.54-.45-.96-1.16-1.25-2.11-.28-.91-.42-2.06-.42-3.41,0-1.12.12-2.12.36-2.96.25-.89.65-1.59,1.17-2.07.03-.03.06-.05.09-.08ZM311.6,321.96c.51.28.93.73,1.26,1.33.59,1.05.87,2.5.87,4.46,0,.84-.06,1.61-.18,2.3-.13.72-.33,1.34-.61,1.85-.23.42-.52.78-.86,1.06.13-.07.25-.14.37-.22.68-.45,1.2-1.1,1.57-1.98.38-.9.57-1.99.57-3.26,0-1.04-.11-1.93-.33-2.67-.21-.71-.51-1.3-.89-1.75-.37-.44-.82-.76-1.33-.97-.15-.06-.3-.11-.45-.15ZM310.07,322.58c-.53,0-.97.16-1.33.5-.39.35-.68.89-.89,1.61-.21.76-.32,1.66-.32,2.69,0,1.25.13,2.3.38,3.12.24.77.55,1.32.94,1.65.71.6,1.77.59,2.41.17.32-.21.59-.51.8-.9.23-.41.4-.93.51-1.54.11-.63.17-1.34.17-2.12,0-1.75-.25-3.09-.75-3.97-.45-.81-1.06-1.19-1.92-1.19Z"/>
            </g>
            <g>
              <path class="cls-26" d="M312.67,312.22h-.27c-.23,0-.44.04-.63.11-.19.07-.4.21-.64.41-.23.2-.59.57-1.07,1.11-.58.64-.97,1.11-1.18,1.4-.27.34-.44.63-.53.87-.07.17-.11.34-.11.51,0,.24.07.42.21.53.14.11.33.18.57.2v.44h-3.93v-.44c.19-.04.38-.12.57-.22.19-.11.38-.25.57-.43.2-.18.48-.49.86-.91l3.03-3.41-3.28-4.77c-.35-.51-.62-.86-.82-1.06-.2-.2-.39-.35-.57-.44-.18-.09-.37-.15-.58-.19v-.44h3.98v.44c-.22.02-.39.06-.49.13-.1.07-.15.17-.15.3,0,.11.03.24.1.39.07.15.18.34.33.55l2.1,3.13c.25.37.43.62.54.74.11.12.24.21.37.27.13.06.31.09.53.09h.48v-3.78c0-.4-.01-.7-.04-.88-.03-.19-.07-.33-.14-.44-.06-.11-.16-.2-.28-.27-.12-.07-.32-.14-.6-.22v-.44h3.8v.44c-.37.1-.62.2-.75.32-.13.12-.21.28-.25.5-.04.22-.06.55-.06.99v7.81c0,.42.01.72.04.91.03.19.08.34.15.44.07.11.16.19.28.25.11.06.31.13.59.21v.44h-3.8v-.44c.26-.07.46-.13.57-.2.12-.07.21-.15.28-.25.07-.1.12-.25.15-.45.03-.2.05-.51.05-.92v-3.31Z"/>
              <path class="cls-26" d="M315.9,318.29h-4.8v-1.33l.38-.1c.3-.08.41-.13.45-.15.05-.03.09-.06.12-.1,0,0,.04-.06.07-.24.02-.12.04-.36.04-.84v-2.79c-.07.01-.14.03-.21.06-.09.04-.25.12-.49.32-.21.18-.56.54-1.02,1.06-.57.63-.95,1.09-1.15,1.36-.3.39-.42.62-.47.75-.05.12-.08.23-.08.33,0,.09.02.13.02.14.06.05.16.08.3.09l.45.04v1.4h-4.93v-1.35l.39-.09c.14-.03.29-.09.43-.17.15-.08.31-.21.48-.36.19-.18.46-.47.83-.88l2.77-3.12-3.06-4.45c-.33-.48-.59-.81-.77-.99-.16-.16-.31-.28-.44-.35-.13-.07-.27-.11-.42-.13l-.43-.06v-1.37h4.98v1.4l-.46.04c-.07,0-.12.01-.16.02,0,.02.02.06.04.09.06.13.16.29.28.48l2.11,3.14c.3.46.44.62.49.68.07.07.14.12.21.15.03.01.12.04.31.04v-3.28c0-.37-.01-.64-.04-.81-.02-.16-.06-.24-.07-.26-.02-.03-.05-.06-.1-.09-.04-.02-.16-.08-.47-.16l-.37-.1v-1.33h4.8v1.33l-.38.1c-.43.11-.53.2-.54.2-.05.05-.08.15-.09.22-.02.13-.05.39-.05.9v7.81c0,.48.02.72.04.83.03.17.06.23.07.25.02.04.06.06.1.09.03.02.16.08.48.17l.36.1v1.32ZM312.79,317.29h1.44s-.07-.09-.1-.13c-.11-.17-.18-.38-.22-.64-.03-.22-.05-.54-.05-.99v-7.81c0-.48.02-.83.07-1.08.05-.27.15-.5.3-.68h-1.43c.05.06.09.11.13.18.1.16.16.37.2.62.03.22.05.54.05.96v7.81c0,.43-.02.77-.06,1-.05.28-.12.49-.24.65-.02.04-.05.07-.08.1ZM306.3,317.29h1.62c-.1-.16-.18-.38-.18-.67,0-.23.05-.46.15-.7.09-.24.25-.51.48-.83l-.91,1.02c-.39.44-.69.75-.89.94-.09.08-.18.16-.27.23ZM306.13,305.97c.08.07.15.14.23.22.22.22.51.59.88,1.13l3.5,5.09s.04-.04.06-.06c.25-.21.47-.36.69-.45l-.05-.02c-.19-.08-.37-.21-.53-.38-.14-.15-.33-.4-.6-.81l-2.1-3.13c-.17-.24-.29-.44-.37-.63-.1-.22-.15-.42-.15-.6,0-.13.03-.26.08-.37h-1.65Z"/>
            </g>
            <g>
              <path class="cls-26" d="M305.96,301.98v-2.73h.88c.09.29.18.55.28.78.1.22.2.41.3.56.1.15.22.27.34.36.12.09.27.15.44.19.17.03.37.05.6.05h2.85v-4.73h-1.93c-.27,0-.47.04-.62.11-.15.08-.28.2-.37.38-.1.18-.19.46-.28.85h-.85v-3.47h.85c.08.36.18.63.28.82.1.18.22.31.36.39.14.08.35.12.64.12h1.93v-5.21h-2.81c-.29,0-.53.03-.72.08-.18.05-.34.14-.47.26-.13.12-.25.28-.35.48s-.19.4-.26.62c-.07.21-.16.52-.28.93h-.89l.17-3.17h8.36v.44c-.37.1-.62.2-.75.32-.13.12-.21.28-.25.5-.04.22-.06.55-.06.99v7.81c0,.42.01.72.04.91.03.19.08.34.15.44.07.11.16.19.27.25.11.06.31.13.59.21v.44h-8.44Z"/>
              <path class="cls-26" d="M314.9,302.48h-9.44v-3.73h1.75l.11.35c.08.28.17.52.26.73.08.19.17.35.25.48.07.1.14.18.22.24.06.05.14.08.24.1.14.03.31.04.51.04h2.35v-3.73h-1.43c-.25,0-.36.04-.4.06-.06.03-.11.09-.16.18-.05.1-.14.3-.23.72l-.09.39h-1.74v-4.47h1.75l.09.39c.09.39.17.59.23.69.05.1.11.17.17.2.01,0,.11.05.39.05h1.43v-4.21h-2.31c-.31,0-.49.03-.58.06-.11.03-.19.08-.27.15-.09.08-.17.2-.25.35-.09.18-.17.36-.23.54-.07.21-.16.52-.28.92l-.11.36h-1.8l.23-4.17h9.33v1.33l-.38.1c-.43.11-.53.2-.54.2-.05.05-.08.15-.1.22-.03.18-.05.48-.05.9v7.81c0,.48.02.72.04.83.03.16.06.23.07.24.03.04.06.07.1.09.04.02.16.08.48.17l.36.1v1.32ZM312.15,301.48h1.06s-.07-.08-.1-.13c-.11-.16-.18-.37-.23-.64-.03-.22-.05-.54-.05-.99v-7.81c0-.48.02-.84.07-1.08.05-.27.15-.5.3-.67h-1.05v11.32ZM306.46,301.48h1.21c-.07-.04-.14-.08-.2-.12-.17-.12-.32-.29-.46-.48-.12-.18-.23-.39-.34-.64-.06-.15-.12-.3-.18-.48h-.02v1.73ZM308.09,294.95v2.23c.06-.19.12-.34.19-.47.15-.27.35-.47.59-.59.05-.02.09-.04.14-.06-.06-.02-.12-.05-.18-.08-.23-.13-.41-.32-.56-.59-.07-.12-.13-.27-.19-.44ZM306.51,290.16l-.12,2.14c.07-.23.13-.42.17-.56.08-.24.17-.47.29-.7.13-.25.28-.45.45-.62.12-.11.25-.2.39-.27h-1.19Z"/>
            </g>
            <g>
              <path class="cls-26" d="M312.57,279.2v-3.07c0-.43-.02-.75-.05-.94-.03-.2-.08-.34-.15-.44-.07-.1-.16-.18-.27-.24-.11-.06-.31-.13-.59-.21v-.44h3.81v.44c-.37.1-.62.2-.75.32-.13.12-.21.28-.25.5-.04.22-.06.55-.06.99v7.81c0,.42.01.72.04.91.03.19.08.34.15.44.07.11.16.19.28.25.11.06.31.13.59.21v.44h-4.47c-1.41,0-2.46-.26-3.16-.77-.7-.51-1.05-1.31-1.05-2.38,0-.82.23-1.53.68-2.1.45-.58,1.14-1.03,2.04-1.35v-.07c-.37-.15-.68-.37-.94-.65-.26-.28-.55-.71-.87-1.3l-.81-1.48c-.23-.43-.44-.76-.6-.99-.17-.23-.34-.4-.51-.52-.17-.12-.41-.2-.69-.25v-.44h2.5c.23.32.45.66.65,1.03.2.37.41.74.6,1.12l.79,1.51c.24.46.44.79.59,1.01.15.22.29.37.42.46.13.09.27.15.42.18.15.03.37.05.66.05h.99ZM312.57,285.34v-5.36h-1.02c-.52,0-.95.04-1.27.11-.32.08-.63.22-.9.43-.28.21-.5.5-.66.88s-.25.84-.25,1.39.1,1.05.29,1.43c.2.38.49.67.89.87s.93.3,1.61.3c.54,0,.98-.01,1.32-.04Z"/>
              <path class="cls-26" d="M315.83,286.67h-4.97c-1.53,0-2.66-.28-3.46-.86-.83-.61-1.25-1.55-1.25-2.79,0-.94.27-1.75.79-2.41.36-.45.83-.83,1.42-1.15-.1-.09-.2-.18-.29-.28-.29-.31-.6-.77-.95-1.41l-.81-1.48c-.22-.41-.41-.73-.57-.94-.13-.18-.27-.32-.4-.41-.11-.08-.28-.14-.49-.17l-.42-.07v-1.37h3.25l.15.21c.24.33.46.69.68,1.08.21.37.41.75.61,1.13l.79,1.51c.23.44.42.76.56.96.15.22.25.3.3.33.08.05.16.09.24.11.06.01.22.04.55.04h.49v-2.57c0-.51-.02-.75-.04-.86-.03-.18-.07-.25-.07-.25-.02-.03-.05-.06-.1-.08-.03-.02-.15-.08-.48-.17l-.36-.1v-1.32h4.81v1.33l-.38.1c-.43.11-.53.2-.54.2-.05.05-.08.15-.09.22-.02.13-.05.39-.05.91v7.81c0,.48.02.72.04.83.03.16.06.23.07.24.03.04.06.07.1.09.04.02.16.08.48.17l.36.1v1.32ZM313.07,285.67h1.07s-.07-.09-.1-.14c-.11-.16-.18-.37-.22-.63-.03-.22-.05-.55-.05-.99v-7.81c0-.48.02-.84.07-1.08.05-.27.15-.49.3-.67h-1.44s.06.08.09.12c.11.16.18.37.23.64.04.22.06.55.06,1.03v9.54ZM308.81,280.35c-.46.24-.82.54-1.09.87-.39.49-.57,1.08-.57,1.79,0,.92.28,1.56.84,1.98.38.28.89.47,1.53.57-.03-.02-.07-.03-.1-.05-.49-.25-.86-.61-1.11-1.08-.23-.45-.35-1.01-.35-1.66,0-.61.1-1.15.29-1.59.15-.33.33-.61.56-.84ZM311.55,280.48c-.48,0-.87.03-1.16.1-.26.06-.49.17-.71.34-.21.16-.38.38-.51.68-.14.31-.21.71-.21,1.18s.08.89.24,1.2c.15.28.37.5.67.65.33.16.79.25,1.38.25.31,0,.58,0,.82-.01v-4.39h-.52ZM306.18,274.35c.13.12.25.26.37.42.18.25.4.6.64,1.05l.81,1.48c.3.55.57.96.8,1.2.21.23.47.4.77.53l.31.13v.53c.09-.03.19-.06.29-.08.1-.02.22-.05.34-.06-.1-.04-.19-.09-.28-.15-.18-.12-.36-.31-.55-.58-.17-.24-.37-.59-.63-1.07l-.79-1.51c-.2-.38-.4-.75-.6-1.11-.15-.27-.31-.53-.47-.77h-1Z"/>
            </g>
          </g>
        </g>
        <g>
          <g>
            <g class="cls-25">
              <g>
                <rect class="cls-1" x="233.57" y="270.06" width="74.6" height="74.6"/>
                <rect class="cls-11" x="233.57" y="270.06" width="74.6" height="74.6"/>
              </g>
              <g>
                <rect class="cls-1" x="158.97" y="270.06" width="74.6" height="74.6"/>
                <rect class="cls-11" x="158.97" y="270.06" width="74.6" height="74.6"/>
              </g>
              <g>
                <rect class="cls-1" x="233.57" y="270.06" width="74.6" height="74.6"/>
                <rect class="cls-11" x="233.57" y="270.06" width="74.6" height="74.6"/>
              </g>
            </g>
            <path class="cls-5" d="M240.47,320.53c-.17,0-.35-.02-.52-.06-.59-.14-1.08-.49-1.4-1.01l-5.73-9.24c-.32-.51-.42-1.12-.28-1.7.14-.58.49-1.08,1.01-1.4l54.31-33.66c1.05-.65,2.44-.33,3.1.73l5.73,9.24c.32.51.42,1.11.28,1.7-.14.58-.49,1.08-1,1.4h0s-54.31,33.66-54.31,33.66c-.36.22-.77.34-1.18.34ZM289.04,275.12s-.08,0-.13.04l-54.31,33.67c-.07.04-.1.11-.11.16-.01.05-.01.12.03.19l5.73,9.24c.05.07.11.1.16.11.05.01.12.01.19-.03l54.31-33.66c.12-.07.15-.23.08-.35l-5.73-9.24c-.05-.07-.11-.1-.16-.11-.02,0-.04,0-.06,0ZM240.54,317.94l-5.47-8.82,53.88-33.4,5.47,8.82-53.88,33.4ZM237.83,309.77l3.36,5.42,50.48-31.29-3.36-5.42-50.48,31.29Z"/>
          </g>
          <g>
            <g class="cls-13">
              <g>
                <rect class="cls-1" x="233.57" y="195.46" width="74.6" height="74.6"/>
                <rect class="cls-11" x="233.57" y="195.46" width="74.6" height="74.6"/>
              </g>
              <g>
                <rect class="cls-1" x="233.57" y="270.06" width="74.6" height="74.6"/>
                <rect class="cls-11" x="233.57" y="270.06" width="74.6" height="74.6"/>
              </g>
            </g>
            <path class="cls-3" d="M268.31,290.47c-.42,0-.82-.12-1.19-.34-.51-.32-.87-.82-1-1.4-1.61-6.93-1.75-13.34-.41-19.05,1.12-4.76,3.26-9.06,6.36-12.76,5.35-6.38,12.01-9.24,14.62-10.18,1.17-.42,2.46.19,2.88,1.36.2.57.17,1.18-.09,1.72-.26.54-.71.95-1.28,1.16-1.77.63-7.91,3.13-12.68,8.83-2.65,3.16-4.48,6.83-5.43,10.9-1.18,5.03-1.04,10.75.41,17,.22.94-.18,1.91-1,2.42h0c-.21.13-.44.22-.67.28-.17.04-.34.06-.51.06ZM268.37,288.47l.6.82-.53-.85c.08-.05.14-.15.11-.27-1.52-6.56-1.66-12.58-.41-17.91,1.03-4.38,2.99-8.32,5.84-11.73,5.1-6.08,11.66-8.75,13.54-9.43.08-.03.12-.09.14-.13s.04-.11,0-.19c-.05-.13-.19-.2-.32-.15-2.46.88-8.72,3.57-13.76,9.58-2.9,3.47-4.91,7.48-5.95,11.94-1.27,5.41-1.13,11.51.41,18.14.02.08.07.13.11.16s.1.05.19.03Z"/>
          </g>
          <g>
            <g class="cls-16">
              <g>
                <rect class="cls-1" x="233.57" y="195.46" width="74.6" height="74.6"/>
                <rect class="cls-11" x="233.57" y="195.46" width="74.6" height="74.6"/>
              </g>
              <g>
                <rect class="cls-1" x="233.57" y="270.06" width="74.6" height="74.6"/>
                <rect class="cls-11" x="233.57" y="270.06" width="74.6" height="74.6"/>
              </g>
            </g>
            <path class="cls-4" d="M289.04,277.62c-.61,0-1.22-.25-1.66-.72-.14-.15-3.38-3.7-5.21-9.03-1.73-5.05-2.46-12.64,3.82-20.18.39-.46.93-.75,1.53-.8.6-.05,1.18.13,1.64.51.95.79,1.08,2.22.29,3.17-3.95,4.74-4.98,10.04-3.04,15.76,1.49,4.41,4.26,7.48,4.29,7.51.84.91.78,2.34-.14,3.18-.1.09-.22.18-.33.25h0c-.37.23-.78.34-1.18.34ZM287.73,248.88s-.02,0-.02,0c-.05,0-.12.02-.17.09-5.69,6.82-5.02,13.69-3.46,18.25,1.69,4.94,4.66,8.18,4.78,8.32.09.1.22.1.31.05l.04-.03c.11-.1.11-.26.02-.36-.03-.03-3.06-3.35-4.71-8.22-2.17-6.43-1.03-12.38,3.4-17.69.09-.11.07-.27-.03-.35-.06-.05-.11-.06-.16-.06Z"/>
          </g>
          <g>
            <g class="cls-14">
              <g>
                <rect class="cls-1" x="233.57" y="195.46" width="74.6" height="74.6"/>
                <rect class="cls-11" x="233.57" y="195.46" width="74.6" height="74.6"/>
              </g>
              <g>
                <rect class="cls-1" x="233.57" y="195.46" width="74.6" height="74.6"/>
                <rect class="cls-11" x="233.57" y="195.46" width="74.6" height="74.6"/>
              </g>
            </g>
            <path class="cls-10" d="M290.01,252.23c-1.92,0-3.8-.96-4.88-2.71-1.67-2.69-.83-6.22,1.85-7.89,1.3-.81,2.84-1.06,4.33-.71,1.49.35,2.76,1.26,3.56,2.56.81,1.3,1.06,2.84.71,4.33-.35,1.49-1.26,2.76-2.56,3.56-.94.58-1.98.86-3.01.86ZM289.99,242.77c-.69,0-1.36.19-1.96.56-.84.52-1.44,1.35-1.66,2.32-.23.97-.07,1.97.46,2.82,1.08,1.75,3.38,2.29,5.14,1.2.84-.52,1.44-1.35,1.66-2.32.23-.97.07-1.97-.46-2.82-.52-.85-1.35-1.44-2.32-1.66-.29-.07-.58-.1-.86-.1ZM290.01,249.73c-1.08,0-2.14-.54-2.75-1.53-.45-.73-.6-1.6-.4-2.44.2-.84.71-1.55,1.44-2.01h0c1.51-.94,3.51-.47,4.44,1.04.94,1.51.47,3.51-1.04,4.44-.53.33-1.12.48-1.7.48ZM289.35,245.45c-.28.17-.47.44-.55.76s-.02.65.15.93c.36.58,1.12.75,1.69.4.58-.36.75-1.12.4-1.69-.36-.58-1.12-.75-1.69-.4h0Z"/>
          </g>
          <g>
            <g class="cls-15">
              <g>
                <rect class="cls-1" x="233.57" y="195.46" width="74.6" height="74.6"/>
                <rect class="cls-11" x="233.57" y="195.46" width="74.6" height="74.6"/>
              </g>
              <g>
                <rect class="cls-1" x="158.97" y="195.46" width="74.6" height="74.6"/>
                <rect class="cls-11" x="158.97" y="195.46" width="74.6" height="74.6"/>
              </g>
              <g>
                <rect class="cls-1" x="233.57" y="195.46" width="74.6" height="74.6"/>
                <rect class="cls-11" x="233.57" y="195.46" width="74.6" height="74.6"/>
              </g>
              <g>
                <rect class="cls-1" x="158.97" y="195.46" width="74.6" height="74.6"/>
                <rect class="cls-11" x="158.97" y="195.46" width="74.6" height="74.6"/>
              </g>
            </g>
            <path class="cls-9" d="M232.2,253.4c-.44,0-.88-.05-1.32-.15-1.49-.35-2.76-1.26-3.56-2.56-1.67-2.69-.83-6.22,1.85-7.89,1.3-.8,2.84-1.06,4.33-.71,1.49.35,2.76,1.26,3.56,2.56,1.67,2.69.83,6.22-1.85,7.89h0c-.92.57-1.95.86-3,.86ZM232.18,243.94c-.67,0-1.35.18-1.96.56-1.75,1.08-2.29,3.39-1.21,5.14,1.08,1.75,3.39,2.29,5.14,1.21h0c1.75-1.08,2.29-3.39,1.21-5.14-.71-1.14-1.93-1.76-3.18-1.76ZM232.19,250.9c-.25,0-.5-.03-.75-.09-.84-.2-1.55-.71-2.01-1.44-.45-.73-.59-1.6-.4-2.44.2-.84.71-1.55,1.44-2.01h0c.73-.45,1.6-.6,2.44-.4s1.55.71,2.01,1.44c.94,1.51.47,3.51-1.04,4.44-.52.32-1.1.49-1.69.49ZM232.18,246.44c-.23,0-.45.06-.64.18h0c-.28.17-.47.44-.55.76-.08.32-.02.65.15.93.17.28.44.47.76.55.32.08.65.02.93-.15.58-.36.75-1.12.4-1.69-.17-.28-.44-.47-.76-.55-.09-.02-.19-.03-.28-.03Z"/>
          </g>
          <g>
            <g>
              <g class="cls-21">
                <g>
                  <rect class="cls-1" x="233.57" y="270.06" width="74.6" height="74.6"/>
                  <rect class="cls-11" x="233.57" y="270.06" width="74.6" height="74.6"/>
                </g>
                <g>
                  <rect class="cls-1" x="158.97" y="270.06" width="74.6" height="74.6"/>
                  <rect class="cls-11" x="158.97" y="270.06" width="74.6" height="74.6"/>
                </g>
              </g>
              <path class="cls-8" d="M255.46,298.44c-.51,0-1.02-.17-1.43-.51-4.95-4.08-10.01-6.75-15.04-7.93-4.07-.96-8.17-.95-12.18.02-7.22,1.74-12.2,6.13-13.55,7.43-.9.86-2.32.83-3.18-.06-.86-.89-.83-2.32.06-3.18,2-1.93,7.52-6.62,15.62-8.57,4.7-1.13,9.5-1.14,14.26-.02,5.71,1.34,11.38,4.32,16.87,8.84.46.38.75.92.81,1.52.06.6-.12,1.18-.5,1.65-.15.19-.34.35-.55.48h0c-.37.23-.78.34-1.19.34ZM232.91,287.28c2.18,0,4.36.26,6.54.77,5.33,1.25,10.66,4.06,15.86,8.34.1.08.22.07.29.02.02-.01.04-.03.06-.05.09-.11.07-.27-.03-.36-5.25-4.33-10.66-7.17-16.06-8.44-4.45-1.05-8.94-1.04-13.34.02-7.62,1.84-12.82,6.25-14.7,8.06-.1.1-.1.25,0,.35.1.1.26.1.35,0,1.45-1.39,6.76-6.08,14.47-7.94,2.17-.52,4.37-.79,6.57-.79Z"/>
            </g>
            <g>
              <g class="cls-18">
                <g>
                  <rect class="cls-1" x="233.57" y="270.06" width="74.6" height="74.6"/>
                  <rect class="cls-11" x="233.57" y="270.06" width="74.6" height="74.6"/>
                </g>
                <g>
                  <rect class="cls-1" x="158.97" y="270.06" width="74.6" height="74.6"/>
                  <rect class="cls-11" x="158.97" y="270.06" width="74.6" height="74.6"/>
                </g>
              </g>
              <path class="cls-7" d="M234.74,311.29c-.91,0-1.76-.55-2.11-1.45-.01-.04-1.53-3.88-4.82-7.18-4.26-4.28-9.47-5.72-15.47-4.29-1.2.28-2.42-.46-2.71-1.67-.14-.58-.04-1.19.27-1.7.31-.51.81-.87,1.4-1.01,9.55-2.27,16.02,1.77,19.77,5.56,3.95,3.99,5.7,8.49,5.77,8.68.38,1.01,0,2.15-.91,2.72-.12.07-.25.14-.38.19-.26.1-.53.15-.8.15ZM216.73,295.83c4.71,0,8.9,1.81,12.5,5.42,3.61,3.62,5.25,7.83,5.27,7.87.05.13.2.2.33.15l.04-.02c.09-.05.15-.17.1-.3-.07-.17-1.67-4.3-5.32-7.99-3.39-3.43-9.24-7.08-17.88-5.02-.08.02-.13.07-.16.11-.02.04-.05.11-.03.19.03.14.17.22.3.19,1.67-.4,3.29-.6,4.85-.6Z"/>
            </g>
            <g>
              <g class="cls-17">
                <g>
                  <rect class="cls-1" x="158.97" y="270.06" width="74.6" height="74.6"/>
                  <rect class="cls-11" x="158.97" y="270.06" width="74.6" height="74.6"/>
                </g>
                <g>
                  <rect class="cls-1" x="158.97" y="270.06" width="74.6" height="74.6"/>
                  <rect class="cls-11" x="158.97" y="270.06" width="74.6" height="74.6"/>
                </g>
              </g>
              <path class="cls-6" d="M208.45,302.78c-1.92,0-3.8-.96-4.88-2.71-1.67-2.69-.83-6.22,1.85-7.89,1.3-.81,2.84-1.06,4.33-.71,1.49.35,2.76,1.26,3.56,2.56.81,1.3,1.06,2.84.71,4.33-.35,1.49-1.26,2.76-2.56,3.56-.94.58-1.98.86-3.01.86ZM208.44,293.32c-.69,0-1.36.19-1.96.56-.84.52-1.44,1.35-1.66,2.32-.23.97-.07,1.97.46,2.82.52.85,1.35,1.44,2.32,1.66.97.23,1.97.06,2.82-.46.84-.52,1.44-1.35,1.66-2.32.23-.97.07-1.97-.46-2.82-.52-.85-1.35-1.44-2.32-1.66-.29-.07-.58-.1-.86-.1ZM208.45,300.28c-.25,0-.5-.03-.75-.09-.84-.2-1.55-.71-2.01-1.44s-.6-1.6-.4-2.44c.2-.84.71-1.55,1.44-2.01.73-.45,1.6-.6,2.44-.4.84.2,1.55.71,2.01,1.44.94,1.51.47,3.51-1.04,4.44-.52.32-1.1.49-1.69.49ZM208.44,295.82c-.23,0-.45.06-.64.18h0c-.28.17-.47.44-.55.76-.08.32-.02.65.15.93.17.28.44.47.76.55.32.08.65.02.93-.15.58-.36.75-1.12.4-1.69-.17-.28-.44-.47-.76-.55-.09-.02-.19-.03-.28-.03Z"/>
            </g>
          </g>
          <g>
            <g class="cls-20">
              <g>
                <rect class="cls-1" x="233.57" y="195.46" width="74.6" height="74.6"/>
                <rect class="cls-11" x="233.57" y="195.46" width="74.6" height="74.6"/>
              </g>
              <g>
                <rect class="cls-1" x="233.57" y="270.06" width="74.6" height="74.6"/>
                <rect class="cls-11" x="233.57" y="270.06" width="74.6" height="74.6"/>
              </g>
              <g>
                <rect class="cls-1" x="158.97" y="195.46" width="74.6" height="74.6"/>
                <rect class="cls-11" x="158.97" y="195.46" width="74.6" height="74.6"/>
              </g>
              <g>
                <rect class="cls-1" x="158.97" y="270.06" width="74.6" height="74.6"/>
                <rect class="cls-11" x="158.97" y="270.06" width="74.6" height="74.6"/>
              </g>
            </g>
            <path class="cls-23" d="M267.39,275.19c-.24,0-.47-.04-.7-.11-.57-.19-1.04-.59-1.31-1.12-2.81-5.55-8.19-10.6-15.98-15.03-6.28-3.57-12.36-5.71-15.42-6.67-.57-.18-1.04-.57-1.32-1.1-.28-.53-.33-1.14-.15-1.72.18-.57.57-1.04,1.1-1.32.53-.28,1.14-.33,1.72-.15,6.11,1.91,26.64,9.29,34.07,23.95.52,1.03.16,2.32-.82,2.93h0c-.06.04-.11.07-.17.1-.32.16-.66.24-1.01.24ZM267.5,273.16l.55.84-.53-.85c.11-.07.15-.21.09-.33-7.08-13.96-26.96-21.1-32.88-22.95-.08-.03-.15,0-.19.02-.04.02-.1.07-.12.15-.04.13.03.27.17.31,3.14.98,9.37,3.18,15.81,6.84,8.14,4.62,13.78,9.96,16.77,15.86.04.08.1.11.15.12.04.02.11.03.19-.01Z"/>
          </g>
          <g>
            <g class="cls-19">
              <g>
                <rect class="cls-1" x="233.57" y="195.46" width="74.6" height="74.6"/>
                <rect class="cls-11" x="233.57" y="195.46" width="74.6" height="74.6"/>
              </g>
              <g>
                <rect class="cls-1" x="233.57" y="270.06" width="74.6" height="74.6"/>
                <rect class="cls-11" x="233.57" y="270.06" width="74.6" height="74.6"/>
              </g>
              <g>
                <rect class="cls-1" x="158.97" y="195.46" width="74.6" height="74.6"/>
                <rect class="cls-11" x="158.97" y="195.46" width="74.6" height="74.6"/>
              </g>
              <g>
                <rect class="cls-1" x="158.97" y="270.06" width="74.6" height="74.6"/>
                <rect class="cls-11" x="158.97" y="270.06" width="74.6" height="74.6"/>
              </g>
            </g>
            <path class="cls-24" d="M243.94,291.45c-.33,0-.66-.07-.97-.22-.17-.08-4.11-2.02-7.5-8.16-1.91-3.46-3.3-7.6-4.13-12.32-1.03-5.79-1.23-12.47-.59-19.88.05-.6.33-1.14.79-1.53.46-.39,1.04-.57,1.64-.52.6.05,1.14.33,1.53.79s.57,1.04.52,1.64c-.6,6.92-.43,13.15.5,18.5.73,4.21,1.93,7.89,3.56,10.92,2.65,4.92,5.61,6.49,5.64,6.5,1.1.52,1.57,1.87,1.03,2.99-.19.39-.48.71-.84.94h0c-.36.23-.78.34-1.19.34ZM232.98,250.8c-.07,0-.13.03-.16.06-.04.03-.08.08-.09.17-.62,7.23-.43,13.74.56,19.36.8,4.5,2.12,8.44,3.92,11.71,3.08,5.59,6.57,7.31,6.61,7.32.12.06.22,0,.25-.01h0s.07-.06.09-.1c.06-.13.01-.27-.11-.33-.16-.08-3.54-1.81-6.52-7.35-1.74-3.22-3.01-7.1-3.77-11.53-.96-5.52-1.13-11.92-.52-19.02,0-.09-.03-.15-.06-.18-.03-.04-.08-.08-.17-.09,0,0-.02,0-.02,0Z"/>
          </g>
        </g>
        <path class="cls-26" d="M316.16,167.89h-120.32c-6.91,0-12.53,5.62-12.53,12.53v180.49c0,6.91,5.62,12.53,12.53,12.53h120.32c6.91,0,12.53-5.62,12.53-12.53v-180.49c0-6.91-5.62-12.53-12.53-12.53ZM323.68,360.9c0,4.14-3.38,7.52-7.52,7.52h-120.32c-4.14,0-7.52-3.38-7.52-7.52v-180.49c0-4.14,3.38-7.52,7.52-7.52h120.32c4.14,0,7.52,3.38,7.52,7.52v180.49Z"/>
      </g>
    </g>
  </g>
</svg>