<?xml version="1.0" encoding="UTF-8"?>
<svg xmlns="http://www.w3.org/2000/svg" xmlns:xlink="http://www.w3.org/1999/xlink" viewBox="0 0 512 512">
  <defs>
    <style>
      .cls-1, .cls-2 {
        fill: none;
      }

      .cls-3 {
        fill: url(#linear-gradient-2);
        mix-blend-mode: color-burn;
        opacity: .59;
      }

      .cls-4 {
        fill: #92bdc8;
      }

      .cls-5 {
        isolation: isolate;
      }

      .cls-6 {
        fill: url(#linear-gradient);
        opacity: .21;
      }

      .cls-2 {
        stroke: url(#New_Pattern_Swatch_1);
        stroke-miterlimit: 10;
        stroke-width: 8px;
      }
    </style>
    <linearGradient id="linear-gradient" x1="20.33" y1="489.95" x2="489" y2="21.28" gradientUnits="userSpaceOnUse">
      <stop offset=".47" stop-color="#e4f1fb"/>
      <stop offset=".51" stop-color="#dae8f3"/>
      <stop offset=".63" stop-color="#bdcbd9"/>
      <stop offset=".74" stop-color="#abbaca"/>
      <stop offset=".82" stop-color="#a5b4c5"/>
    </linearGradient>
    <linearGradient id="linear-gradient-2" x1="96.68" y1="-23.12" x2="418.53" y2="534.35" gradientUnits="userSpaceOnUse">
      <stop offset="0" stop-color="#fff"/>
      <stop offset="1" stop-color="#d5e9f8"/>
    </linearGradient>
    <pattern id="New_Pattern_Swatch_1" data-name="New Pattern Swatch 1" x="0" y="0" width="74.6" height="74.6" patternTransform="translate(-2745.17 -164.94)" patternUnits="userSpaceOnUse" viewBox="0 0 74.6 74.6">
      <g>
        <rect class="cls-1" width="74.6" height="74.6"/>
        <rect class="cls-4" x="0" width="74.6" height="74.6"/>
      </g>
    </pattern>
  </defs>
  <g class="cls-5">
    <g id="Layer_3" data-name="Layer 3">
      <g>
        <rect class="cls-6" x="5.82" y="8.05" width="497.69" height="495.12" rx="47.21" ry="47.21"/>
        <path class="cls-3" d="M51.31,9.63h412.59c23.52,0,42.61,19.09,42.61,42.61v406.74c0,23.52-19.09,42.61-42.61,42.61H51.31c-23.52,0-42.61-19.09-42.61-42.61V52.25c0-23.52,19.09-42.61,42.61-42.61Z"/>
      </g>
    </g>
    <g id="Layer_2" data-name="Layer 2">
      <g>
        <path class="cls-2" d="M287,219.08l-146.98,9.64h0c-9.08,17-.8,34.2,18.3,37.99l1.42.28-.02.04c-10.06,17.27-1.96,35.25,17.65,39.14h.04s-.02.05-.02.05c-10.06,17.27-1.96,35.25,17.65,39.14h.04s-.73,1.26-.73,1.26c-9.8,16.82-2.39,34.42,16.36,38.86h0l105.39-101.86"/>
        <line class="cls-2" x1="249.78" y1="316.05" x2="228.37" y2="331.96"/>
        <line class="cls-2" x1="297.38" y1="276.54" x2="276.24" y2="289.95"/>
        <line class="cls-2" x1="228.76" y1="269.43" x2="204.08" y2="278.1"/>
        <line class="cls-2" x1="288.64" y1="257.17" x2="262.83" y2="268.81"/>
        <line class="cls-2" x1="218.43" y1="246.78" x2="192.43" y2="252.27"/>
        <line class="cls-2" x1="279.91" y1="237.81" x2="255.87" y2="244.77"/>
        <line class="cls-2" x1="239.47" y1="293.43" x2="216.72" y2="306.13"/>
        <path class="cls-2" d="M372.55,219.34c-8.04-17.82-29-25.76-46.82-17.72l-38.73,17.46,29.1,64.54,38.73-17.46c17.82-8.04,25.75-29,17.72-46.82Z"/>
        <path class="cls-2" d="M357.07,229.53c-4.55-10.08-17.21-14.87-27.29-10.33"/>
      </g>
    </g>
  </g>
</svg>