<?xml version="1.0" encoding="UTF-8"?>
<svg xmlns="http://www.w3.org/2000/svg" xmlns:xlink="http://www.w3.org/1999/xlink" viewBox="0 0 512 512">
  <defs>
    <style>
      .cls-1 {
        fill: none;
      }

      .cls-2 {
        fill: url(#linear-gradient-2);
        mix-blend-mode: color-burn;
        opacity: .59;
      }

      .cls-3 {
        fill: #92bdc8;
      }

      .cls-4 {
        isolation: isolate;
      }

      .cls-5 {
        fill: url(#linear-gradient);
        opacity: .21;
      }

      .cls-6 {
        fill: url(#New_Pattern_Swatch_1);
      }
    </style>
    <linearGradient id="linear-gradient" x1="20.33" y1="489.95" x2="489" y2="21.28" gradientUnits="userSpaceOnUse">
      <stop offset=".47" stop-color="#e4f1fb"/>
      <stop offset=".51" stop-color="#dae8f3"/>
      <stop offset=".63" stop-color="#bdcbd9"/>
      <stop offset=".74" stop-color="#abbaca"/>
      <stop offset=".82" stop-color="#a5b4c5"/>
    </linearGradient>
    <linearGradient id="linear-gradient-2" x1="96.68" y1="-23.12" x2="418.53" y2="534.35" gradientUnits="userSpaceOnUse">
      <stop offset="0" stop-color="#fff"/>
      <stop offset="1" stop-color="#d5e9f8"/>
    </linearGradient>
    <pattern id="New_Pattern_Swatch_1" data-name="New Pattern Swatch 1" x="0" y="0" width="74.6" height="74.6" patternTransform="translate(-2745.17 -1066.83)" patternUnits="userSpaceOnUse" viewBox="0 0 74.6 74.6">
      <g>
        <rect class="cls-1" width="74.6" height="74.6"/>
        <rect class="cls-3" x="0" width="74.6" height="74.6"/>
      </g>
    </pattern>
  </defs>
  <g class="cls-4">
    <g id="Layer_3" data-name="Layer 3">
      <g>
        <rect class="cls-5" x="5.82" y="8.05" width="497.69" height="495.12" rx="47.21" ry="47.21"/>
        <path class="cls-2" d="M51.31,9.63h412.59c23.52,0,42.61,19.09,42.61,42.61v406.74c0,23.52-19.09,42.61-42.61,42.61H51.31c-23.52,0-42.61-19.09-42.61-42.61V52.25c0-23.52,19.09-42.61,42.61-42.61Z"/>
      </g>
    </g>
    <g id="Layer_2" data-name="Layer 2">
      <path class="cls-6" d="M335.48,382.02l-.99.05h-40.38l-12.26.05c-32.7,0-65.42.05-98.13.18-6.03.02-9.44-2.97-10.23-8.98-.45-3.38.44-6.55,2.65-9.51,1.15-1.52,3.32-2.49,4.79-3.51.53-.37.84-.99.81-1.64-.17-3.25-.29-7.74-.36-13.46-.06-5.1.5-8.86,1.67-11.27,2.74-5.62,8.96-9.34,15.39-9.78.51-.03.85-.56.67-1.04-.31-.86-.49-1.79-.53-2.78-.15-3.67-.18-7.53-.11-11.57,0-.21.04-.41.09-.6l.99-3.51c.07-.25.29-.44.56-.46.58-.04,1.05-.17,1.42-.39.34-.2.55-.55.58-.94.47-6.77.9-11.17,1.31-13.19,1.85-9.13,4.62-16.92,8.31-23.35,5.03-8.77,11.5-16.89,19.41-24.34,7.97-7.52,12.76-12.56,17.87-19.27.2-.26,0-.63-.34-.59l-10.37,1.19c-.21.02-.41.02-.61,0-3.56-.48-8.2-.62-13.9-.43-7.23.24-13.88,1.81-19.95,4.71-1.73.82-5.59,2.78-11.59,5.88-.93.48-2.97.9-6.13,1.26-6.04.68-10.55-1.92-14.32-6.92-5.4-7.17-7.79-15.37-7.2-24.59.14-2.18.79-4.18,1.95-5.97.76-1.16,2.3-2.56,4.64-4.21,10.19-7.19,16.19-11.53,17.98-13.02,8.19-6.76,13.78-11.73,16.81-14.89,2.49-2.61,5.07-6.04,7.73-10.28.72-1.16,1.74-2.09,2.94-2.73l4.2-2.21s.11-.05.16-.06l4.53-1.1c.38-.09.58-.52.39-.87-2.62-4.88-5.64-10.26-9.07-16.16-2.79-4.82-1.93-8.67,2.56-11.54.39-.25.82-.44,1.27-.56,3-.83,6.61-1.19,10.83-1.08,5.18.13,10.63.59,16.37,1.38,6.2.86,11.57,2,16.1,3.45,17.92,5.7,35.07,15.53,47.08,30.16,10.73,13.07,17.36,28.46,20.68,45.11.75,3.77,1.4,10.41,1.92,19.92.31,5.58-.24,13.99-1.65,25.27-1.03,8.22-3.26,17.89-6.7,29.03-2.9,9.43-6.39,19.39-10.46,29.87-.18.47.14.97.64,1l4.25.24c.47.02.86.34.99.79l1.12,4.05c.07.24.1.48.1.73l-.13,15.72c0,.31.24.57.55.59,6.03.38,10.32,3.44,12.89,9.19,1.08,2.42,1.62,5.51,1.63,9.27,0,2.99-.03,7.7-.11,14.11,0,.67.4,1.28,1.03,1.52,3.32,1.28,5.68,3.64,6.56,7.43,1.62,7.02-.48,14.42-8.86,14.68M227.05,130.22c.34.31.64.68.91,1.12.65,1.05,2.87,5.16,6.67,12.33,1.45,2.72,3,4.88,4.67,6.48.26.25.39.6.35.95-.36,3.67-2.36,5.68-6.01,6.04-4.54.46-8.44.65-10.85,3.4-4.33,4.92-7.83,10.98-12.99,15.64-4.88,4.4-7.86,6.99-8.96,7.78-4.13,2.98-11.16,7.84-21.09,14.57-2.13,1.45-3.83,3.17-5.09,5.19-.18.28-.27.61-.28.94-.08,6.21,1.59,11.85,5,16.9,1.15,1.69,2.18,2.68,3.13,3.01,5.71,1.92,11.75-3.08,16.56-5.42,8.64-4.21,17.87-6.23,27.7-6.07,6.84.11,11.96.25,15.36.4.53.03,1.06-.03,1.58-.18l8.47-2.34c.4-.11.75-.37.97-.73,1.26-2.07,1.94-3.86,2.05-5.37.36-4.78-1.06-10.92,5.31-12.47.3-.08.62-.07.91.03,2.62.86,3.89,2.95,3.81,6.27-.23,9.54-.75,16.42-4.93,24.03-3.18,5.79-6.97,10.9-11.37,15.31-3.59,3.6-8.52,8.48-14.79,14.62-10.5,10.29-17.37,22.28-20.62,35.96-.93,3.92-1.47,8.8-1.62,14.62,0,.4.31.73.71.73h91.45c.42,0,.77-.34.78-.76.02-.98.33-2.24.94-3.8,2.58-6.71,5.24-13.95,7.95-21.72,5.81-16.64,9.19-34.01,10.12-52.11.41-7.91-.2-16.38-1.83-25.42-3.87-21.5-14.27-38.94-31.21-52.31-8.85-6.98-18.34-11.86-28.47-14.64-11.28-3.08-22.81-4.66-34.59-4.73-.93,0-1.37,1.14-.69,1.76M313.02,314.16c0-.47-.39-.86-.86-.86h-103.98c-.47,0-.86.39-.86.86v9.12c0,.47.39.86.86.86h103.98c.47,0,.86-.39.86-.86v-9.12M196.32,334.14c-.17,0-.33.03-.48.08-2.83.99-4.38,2.9-4.64,5.75-.49,5.4-.5,11.54-.03,18.45.02.29.25.51.54.51l.12,1.12s-.02,0-.02.03v.29c0,.1.07.17.17.18,5.6.25,12.78.34,21.54.25,5.56-.05,13.29.11,23.24.49.55.02,1.09-.22,1.7-.22,22.81.09,42.13.03,57.94-.18,0,0,0,0,0,.02-.07.05-.15.1-.23.15-.09.06-.2,0-.22-.09-.09-.39-.28-.45-.56-.18-.02.02,0,.05.03.05l32.47-.38c.11,0,.19-.09.18-.2l-.05-.44s-.04-.07-.08-.07c0,0-.07-1.02-.09-1.42-.19-4.31-.23-7.81-.11-10.51.19-4.48-.16-7.46-1.04-8.96-1.56-2.64-4.14-4.17-7.74-4.58-2.17-.25-17.49-1.41-17.49-1.41.07,0,.12-.06.12-.12M272.41,368.1l-2.76-.02h-3.99c-.09,0-.18,0-.27,0l-11.47-.02h-34.69s-1.2.02-1.2.02l-31.31.16c-1.43,0-2.68.96-3.09,2.34l-.08.25c-.37,1.12.47,2.27,1.65,2.27h149.1c1.19,0,1.93-1.29,1.34-2.31l-.58-1.01c-.56-.98-1.6-1.58-2.71-1.58l-59.94-.12M334.67,373.86h-150.43c-1.47,0-2.48-1.48-1.95-2.84l.61-1.58c.12-.32-.18-.63-.51-.54-.48.14-.91.63-1.28,1.47-.13.29-.14.63,0,.93.33.8.46,1.36.37,1.69-.07.25.08.51.34.57l3.85.9c.13.03.26.05.39.06,3.16.27,9.59.37,19.3.32,3.31,0,9.59.09,18.84.32,16.5.41,28.31.52,35.47.31,3.32-.09,6.48-.12,9.47-.08,12.34.17,23.32.09,32.92-.24,11.62-.4,19.61-.26,29.91-.41,1.27,0,2.19-.19,2.8-.53.16-.09.1-.34-.09-.34h0Z"/>
    </g>
  </g>
</svg>