<?xml version="1.0" encoding="UTF-8"?>
<svg id="Layer_2" data-name="Layer 2" xmlns="http://www.w3.org/2000/svg" xmlns:xlink="http://www.w3.org/1999/xlink" viewBox="0 0 512 512">
  <defs>
    <style>
      .cls-1 {
        fill: none;
      }

      .cls-2 {
        fill: #92bdc8;
      }

      .cls-3 {
        fill: url(#New_Pattern_Swatch_1);
        stroke: url(#New_Pattern_Swatch_1);
        stroke-miterlimit: 10;
        stroke-width: .25px;
      }
    </style>
    <pattern id="New_Pattern_Swatch_1" data-name="New Pattern Swatch 1" x="0" y="0" width="74.6" height="74.6" patternTransform="translate(-6999.84 -1066.83)" patternUnits="userSpaceOnUse" viewBox="0 0 74.6 74.6">
      <g>
        <rect class="cls-1" width="74.6" height="74.6"/>
        <rect class="cls-2" x="0" width="74.6" height="74.6"/>
      </g>
    </pattern>
  </defs>
  <g>
    <path class="cls-3" d="M320.97,187.99c-.96-.96-2.52-.96-3.48,0l-9.85,9.85c-.96.96-.96,2.52,0,3.48l9.85,9.85c.96.96,2.52.96,3.48,0l9.85-9.85c.96-.96.96-2.52,0-3.48l-9.85-9.85ZM319.23,205.96l-6.37-6.37,6.37-6.37,6.37,6.37-6.37,6.37Z"/>
    <path class="cls-3" d="M320.97,217.55c-.96-.96-2.52-.96-3.48,0l-9.85,9.85c-.96.96-.96,2.52,0,3.48l9.85,9.85c.96.96,2.52.96,3.48,0l9.85-9.85c.96-.96.96-2.52,0-3.48l-9.85-9.85ZM319.23,235.52l-6.37-6.37,6.37-6.37,6.37,6.37-6.37,6.37Z"/>
    <path class="cls-3" d="M320.97,247.11c-.96-.96-2.52-.96-3.48,0l-9.85,9.85c-.96.96-.96,2.52,0,3.48l9.85,9.85c.96.96,2.52.96,3.48,0l9.85-9.85c.96-.96.96-2.52,0-3.48l-9.85-9.85ZM319.23,265.07l-6.37-6.37,6.37-6.37,6.37,6.37-6.37,6.37Z"/>
    <path class="cls-3" d="M320.97,276.67c-.96-.96-2.52-.96-3.48,0l-9.85,9.85c-.96.96-.96,2.52,0,3.48l9.85,9.85c.96.96,2.52.96,3.48,0l9.85-9.85c.96-.96.96-2.52,0-3.48l-9.85-9.85ZM319.23,294.63l-6.37-6.37,6.37-6.37,6.37,6.37-6.37,6.37Z"/>
    <path class="cls-3" d="M376.6,211.18c.96.96,2.52.96,3.48,0l9.85-9.85c.96-.96.96-2.52,0-3.48l-9.85-9.85c-.96-.96-2.52-.96-3.48,0l-9.85,9.85c-.96.96-.96,2.52,0,3.48l9.85,9.85ZM378.35,193.22l6.37,6.37-6.37,6.37-6.37-6.37,6.37-6.37Z"/>
    <path class="cls-3" d="M376.6,240.74c.96.96,2.52.96,3.48,0l9.85-9.85c.96-.96.96-2.52,0-3.48l-9.85-9.85c-.96-.96-2.52-.96-3.48,0l-9.85,9.85c-.96.96-.96,2.52,0,3.48l9.85,9.85ZM378.35,222.78l6.37,6.37-6.37,6.37-6.37-6.37,6.37-6.37Z"/>
    <path class="cls-3" d="M376.6,270.3c.96.96,2.52.96,3.48,0l9.85-9.85c.96-.96.96-2.52,0-3.48l-9.85-9.85c-.96-.96-2.52-.96-3.48,0l-9.85,9.85c-.96.96-.96,2.52,0,3.48l9.85,9.85ZM378.35,252.33l6.37,6.37-6.37,6.37-6.37-6.37,6.37-6.37Z"/>
    <path class="cls-3" d="M389.94,286.52l-9.85-9.85c-.96-.96-2.52-.96-3.48,0l-9.85,9.85c-.96.96-.96,2.52,0,3.48l9.85,9.85c.96.96,2.52.96,3.48,0l9.85-9.85c.96-.96.96-2.52,0-3.48ZM378.35,294.63l-6.37-6.37,6.37-6.37,6.37,6.37-6.37,6.37Z"/>
    <path class="cls-3" d="M350.53,261.89c-.96-.96-2.52-.96-3.48,0l-9.85,9.85c-.96.96-.96,2.52,0,3.48l9.85,9.85c.96.96,2.52.96,3.48,0l9.85-9.85c.96-.96.96-2.52,0-3.48l-9.85-9.85ZM348.79,279.85l-6.37-6.37,6.37-6.37,6.37,6.37-6.37,6.37Z"/>
    <path class="cls-3" d="M350.53,202.77c-.96-.96-2.52-.96-3.48,0l-9.85,9.85c-.96.96-.96,2.52,0,3.48l9.85,9.85c.96.96,2.52.96,3.48,0l9.85-9.85c.96-.96.96-2.52,0-3.48l-9.85-9.85ZM348.79,220.74l-6.37-6.37,6.37-6.37,6.37,6.37-6.37,6.37Z"/>
    <path class="cls-3" d="M407.9,142.93h-118.23c-6.79,0-12.32,5.52-12.32,12.32v177.35c0,6.79,5.52,12.32,12.32,12.32h118.23c6.79,0,12.32-5.52,12.32-12.32v-177.35c0-6.79-5.52-12.32-12.32-12.32ZM415.29,332.6c0,4.07-3.31,7.39-7.39,7.39h-118.23c-4.07,0-7.39-3.31-7.39-7.39v-177.35c0-4.07,3.31-7.39,7.39-7.39h118.23c4.07,0,7.39,3.31,7.39,7.39v177.35Z"/>
    <path class="cls-3" d="M289.67,152.79c-1.36,0-2.46,1.1-2.46,2.46v19.71c0,1.36,1.1,2.46,2.46,2.46s2.46-1.1,2.46-2.46v-19.71c0-1.36-1.1-2.46-2.46-2.46Z"/>
    <path class="cls-3" d="M407.9,310.43c-1.36,0-2.46,1.1-2.46,2.46v19.71c0,1.36,1.1,2.46,2.46,2.46s2.46-1.1,2.46-2.46v-19.71c0-1.36-1.1-2.46-2.46-2.46Z"/>
    <path class="cls-3" d="M311.84,174.96v-19.71c0-1.36-1.1-2.46-2.46-2.46h-9.85c-1.36,0-2.46,1.1-2.46,2.46v19.71c0,1.36,1.1,2.46,2.46,2.46h9.85c1.36,0,2.46-1.1,2.46-2.46ZM306.91,172.49h-4.93v-14.78h4.93v14.78Z"/>
    <path class="cls-3" d="M398.05,310.43h-9.85c-1.36,0-2.46,1.1-2.46,2.46v19.71c0,1.36,1.1,2.46,2.46,2.46h9.85c1.36,0,2.46-1.1,2.46-2.46v-19.71c0-1.36-1.1-2.46-2.46-2.46ZM395.59,330.14h-4.93v-14.78h4.93v14.78Z"/>
  </g>
  <g>
    <path class="cls-3" d="M104.1,177.42h8.83l1.74,1.74c.96.96,2.52.96,3.48,0s.96-2.52,0-3.48l-1.74-1.74v-18.69c0-1.36-1.1-2.46-2.46-2.46h-9.85c-1.36,0-2.46,1.1-2.46,2.46v19.71c0,1.36,1.1,2.46,2.46,2.46ZM106.56,157.71h4.93v14.78h-4.93v-14.78Z"/>
    <path class="cls-3" d="M222.33,310.43h-8.83l-1.74-1.74c-.96-.96-2.52-.96-3.48,0s-.96,2.52,0,3.48l1.74,1.74v18.69c0,1.36,1.1,2.46,2.46,2.46h9.85c1.36,0,2.46-1.1,2.46-2.46v-19.71c0-1.36-1.1-2.46-2.46-2.46ZM219.87,330.14h-4.93v-14.78h4.93v14.78Z"/>
    <path class="cls-3" d="M213.47,153c-.63-.29-1.36-.29-1.98,0-1.16.51-11.32,5.19-11.32,12.1s5.47,9.34,9.85,7.97v1.88c0,1.36,1.1,2.46,2.46,2.46s2.46-1.11,2.46-2.46v-1.88c4.38,1.38,9.85-1.09,9.85-7.97s-10.17-11.59-11.32-12.1ZM217.33,168.57c-.93,0-2.4-.53-2.4-1.95s-1.1-2.46-2.46-2.46-2.46,1.11-2.46,2.46c0,1.42-1.47,1.95-2.4,1.95-1.37,0-2.53-.94-2.53-3.46s4.48-5.64,7.39-7.12c2.91,1.48,7.39,4.5,7.39,7.12s-1.16,3.46-2.53,3.46Z"/>
    <path class="cls-3" d="M116.41,314.78v-1.88c0-1.36-1.1-2.46-2.46-2.46s-2.46,1.11-2.46,2.46v1.88c-4.38-1.38-9.85,1.09-9.85,7.97s10.17,11.59,11.32,12.1c.63.29,1.36.29,1.98,0,1.16-.51,11.32-5.19,11.32-12.1s-5.47-9.34-9.85-7.97ZM113.95,329.86c-2.91-1.48-7.39-4.5-7.39-7.12s1.16-3.46,2.53-3.46c.93,0,2.4.53,2.4,1.95s1.1,2.46,2.46,2.46,2.46-1.11,2.46-2.46c0-1.42,1.47-1.95,2.4-1.95,1.37,0,2.53.94,2.53,3.46s-4.48,5.64-7.39,7.12Z"/>
    <path class="cls-3" d="M168.29,262.72s-2.41,2.66-5.3,2.66c-1.63,0-3.24-.89-4.79-2.66-.9-1.03-2.45-1.13-3.47-.23-1.02.89-1.13,2.45-.23,3.47,2.52,2.88,5.38,4.34,8.5,4.34,5.14,0,8.85-4.17,9-4.34.9-1.02.79-2.58-.23-3.47-1.02-.89-2.57-.8-3.47.23Z"/>
    <path class="cls-3" d="M155.86,241.46c0-1.36-1.1-2.46-2.46-2.46h-4.93c-1.36,0-2.46,1.1-2.46,2.46s1.1,2.46,2.46,2.46h4.93c1.36,0,2.46-1.1,2.46-2.46Z"/>
    <path class="cls-3" d="M178.03,239h-4.93c-1.36,0-2.46,1.1-2.46,2.46s1.1,2.46,2.46,2.46h4.93c1.36,0,2.46-1.1,2.46-2.46s-1.1-2.46-2.46-2.46Z"/>
    <path class="cls-3" d="M133.65,226.68c12.22,0,22.17-9.94,22.17-22.17,0-1.36-1.1-2.46-2.46-2.46s-2.46,1.1-2.46,2.46c0,9.51-7.74,17.24-17.24,17.24-1.36,0-2.46,1.1-2.46,2.46s1.1,2.46,2.46,2.46Z"/>
    <path class="cls-3" d="M133.65,216.83c6.79,0,12.32-5.52,12.32-12.32,0-1.36-1.1-2.46-2.46-2.46s-2.46,1.1-2.46,2.46c0,4.07-3.31,7.39-7.39,7.39-1.36,0-2.46,1.1-2.46,2.46s1.1,2.46,2.46,2.46Z"/>
    <path class="cls-3" d="M173.06,202.05c-1.36,0-2.46,1.1-2.46,2.46,0,12.22,9.94,22.17,22.17,22.17,1.36,0,2.46-1.1,2.46-2.46s-1.1-2.46-2.46-2.46c-9.51,0-17.24-7.74-17.24-17.24,0-1.36-1.1-2.46-2.46-2.46Z"/>
    <path class="cls-3" d="M192.77,216.83c1.36,0,2.46-1.1,2.46-2.46s-1.1-2.46-2.46-2.46c-4.07,0-7.39-3.31-7.39-7.39,0-1.36-1.1-2.46-2.46-2.46s-2.46,1.1-2.46,2.46c0,6.79,5.52,12.32,12.32,12.32Z"/>
    <path class="cls-3" d="M214.94,293.19c0-1.36-1.1-2.46-2.46-2.46-4.07,0-7.39-3.31-7.39-7.39v-64.04c0-12.18-8.07-22.5-19.15-25.9l4.24-12.73c.29-.89.06-1.86-.6-2.52-.66-.66-1.63-.88-2.52-.6l-13.34,4.45-8.78-8.78c-.96-.96-2.52-.96-3.48,0l-8.78,8.78-13.34-4.45c-.88-.28-1.86-.07-2.52.6s-.89,1.64-.6,2.52l4.24,12.73c-11.07,3.4-19.15,13.73-19.15,25.9v64.04c0,4.07-3.31,7.39-7.39,7.39-1.36,0-2.46,1.1-2.46,2.46s1.1,2.46,2.46,2.46c6.79,0,12.32-5.52,12.32-12.32v-64.04c0-12.22,9.94-22.17,22.17-22.17h29.56c12.22,0,22.17,9.94,22.17,22.17v64.04c0,6.79,5.52,12.32,12.32,12.32,1.36,0,2.46-1.1,2.46-2.46ZM181.08,192.38c-1.01-.12-2.04-.18-3.09-.18h-29.56c-1.05,0-2.07.07-3.09.18l-2.87-8.6,10.1,3.37c.89.28,1.86.06,2.52-.6l8.11-8.11,8.11,8.11c.66.66,1.65.88,2.52.6l10.1-3.37-2.87,8.6Z"/>
    <path class="cls-3" d="M200.76,297.57c-4.17-1.04-7.78-3.58-10.17-7.16l-5.21-7.82v-9.55c4.23-3.98,7.39-8.81,7.39-14.33,0-5.09.24-17.02.34-22.2,1.2-.17,2.12-1.18,2.12-2.43,0-1.36-1.1-2.46-2.46-2.46-14.94,0-27.1-12.15-27.1-27.1,0-1.36-1.1-2.46-2.46-2.46s-2.46,1.1-2.46,2.46c0,14.94-12.15,27.1-27.1,27.1-1.36,0-2.46,1.1-2.46,2.46,0,1.25.93,2.26,2.13,2.43.11,5.18.34,17.12.34,22.2,0,5.53,3.16,10.35,7.39,14.33v9.55l-5.21,7.82c-2.39,3.58-5.99,6.12-10.17,7.16-1.32.33-2.12,1.67-1.79,2.99.3,1.2,1.56,2.15,2.99,1.79,5.36-1.34,10.01-4.61,13.07-9.21l3.57-5.36,17.66,26.48c.46.68,1.23,1.1,2.05,1.1s1.59-.41,2.05-1.1l17.66-26.48,3.57,5.36c3.06,4.6,7.71,7.87,13.07,9.21,1.43.36,2.69-.59,2.99-1.79.33-1.32-.48-2.66-1.79-2.99ZM180.45,282.59l-17.24,25.86-17.24-25.86v-5.55c7.5,5.32,15.77,8.39,16.4,8.61.27.1.56.15.84.15s.57-.05.84-.15c.63-.23,8.9-3.29,16.4-8.61v5.55ZM163.21,280.7c-7.6-2.94-24.63-11.71-24.63-22,0-5.17-.24-17.42-.34-22.51,11.29-1.63,20.71-9.16,24.97-19.37,4.27,10.21,13.68,17.74,24.98,19.37-.11,5.09-.35,17.33-.35,22.51,0,10.29-17.04,19.06-24.63,22Z"/>
    <path class="cls-3" d="M222.33,142.93h-118.23c-6.79,0-12.32,5.52-12.32,12.32v177.35c0,6.79,5.52,12.32,12.32,12.32h118.23c6.79,0,12.32-5.52,12.32-12.32v-177.35c0-6.79-5.52-12.32-12.32-12.32ZM229.72,332.6c0,4.07-3.31,7.39-7.39,7.39h-118.23c-4.07,0-7.39-3.32-7.39-7.39v-177.35c0-4.07,3.31-7.39,7.39-7.39h118.23c4.07,0,7.39,3.32,7.39,7.39v177.35Z"/>
  </g>
</svg>