<?xml version="1.0" encoding="UTF-8"?>
<svg id="Layer_2" data-name="Layer 2" xmlns="http://www.w3.org/2000/svg" xmlns:xlink="http://www.w3.org/1999/xlink" viewBox="0 0 512 512">
  <defs>
    <style>
      .cls-1 {
        fill: none;
      }

      .cls-2 {
        fill: #92bdc8;
      }

      .cls-3 {
        fill: url(#New_Pattern_Swatch_1);
        stroke: url(#New_Pattern_Swatch_1);
        stroke-miterlimit: 10;
        stroke-width: .25px;
      }
    </style>
    <pattern id="New_Pattern_Swatch_1" data-name="New Pattern Swatch 1" x="0" y="0" width="74.6" height="74.6" patternTransform="translate(-6427.84 -1066.83)" patternUnits="userSpaceOnUse" viewBox="0 0 74.6 74.6">
      <g>
        <rect class="cls-1" width="74.6" height="74.6"/>
        <rect class="cls-2" x="0" width="74.6" height="74.6"/>
      </g>
    </pattern>
  </defs>
  <g>
    <path class="cls-3" d="M101.57,186.61c0,1.37,1.11,2.49,2.49,2.49s2.49-1.12,2.49-2.49v-19.88c0-1.62-1.53-2.8-3.09-2.41l-9.94,2.49c-1.11.27-1.88,1.27-1.88,2.41v17.4c0,1.37,1.11,2.49,2.49,2.49s2.49-1.12,2.49-2.49v-4.97h4.97v4.97ZM96.6,176.67v-5.51l4.97-1.24v6.76h-4.97Z"/>
    <path class="cls-3" d="M147,289.62c-8.8-13.05-24.48-27.7-36.51-33.43,12.03-5.73,27.7-20.38,36.51-33.43v-9.59c-7.11,15.64-33.63,40.54-45.42,40.54-1.37,0-2.49,1.11-2.49,2.49s1.11,2.49,2.49,2.49c11.79,0,38.31,24.9,45.42,40.54v-9.59Z"/>
    <path class="cls-3" d="M169.42,353.12h-75.3c-4.11,0-7.46-3.34-7.46-7.46v-178.93c0-4.11,3.34-7.46,7.46-7.46h75.3v-4.97h-75.3c-6.85,0-12.43,5.57-12.43,12.43v178.93c0,6.85,5.57,12.43,12.43,12.43h75.3v-4.97Z"/>
  </g>
  <g>
    <path class="cls-3" d="M216.48,303.51c.04-1.67.05-3.35.07-5.02-3.02-3.27-6.79-6.84-10.92-10.74-15.05-14.22-33.78-31.91-33.78-51.65,0-15.15,11.22-25.79,22.07-27.31,10.4-1.47,18.82,5.08,22.58,17.52v-11.74c-6.28-9.22-15.5-11.78-23.27-10.7-12.96,1.82-26.35,14.37-26.35,32.23,0,21.88,19.59,40.39,35.34,55.27,5.98,5.64,11.19,10.57,14.16,14.64.04-.84.08-1.67.1-2.5Z"/>
    <path class="cls-3" d="M166.88,186.22c0,1.37,1.11,2.49,2.49,2.49s2.49-1.12,2.49-2.49v-19.88c0-1.62-1.53-2.8-3.09-2.41l-9.94,2.49c-1.11.27-1.88,1.27-1.88,2.41v17.4c0,1.37,1.11,2.49,2.49,2.49s2.49-1.12,2.49-2.49v-4.97h4.97v4.97ZM161.91,176.28v-5.51l4.97-1.24v6.76h-4.97Z"/>
    <path class="cls-3" d="M239.31,352.73h-79.88c-4.11,0-7.46-3.34-7.46-7.46v-178.93c0-4.11,3.34-7.46,7.46-7.46h79.88v-4.97h-79.88c-6.85,0-12.43,5.57-12.43,12.43v178.93c0,6.85,5.57,12.43,12.43,12.43h79.88v-4.97Z"/>
  </g>
  <g>
    <path class="cls-3" d="M235.31,186.61c0,1.37,1.11,2.49,2.49,2.49s2.49-1.12,2.49-2.49v-19.88c0-1.62-1.53-2.8-3.09-2.41l-9.94,2.49c-1.11.27-1.88,1.27-1.88,2.41v17.4c0,1.37,1.11,2.49,2.49,2.49s2.49-1.12,2.49-2.49v-4.97h4.97v4.97ZM230.34,176.67v-5.51l4.97-1.24v6.76h-4.97Z"/>
    <path class="cls-3" d="M286.64,303.41h-3.96c.86-3.85,2.39-11.11,3.96-20.58v-8.74c-.19-.14-.39-.25-.62-.33-1.09-.39-2.36.05-2.97,1.07-7.41,12.42-18.81,14.4-26.31,12.32-8.93-2.46-14.47-10.5-14.47-21.01,0-18.64,16.68-31.15,31.4-42.19,4.94-3.7,9.43-7.08,12.96-10.44v-7.31c-3.33,4.31-9.47,8.92-15.94,13.77-14.88,11.16-33.39,25.05-33.39,46.17,0,12.83,6.94,22.73,18.12,25.8,7.75,2.14,17.84.5,25.81-6.95-2.14,12.39-4.07,20.21-4.1,20.31-.18.75-.01,1.53.46,2.14.47.6,1.19.95,1.96.95h7.09v-4.97Z"/>
    <path class="cls-3" d="M308.96,353.12h-80.11c-4.11,0-7.46-3.35-7.46-7.46v-178.93c0-4.11,3.34-7.46,7.46-7.46h66.81c0-1.66,0-3.31,0-4.97h-66.82c-6.85,0-12.43,5.57-12.43,12.43v178.93c0,6.85,5.57,12.43,12.43,12.43h80.11c0-1.66,0-3.31,0-4.97Z"/>
  </g>
  <g>
    <path class="cls-3" d="M388.06,240.9c-2.53,0-4.81.39-6.88,1.05,1.83-3.54,3.03-7.55,3.03-12.34,0-14.33-11.65-25.99-25.98-25.99s-25.98,11.66-25.98,25.99c0,4.79,1.2,8.8,3.03,12.34-2.07-.66-4.34-1.05-6.88-1.05-12.33,0-22.37,10.04-22.37,22.37s10.03,22.37,22.37,22.37c9.28,0,15.15-5.21,20.83-10.25.84-.75,1.69-1.5,2.56-2.25-2.72,18.88-5.89,31.64-5.92,31.78-.38,1.61.81,3.09,2.41,3.09h19.88c1.6,0,2.8-1.47,2.41-3.09-.03-.15-3.2-12.9-5.92-31.78.87.75,1.72,1.5,2.56,2.25,5.68,5.04,11.55,10.25,20.83,10.25,12.33,0,22.37-10.04,22.37-22.37s-10.03-22.37-22.37-22.37ZM388.06,280.66c-7.39,0-12.09-4.17-17.53-9-2.4-2.14-4.88-4.34-7.75-6.31-.8-.56-1.86-.6-2.7-.07-.83.5-1.3,1.47-1.17,2.44,2.15,16.67,4.86,29.65,6.14,35.31h-13.62c1.27-5.66,3.99-18.64,6.14-35.31.13-.97-.33-1.93-1.17-2.44-.84-.53-1.91-.5-2.7.07-2.86,1.97-5.35,4.17-7.75,6.31-5.44,4.82-10.13,9-17.53,9-9.59,0-17.4-7.81-17.4-17.4s7.81-17.4,17.4-17.4c5.72,0,9.84,2.48,14.27,6.19.99.83,2.46.77,3.37-.17.91-.92.95-2.4.09-3.38-4.88-5.57-8.92-10.85-8.92-18.91,0-11.59,9.43-21.02,21.01-21.02s21.01,9.43,21.01,21.02c0,8.06-4.04,13.34-8.92,18.91-.86.98-.82,2.46.09,3.38.92.93,2.39,1,3.37.17,4.42-3.72,8.54-6.19,14.27-6.19,9.59,0,17.4,7.81,17.4,17.4s-7.81,17.4-17.4,17.4Z"/>
    <path class="cls-3" d="M306.05,186.22c0,1.37,1.11,2.49,2.49,2.49s2.49-1.12,2.49-2.49v-19.88c0-1.62-1.53-2.8-3.09-2.41l-9.94,2.49c-1.11.27-1.88,1.27-1.88,2.41v17.4c0,1.37,1.11,2.49,2.49,2.49s2.49-1.12,2.49-2.49v-4.97h4.97v4.97ZM301.08,176.28v-5.51l4.97-1.24v6.76h-4.97Z"/>
    <path class="cls-3" d="M417.88,322.91c-1.37,0-2.49,1.12-2.49,2.49v4.97h-4.97v-4.97c0-1.37-1.11-2.49-2.49-2.49s-2.49,1.12-2.49,2.49v19.88c0,1.62,1.53,2.8,3.09,2.41l9.94-2.49c1.11-.27,1.88-1.27,1.88-2.41v-17.4c0-1.37-1.11-2.49-2.49-2.49ZM415.4,340.85l-4.97,1.24v-6.76h4.97v5.51Z"/>
    <path class="cls-3" d="M417.88,153.91h-119.29c-6.85,0-12.43,5.57-12.43,12.43v178.93c0,6.85,5.57,12.43,12.43,12.43h119.29c6.85,0,12.43-5.57,12.43-12.43v-178.93c0-6.85-5.57-12.43-12.43-12.43ZM425.34,345.27c0,4.11-3.34,7.46-7.46,7.46h-119.29c-4.11,0-7.46-3.35-7.46-7.46v-178.93c0-4.11,3.34-7.46,7.46-7.46h119.29c4.11,0,7.46,3.35,7.46,7.46v178.93Z"/>
  </g>
</svg>