<?xml version="1.0" encoding="UTF-8"?>
<svg xmlns="http://www.w3.org/2000/svg" xmlns:xlink="http://www.w3.org/1999/xlink" viewBox="0 0 512 512">
  <defs>
    <style>
      .cls-1 {
        fill: none;
      }

      .cls-2 {
        fill: url(#linear-gradient-2);
        mix-blend-mode: color-burn;
        opacity: .59;
      }

      .cls-3 {
        fill: #92bdc8;
      }

      .cls-4 {
        isolation: isolate;
      }

      .cls-5 {
        fill: url(#linear-gradient);
        opacity: .21;
      }

      .cls-6 {
        fill: url(#New_Pattern_Swatch_1);
      }
    </style>
    <linearGradient id="linear-gradient" x1="20.33" y1="489.95" x2="489" y2="21.28" gradientUnits="userSpaceOnUse">
      <stop offset=".47" stop-color="#e4f1fb"/>
      <stop offset=".51" stop-color="#dae8f3"/>
      <stop offset=".63" stop-color="#bdcbd9"/>
      <stop offset=".74" stop-color="#abbaca"/>
      <stop offset=".82" stop-color="#a5b4c5"/>
    </linearGradient>
    <linearGradient id="linear-gradient-2" x1="96.68" y1="-23.12" x2="418.53" y2="534.35" gradientUnits="userSpaceOnUse">
      <stop offset="0" stop-color="#fff"/>
      <stop offset="1" stop-color="#d5e9f8"/>
    </linearGradient>
    <pattern id="New_Pattern_Swatch_1" data-name="New Pattern Swatch 1" x="0" y="0" width="74.6" height="74.6" patternTransform="translate(2367.11 6001.93) scale(1.92)" patternUnits="userSpaceOnUse" viewBox="0 0 74.6 74.6">
      <g>
        <rect class="cls-1" width="74.6" height="74.6"/>
        <rect class="cls-3" x="0" width="74.6" height="74.6"/>
      </g>
    </pattern>
  </defs>
  <g class="cls-4">
    <g id="Layer_3" data-name="Layer 3">
      <g>
        <rect class="cls-5" x="5.82" y="8.05" width="497.69" height="495.12" rx="47.21" ry="47.21"/>
        <path class="cls-2" d="M51.31,9.63h412.59c23.52,0,42.61,19.09,42.61,42.61v406.74c0,23.52-19.09,42.61-42.61,42.61H51.31c-23.52,0-42.61-19.09-42.61-42.61V52.25c0-23.52,19.09-42.61,42.61-42.61Z"/>
      </g>
    </g>
    <g id="Layer_2" data-name="Layer 2">
      <g>
        <path class="cls-6" d="M385.61,188.87l-78.44-34.65c-7.8-3.45-16.95.1-20.4,7.9l-27.63,62.56v-47.85c0-5.89-4.79-10.67-10.67-10.67h-95.34c-5.89,0-10.67,4.79-10.67,10.67v187.14c0,5.89,4.79,10.67,10.67,10.67h95.34c5.89,0,10.67-4.79,10.67-10.67v-3.04l42.23,18.65c2,.88,4.12,1.33,6.24,1.33,1.89,0,3.78-.35,5.59-1.05,3.85-1.49,6.89-4.39,8.56-8.17l71.74-162.42c3.45-7.8-.1-16.95-7.9-20.4ZM251.77,363.97c0,1.82-1.48,3.31-3.31,3.31h-95.34c-1.82,0-3.31-1.48-3.31-3.31v-187.14c0-1.82,1.48-3.31,3.31-3.31h95.34c1.82,0,3.31,1.48,3.31,3.31v64.53l-11.2,25.36h-81.31c-2.03,0-3.68,1.65-3.68,3.68s1.65,3.68,3.68,3.68h78.05l-22.29,50.45c-3.45,7.8.1,16.95,7.9,20.4l28.84,12.74v6.3ZM386.77,206.29l-71.74,162.42c-1.8,4.08-6.59,5.94-10.68,4.13l-78.44-34.65c-1.98-.87-3.5-2.47-4.28-4.48-.78-2.02-.73-4.22.14-6.19l71.74-162.42c.87-1.98,2.47-3.5,4.48-4.28.95-.37,1.94-.55,2.93-.55,1.11,0,2.22.23,3.27.69l78.44,34.65c1.98.87,3.5,2.47,4.28,4.48.78,2.02.73,4.22-.14,6.2Z"/>
        <path class="cls-6" d="M186.49,249.93c3.62-3.62,3.62-9.49,0-13.12-3.62-3.62-9.49-3.62-13.12,0-3.62,3.62-3.62,9.49,0,13.12,3.62,3.62,9.49,3.62,13.12,0Z"/>
        <path class="cls-6" d="M194.36,312.25c-3.62,3.62-3.62,9.49,0,13.12,3.62,3.62,9.49,3.62,13.12,0,3.62-3.62,3.62-9.49,0-13.12-3.62-3.62-9.49-3.62-13.12,0Z"/>
        <path class="cls-6" d="M209.25,227.17c3.62-3.62,3.62-9.49,0-13.12-3.62-3.62-9.49-3.62-13.12,0-3.62,3.62-3.62,9.49,0,13.12,3.62,3.62,9.49,3.62,13.12,0Z"/>
        <path class="cls-6" d="M232.01,204.4c3.62-3.62,3.62-9.49,0-13.12-3.62-3.62-9.49-3.62-13.12,0-3.62,3.62-3.62,9.49,0,13.12,3.62,3.62,9.49,3.62,13.12,0Z"/>
        <path class="cls-6" d="M343.75,280.31l-75.99-33.56c-1.86-.82-4.04.02-4.86,1.88-.82,1.86.02,4.04,1.88,4.86l75.99,33.56c.48.21.99.32,1.49.32,1.41,0,2.76-.82,3.37-2.2.82-1.86-.02-4.04-1.88-4.86Z"/>
        <path class="cls-6" d="M270.96,276.59c-4.78,1.85-7.15,7.22-5.3,12,1.85,4.78,7.22,7.15,12,5.3,4.78-1.85,7.15-7.22,5.3-12-1.85-4.78-7.22-7.15-12-5.3Z"/>
        <path class="cls-6" d="M255.18,312.32c-4.78,1.85-7.15,7.22-5.3,12,1.85,4.78,7.22,7.15,12,5.3,4.78-1.85,7.15-7.22,5.3-12-1.85-4.78-7.22-7.15-12-5.3Z"/>
        <path class="cls-6" d="M307.76,292.84c-4.78,1.85-7.15,7.22-5.3,12,1.85,4.78,7.22,7.15,12,5.3,4.78-1.85,7.15-7.22,5.3-12-1.85-4.78-7.22-7.15-12-5.3Z"/>
        <path class="cls-6" d="M291.97,328.57c-4.78,1.85-7.15,7.22-5.3,12,1.85,4.78,7.22,7.15,12,5.3,4.78-1.85,7.15-7.22,5.3-12-1.85-4.78-7.22-7.15-12-5.3Z"/>
        <path class="cls-6" d="M309.27,238.72c4.78-1.85,7.15-7.22,5.3-12-1.85-4.78-7.22-7.15-12-5.3-4.78,1.85-7.15,7.22-5.3,12,1.85,4.78,7.22,7.15,12,5.3Z"/>
        <path class="cls-6" d="M341.29,206.43c-4.78,1.85-7.15,7.22-5.3,12,1.85,4.78,7.22,7.15,12,5.3,4.78-1.85,7.15-7.22,5.3-12-1.85-4.78-7.22-7.15-12-5.3Z"/>
      </g>
    </g>
  </g>
</svg>