<?xml version="1.0" encoding="UTF-8"?>
<svg xmlns="http://www.w3.org/2000/svg" xmlns:xlink="http://www.w3.org/1999/xlink" viewBox="0 0 512 512">
  <defs>
    <style>
      .cls-1, .cls-2 {
        fill: none;
      }

      .cls-3 {
        fill: url(#linear-gradient-2);
        mix-blend-mode: color-burn;
        opacity: .59;
      }

      .cls-4 {
        fill: #92bdc8;
      }

      .cls-5 {
        isolation: isolate;
      }

      .cls-6 {
        fill: url(#linear-gradient);
        opacity: .21;
      }

      .cls-2 {
        stroke: url(#New_Pattern_Swatch_1);
        stroke-miterlimit: 10;
        stroke-width: 8px;
      }
    </style>
    <linearGradient id="linear-gradient" x1="20.33" y1="489.95" x2="489" y2="21.28" gradientUnits="userSpaceOnUse">
      <stop offset=".47" stop-color="#e4f1fb"/>
      <stop offset=".51" stop-color="#dae8f3"/>
      <stop offset=".63" stop-color="#bdcbd9"/>
      <stop offset=".74" stop-color="#abbaca"/>
      <stop offset=".82" stop-color="#a5b4c5"/>
    </linearGradient>
    <linearGradient id="linear-gradient-2" x1="96.68" y1="-23.12" x2="418.53" y2="534.35" gradientUnits="userSpaceOnUse">
      <stop offset="0" stop-color="#fff"/>
      <stop offset="1" stop-color="#d5e9f8"/>
    </linearGradient>
    <pattern id="New_Pattern_Swatch_1" data-name="New Pattern Swatch 1" x="0" y="0" width="74.6" height="74.6" patternTransform="translate(-1434.62 -164.94)" patternUnits="userSpaceOnUse" viewBox="0 0 74.6 74.6">
      <g>
        <rect class="cls-1" width="74.6" height="74.6"/>
        <rect class="cls-4" x="0" width="74.6" height="74.6"/>
      </g>
    </pattern>
  </defs>
  <g class="cls-5">
    <g id="Layer_3" data-name="Layer 3">
      <g>
        <rect class="cls-6" x="5.82" y="8.05" width="497.69" height="495.12" rx="47.21" ry="47.21"/>
        <rect class="cls-3" x="8.7" y="9.63" width="497.82" height="491.96" rx="42.61" ry="42.61"/>
      </g>
    </g>
    <g id="Layer_2" data-name="Layer 2">
      <g>
        <path class="cls-2" d="M157.2,277.96c31.58-32.71,75.3-45.23,129.14-48.79,33.8-2.24,60.88,3.84,72.35,14.34"/>
        <path class="cls-2" d="M181.97,336.29c75.1-12.32,72.61-71.35,117.59-74.98,44.79-3.62,41.27,57.66,35.33,68.82"/>
        <path class="cls-2" d="M319.66,180.71c3.74,6.09-3.42,20.82-22.68,21.63-19.26.81-31.16-.85-55.03-9.19-25.34-8.85-55.55-2.56-75.98,19.5"/>
        <circle class="cls-2" cx="256" cy="262.14" r="105.14"/>
        <path class="cls-2" d="M234.99,161c30.6,0,66.24,30.77,66.24,102.33,0,54.6-23.49,94.35-50.23,102.43"/>
      </g>
    </g>
  </g>
</svg>