<?xml version="1.0" encoding="UTF-8"?>
<svg xmlns="http://www.w3.org/2000/svg" xmlns:xlink="http://www.w3.org/1999/xlink" viewBox="0 0 512 512">
  <defs>
    <style>
      .cls-1 {
        fill: none;
      }

      .cls-2 {
        fill: url(#linear-gradient-2);
        mix-blend-mode: color-burn;
        opacity: .59;
      }

      .cls-3 {
        fill: #92bdc8;
      }

      .cls-4 {
        isolation: isolate;
      }

      .cls-5 {
        fill: url(#linear-gradient);
        opacity: .21;
      }

      .cls-6 {
        fill: url(#New_Pattern_Swatch_1);
      }
    </style>
    <linearGradient id="linear-gradient" x1="20.33" y1="489.95" x2="489" y2="21.28" gradientUnits="userSpaceOnUse">
      <stop offset=".47" stop-color="#e4f1fb"/>
      <stop offset=".51" stop-color="#dae8f3"/>
      <stop offset=".63" stop-color="#bdcbd9"/>
      <stop offset=".74" stop-color="#abbaca"/>
      <stop offset=".82" stop-color="#a5b4c5"/>
    </linearGradient>
    <linearGradient id="linear-gradient-2" x1="96.68" y1="-23.12" x2="418.53" y2="534.35" gradientUnits="userSpaceOnUse">
      <stop offset="0" stop-color="#fff"/>
      <stop offset="1" stop-color="#d5e9f8"/>
    </linearGradient>
    <pattern id="New_Pattern_Swatch_1" data-name="New Pattern Swatch 1" x="0" y="0" width="74.6" height="74.6" patternTransform="translate(-5366.27 -164.94)" patternUnits="userSpaceOnUse" viewBox="0 0 74.6 74.6">
      <g>
        <rect class="cls-1" width="74.6" height="74.6"/>
        <rect class="cls-3" x="0" width="74.6" height="74.6"/>
      </g>
    </pattern>
  </defs>
  <g class="cls-4">
    <g id="Layer_3" data-name="Layer 3">
      <g>
        <rect class="cls-5" x="5.82" y="8.05" width="497.69" height="495.12" rx="47.21" ry="47.21"/>
        <rect class="cls-2" x="8.7" y="9.63" width="497.82" height="491.96" rx="42.61" ry="42.61"/>
      </g>
    </g>
    <g id="Layer_2" data-name="Layer 2">
      <g>
        <g>
          <path class="cls-6" d="M282.08,201.5c0,1.37,1.12,2.5,2.5,2.5s2.5-1.12,2.5-2.5v-19.97c0-1.63-1.54-2.81-3.1-2.42l-9.98,2.5c-1.11.27-1.89,1.28-1.89,2.42v17.47c0,1.37,1.12,2.5,2.5,2.5s2.5-1.12,2.5-2.5v-4.99h4.99v4.99ZM277.08,191.52v-5.54l4.99-1.25v6.79h-4.99Z"/>
          <path class="cls-6" d="M394.39,338.78c-1.38,0-2.5,1.12-2.5,2.5v4.99h-4.99v-4.99c0-1.37-1.12-2.5-2.5-2.5s-2.5,1.12-2.5,2.5v19.97c0,1.63,1.54,2.81,3.1,2.42l9.98-2.5c1.11-.27,1.89-1.28,1.89-2.42v-17.47c0-1.37-1.12-2.5-2.5-2.5ZM391.89,356.79l-4.99,1.25v-6.79h4.99v5.54Z"/>
          <path class="cls-6" d="M353.36,235c-7.05-5.28-13.71-10.28-16.8-14.92-.93-1.38-3.23-1.38-4.15,0-3.09,4.64-9.75,9.63-16.8,14.92-14.94,11.21-33.54,25.15-33.54,46.37,0,12.89,6.97,22.82,18.2,25.91,7.78,2.14,17.91.5,25.92-6.98-2.15,12.44-4.09,20.3-4.11,20.4-.19.75-.01,1.54.46,2.14.47.6,1.19.96,1.96.96h19.97c.77,0,1.49-.35,1.96-.96.47-.6.64-1.39.46-2.14-.02-.1-1.96-7.96-4.11-20.4,8.01,7.48,18.11,9.13,25.92,6.98,11.22-3.09,18.19-13.03,18.19-25.91,0-21.21-18.6-35.16-33.54-46.37ZM367.38,302.48c-7.58,2.05-19,.08-26.42-12.38-.6-1.01-1.86-1.45-2.98-1.07-1.13.4-1.81,1.54-1.63,2.72,1.89,12.64,3.93,22.37,4.98,27.06h-13.68c1.05-4.7,3.09-14.43,4.98-27.06.18-1.18-.5-2.32-1.63-2.72-1.1-.39-2.37.05-2.98,1.07-7.44,12.47-18.89,14.46-26.42,12.37-8.96-2.47-14.53-10.55-14.53-21.1,0-18.72,16.75-31.29,31.54-42.37,6.41-4.81,12.09-9.08,15.88-13.44,3.79,4.37,9.47,8.64,15.88,13.44,14.79,11.09,31.54,23.65,31.54,42.37,0,10.55-5.57,18.63-14.53,21.11Z"/>
          <path class="cls-6" d="M394.39,169.05h-119.8c-6.88,0-12.48,5.6-12.48,12.48v179.7c0,6.88,5.6,12.48,12.48,12.48h119.8c6.88,0,12.48-5.6,12.48-12.48v-179.7c0-6.88-5.6-12.48-12.48-12.48ZM401.88,361.24c0,4.12-3.36,7.49-7.49,7.49h-119.8c-4.13,0-7.49-3.36-7.49-7.49v-179.7c0-4.12,3.36-7.49,7.49-7.49h119.8c4.13,0,7.49,3.36,7.49,7.49v179.7Z"/>
        </g>
        <g>
          <path class="cls-6" d="M167.11,214.24c-.63-.29-1.37-.29-2.01,0-1.17.52-11.48,5.25-11.48,12.26s5.54,9.47,9.98,8.07v1.91c0,1.37,1.12,2.5,2.5,2.5s2.5-1.12,2.5-2.5v-1.91c4.44,1.39,9.98-1.11,9.98-8.07s-10.3-11.75-11.48-12.26ZM171.03,230.01c-.94,0-2.43-.54-2.43-1.98s-1.12-2.5-2.5-2.5-2.5,1.12-2.5,2.5c0,1.44-1.49,1.98-2.43,1.98-1.39,0-2.56-.95-2.56-3.51s4.54-5.71,7.49-7.21c2.95,1.5,7.49,4.56,7.49,7.21s-1.18,3.51-2.56,3.51Z"/>
          <path class="cls-6" d="M167.11,259.17c-.63-.29-1.37-.29-2.01,0-1.17.52-11.48,5.25-11.48,12.26s5.54,9.47,9.98,8.07v1.91c0,1.37,1.12,2.5,2.5,2.5s2.5-1.12,2.5-2.5v-1.91c4.44,1.39,9.98-1.11,9.98-8.07s-10.3-11.75-11.48-12.26ZM171.03,274.94c-.94,0-2.43-.54-2.43-1.98s-1.12-2.5-2.5-2.5-2.5,1.12-2.5,2.5c0,1.44-1.49,1.98-2.43,1.98-1.39,0-2.56-.95-2.56-3.51s4.54-5.71,7.49-7.21c2.95,1.5,7.49,4.56,7.49,7.21s-1.18,3.51-2.56,3.51Z"/>
          <path class="cls-6" d="M167.11,304.09c-.63-.29-1.37-.29-2.01,0-1.17.52-11.48,5.25-11.48,12.26s5.54,9.47,9.98,8.07v1.91c0,1.37,1.12,2.5,2.5,2.5s2.5-1.12,2.5-2.5v-1.91c4.44,1.39,9.98-1.11,9.98-8.07s-10.3-11.75-11.48-12.26ZM171.03,319.86c-.94,0-2.43-.54-2.43-1.98s-1.12-2.5-2.5-2.5-2.5,1.12-2.5,2.5c0,1.44-1.49,1.98-2.43,1.98-1.39,0-2.56-.95-2.56-3.51s4.54-5.71,7.49-7.21c2.95,1.5,7.49,4.56,7.49,7.21s-1.18,3.51-2.56,3.51Z"/>
          <path class="cls-6" d="M212.94,368.77h-95.33c-4.12,0-7.49-3.36-7.49-7.49v-179.7c0-4.12,3.36-7.49,7.49-7.49h95.33v-4.99h-95.33c-6.88,0-12.48,5.6-12.48,12.48v179.7c0,6.88,5.6,12.48,12.48,12.48h95.33v-4.99Z"/>
          <path class="cls-6" d="M127.59,179.08h-9.98c-1.37,0-2.5,1.12-2.5,2.5s1.12,2.5,2.5,2.5h7.49v4.99h-7.49c-1.37,0-2.5,1.12-2.5,2.5s1.12,2.5,2.5,2.5h7.49v4.99h-7.49c-1.37,0-2.5,1.12-2.5,2.5s1.12,2.5,2.5,2.5h9.98c1.37,0,2.5-1.12,2.5-2.5v-19.97c0-1.37-1.12-2.5-2.5-2.5Z"/>
        </g>
        <g>
          <path class="cls-6" d="M246.27,214.48c-.63-.29-1.37-.29-2.01,0-1.17.52-11.48,5.25-11.48,12.26s5.54,9.47,9.98,8.07v1.91c0,1.37,1.12,2.5,2.5,2.5s2.5-1.12,2.5-2.5v-1.91c4.44,1.39,9.98-1.11,9.98-8.07s-10.3-11.75-11.48-12.26ZM250.19,230.26c-.94,0-2.43-.54-2.43-1.98s-1.12-2.5-2.5-2.5-2.5,1.12-2.5,2.5c0,1.44-1.49,1.98-2.43,1.98-1.39,0-2.56-.95-2.56-3.51s4.54-5.71,7.49-7.21c2.95,1.5,7.49,4.56,7.49,7.21s-1.18,3.51-2.56,3.51Z"/>
          <path class="cls-6" d="M246.27,304.34c-.63-.29-1.37-.29-2.01,0-1.17.52-11.48,5.25-11.48,12.26s5.54,9.47,9.98,8.07v1.91c0,1.37,1.12,2.5,2.5,2.5s2.5-1.12,2.5-2.5v-1.91c4.44,1.39,9.98-1.11,9.98-8.07s-10.3-11.75-11.48-12.26ZM250.19,320.11c-.94,0-2.43-.54-2.43-1.98s-1.12-2.5-2.5-2.5-2.5,1.12-2.5,2.5c0,1.44-1.49,1.98-2.43,1.98-1.39,0-2.56-.95-2.56-3.51s4.54-5.71,7.49-7.21c2.95,1.5,7.49,4.56,7.49,7.21s-1.18,3.51-2.56,3.51Z"/>
          <path class="cls-6" d="M290.26,369.01h-93.48c-4.12,0-7.49-3.36-7.49-7.49v-179.7c0-4.12,3.36-7.49,7.49-7.49h93.48v-4.99h-93.48c-6.88,0-12.48,5.6-12.48,12.48v179.7c0,6.88,5.6,12.48,12.48,12.48h93.48v-4.99Z"/>
          <path class="cls-6" d="M206.76,179.33h-9.98c-1.37,0-2.5,1.12-2.5,2.5s1.12,2.5,2.5,2.5h7.49v4.99h-7.49c-1.37,0-2.5,1.12-2.5,2.5v9.98c0,1.37,1.12,2.5,2.5,2.5h9.98c1.37,0,2.5-1.12,2.5-2.5s-1.12-2.5-2.5-2.5h-7.49v-4.99h7.49c1.37,0,2.5-1.12,2.5-2.5v-9.98c0-1.37-1.12-2.5-2.5-2.5Z"/>
        </g>
      </g>
    </g>
  </g>
</svg>