<?xml version="1.0" encoding="UTF-8"?>
<svg xmlns="http://www.w3.org/2000/svg" xmlns:xlink="http://www.w3.org/1999/xlink" viewBox="0 0 512 512">
  <defs>
    <style>
      .cls-1 {
        fill: none;
      }

      .cls-2 {
        fill: url(#linear-gradient-2);
        mix-blend-mode: color-burn;
        opacity: .59;
      }

      .cls-3 {
        fill: #92bdc8;
      }

      .cls-4 {
        isolation: isolate;
      }

      .cls-5 {
        fill: url(#linear-gradient);
        opacity: .21;
      }

      .cls-6 {
        fill: url(#New_Pattern_Swatch_1);
      }
    </style>
    <linearGradient id="linear-gradient" x1="20.33" y1="489.95" x2="489" y2="21.28" gradientUnits="userSpaceOnUse">
      <stop offset=".47" stop-color="#e4f1fb"/>
      <stop offset=".51" stop-color="#dae8f3"/>
      <stop offset=".63" stop-color="#bdcbd9"/>
      <stop offset=".74" stop-color="#abbaca"/>
      <stop offset=".82" stop-color="#a5b4c5"/>
    </linearGradient>
    <linearGradient id="linear-gradient-2" x1="96.68" y1="-23.12" x2="418.53" y2="534.35" gradientUnits="userSpaceOnUse">
      <stop offset="0" stop-color="#fff"/>
      <stop offset="1" stop-color="#d5e9f8"/>
    </linearGradient>
    <pattern id="New_Pattern_Swatch_1" data-name="New Pattern Swatch 1" x="0" y="0" width="74.6" height="74.6" patternTransform="translate(-253.99 6903.82) scale(1.92)" patternUnits="userSpaceOnUse" viewBox="0 0 74.6 74.6">
      <g>
        <rect class="cls-1" width="74.6" height="74.6"/>
        <rect class="cls-3" x="0" width="74.6" height="74.6"/>
      </g>
    </pattern>
  </defs>
  <g class="cls-4">
    <g id="Layer_3" data-name="Layer 3">
      <g>
        <rect class="cls-5" x="5.82" y="8.05" width="497.69" height="495.12" rx="47.21" ry="47.21"/>
        <rect class="cls-2" x="8.7" y="9.63" width="497.82" height="491.96" rx="42.61" ry="42.61"/>
      </g>
    </g>
    <g id="Layer_2" data-name="Layer 2">
      <g>
        <path class="cls-6" d="M196.15,204.43h8.94l1.76,1.76c.97.97,2.55.97,3.53,0s.97-2.55,0-3.53l-1.76-1.76v-18.92c0-1.38-1.12-2.49-2.49-2.49h-9.98c-1.38,0-2.49,1.12-2.49,2.49v19.95c0,1.38,1.12,2.49,2.49,2.49ZM198.64,184.48h4.99v14.96h-4.99v-14.96Z"/>
        <path class="cls-6" d="M315.85,339.09h-8.94l-1.76-1.76c-.97-.97-2.55-.97-3.53,0-.97.97-.97,2.55,0,3.53l1.76,1.76v18.92c0,1.38,1.12,2.49,2.49,2.49h9.98c1.38,0,2.49-1.12,2.49-2.49v-19.95c0-1.38-1.12-2.49-2.49-2.49ZM313.36,359.04h-4.99v-14.96h4.99v14.96Z"/>
        <path class="cls-6" d="M306.88,179.71c-.63-.29-1.37-.29-2.01,0-1.17.52-11.47,5.25-11.47,12.25s5.54,9.46,9.98,8.07v1.91c0,1.37,1.12,2.49,2.49,2.49s2.49-1.12,2.49-2.49v-1.91c4.44,1.39,9.98-1.11,9.98-8.07s-10.29-11.74-11.47-12.25ZM310.79,195.46c-.94,0-2.43-.54-2.43-1.98s-1.12-2.49-2.49-2.49-2.49,1.12-2.49,2.49c0,1.44-1.49,1.98-2.43,1.98-1.39,0-2.56-.95-2.56-3.51s4.53-5.71,7.48-7.21c2.95,1.5,7.48,4.56,7.48,7.21s-1.18,3.51-2.56,3.51Z"/>
        <path class="cls-6" d="M208.62,343.49v-1.91c0-1.37-1.12-2.49-2.49-2.49s-2.49,1.12-2.49,2.49v1.91c-4.44-1.39-9.98,1.11-9.98,8.07s10.29,11.74,11.47,12.25c.63.29,1.37.29,2.01,0,1.17-.52,11.47-5.25,11.47-12.25s-5.54-9.46-9.98-8.07ZM206.12,358.76c-2.95-1.5-7.48-4.56-7.48-7.21s1.18-3.51,2.56-3.51c.94,0,2.43.54,2.43,1.98s1.12,2.49,2.49,2.49,2.49-1.12,2.49-2.49c0-1.44,1.49-1.98,2.43-1.98,1.39,0,2.56.95,2.56,3.51s-4.53,5.71-7.48,7.21Z"/>
        <path class="cls-6" d="M261.14,290.79s-2.44,2.69-5.36,2.69c-1.65,0-3.28-.91-4.85-2.69-.91-1.04-2.48-1.14-3.52-.23-1.04.91-1.14,2.48-.23,3.52,2.55,2.92,5.45,4.4,8.6,4.4,5.21,0,8.96-4.22,9.11-4.4.91-1.04.8-2.61-.23-3.52-1.03-.91-2.61-.81-3.52.23Z"/>
        <path class="cls-6" d="M248.55,269.27c0-1.38-1.12-2.49-2.49-2.49h-4.99c-1.38,0-2.49,1.12-2.49,2.49s1.12,2.49,2.49,2.49h4.99c1.38,0,2.49-1.12,2.49-2.49Z"/>
        <path class="cls-6" d="M271.01,266.77h-4.99c-1.38,0-2.49,1.12-2.49,2.49s1.12,2.49,2.49,2.49h4.99c1.38,0,2.49-1.12,2.49-2.49s-1.12-2.49-2.49-2.49Z"/>
        <path class="cls-6" d="M226.07,254.3c12.38,0,22.44-10.07,22.44-22.44,0-1.38-1.12-2.49-2.49-2.49s-2.49,1.12-2.49,2.49c0,9.62-7.83,17.46-17.46,17.46-1.38,0-2.49,1.12-2.49,2.49s1.12,2.49,2.49,2.49Z"/>
        <path class="cls-6" d="M226.07,244.33c6.88,0,12.47-5.59,12.47-12.47,0-1.38-1.12-2.49-2.49-2.49s-2.49,1.12-2.49,2.49c0,4.13-3.36,7.48-7.48,7.48-1.38,0-2.49,1.12-2.49,2.49s1.12,2.49,2.49,2.49Z"/>
        <path class="cls-6" d="M265.98,229.37c-1.38,0-2.49,1.12-2.49,2.49,0,12.38,10.07,22.44,22.44,22.44,1.38,0,2.49-1.12,2.49-2.49s-1.12-2.49-2.49-2.49c-9.62,0-17.46-7.83-17.46-17.46,0-1.38-1.12-2.49-2.49-2.49Z"/>
        <path class="cls-6" d="M285.93,244.33c1.38,0,2.49-1.12,2.49-2.49s-1.12-2.49-2.49-2.49c-4.13,0-7.48-3.36-7.48-7.48,0-1.38-1.12-2.49-2.49-2.49s-2.49,1.12-2.49,2.49c0,6.88,5.59,12.47,12.47,12.47Z"/>
        <path class="cls-6" d="M308.37,321.63c0-1.38-1.12-2.49-2.49-2.49-4.13,0-7.48-3.36-7.48-7.48v-64.84c0-12.33-8.17-22.78-19.38-26.23l4.3-12.89c.3-.9.06-1.88-.6-2.55-.67-.67-1.65-.89-2.55-.6l-13.5,4.5-8.88-8.88c-.97-.97-2.55-.97-3.53,0l-8.88,8.88-13.5-4.5c-.89-.28-1.88-.07-2.55.6s-.9,1.66-.6,2.55l4.3,12.89c-11.21,3.45-19.38,13.9-19.38,26.23v64.84c0,4.13-3.36,7.48-7.48,7.48-1.38,0-2.49,1.12-2.49,2.49s1.12,2.49,2.49,2.49c6.88,0,12.47-5.59,12.47-12.47v-64.84c0-12.38,10.07-22.44,22.44-22.44h29.93c12.38,0,22.44,10.07,22.44,22.44v64.84c0,6.88,5.59,12.47,12.47,12.47,1.38,0,2.49-1.12,2.49-2.49ZM274.09,219.57c-1.03-.12-2.07-.18-3.13-.18h-29.93c-1.06,0-2.1.07-3.13.18l-2.9-8.71,10.23,3.41c.9.29,1.88.06,2.55-.6l8.21-8.21,8.21,8.21c.67.67,1.67.89,2.55.6l10.23-3.41-2.9,8.71Z"/>
        <path class="cls-6" d="M294.01,326.07c-4.22-1.05-7.88-3.63-10.29-7.25l-5.27-7.91v-9.67c4.28-4.03,7.48-8.91,7.48-14.51,0-5.15.24-17.23.35-22.48,1.21-.17,2.15-1.2,2.15-2.46,0-1.38-1.12-2.49-2.49-2.49-15.13,0-27.43-12.3-27.43-27.43,0-1.38-1.12-2.49-2.49-2.49s-2.49,1.12-2.49,2.49c0,15.13-12.3,27.43-27.43,27.43-1.38,0-2.49,1.12-2.49,2.49,0,1.26.94,2.29,2.15,2.46.11,5.25.34,17.33.34,22.48,0,5.6,3.2,10.48,7.48,14.51v9.67l-5.27,7.91c-2.42,3.62-6.07,6.2-10.29,7.25-1.33.34-2.15,1.69-1.82,3.02.3,1.22,1.58,2.18,3.02,1.82,5.42-1.36,10.13-4.67,13.23-9.33l3.62-5.43,17.87,26.81c.46.69,1.24,1.11,2.07,1.11s1.61-.42,2.07-1.11l17.87-26.81,3.62,5.43c3.1,4.66,7.81,7.97,13.23,9.33,1.45.36,2.72-.6,3.02-1.82.33-1.33-.48-2.69-1.82-3.02ZM273.46,310.9l-17.46,26.18-17.46-26.18v-5.62c7.6,5.39,15.96,8.49,16.6,8.72.28.1.57.15.85.15s.57-.05.85-.15c.64-.23,9.01-3.33,16.6-8.72v5.62ZM256,308.99c-7.69-2.98-24.94-11.86-24.94-22.27,0-5.24-.24-17.63-.35-22.79,11.43-1.65,20.96-9.28,25.28-19.61,4.32,10.33,13.85,17.96,25.29,19.61-.11,5.15-.35,17.55-.35,22.79,0,10.42-17.25,19.29-24.94,22.27Z"/>
        <path class="cls-6" d="M315.85,169.52h-119.7c-6.88,0-12.47,5.59-12.47,12.47v179.55c0,6.88,5.59,12.47,12.47,12.47h119.7c6.88,0,12.47-5.59,12.47-12.47v-179.55c0-6.88-5.59-12.47-12.47-12.47ZM323.33,361.53c0,4.12-3.36,7.48-7.48,7.48h-119.7c-4.13,0-7.48-3.36-7.48-7.48v-179.55c0-4.12,3.36-7.48,7.48-7.48h119.7c4.13,0,7.48,3.36,7.48,7.48v179.55Z"/>
      </g>
    </g>
  </g>
</svg>