<?xml version="1.0" encoding="UTF-8"?>
<svg id="Layer_2" data-name="Layer 2" xmlns="http://www.w3.org/2000/svg" xmlns:xlink="http://www.w3.org/1999/xlink" viewBox="0 0 512 512">
  <defs>
    <style>
      .cls-1 {
        fill: none;
      }

      .cls-2 {
        fill: #92bdc8;
      }

      .cls-3 {
        fill: url(#New_Pattern_Swatch_1);
        stroke: url(#New_Pattern_Swatch_1);
        stroke-miterlimit: 10;
        stroke-width: .25px;
      }
    </style>
    <pattern id="New_Pattern_Swatch_1" data-name="New Pattern Swatch 1" x="0" y="0" width="74.6" height="74.6" patternTransform="translate(-7571.84 -1066.83)" patternUnits="userSpaceOnUse" viewBox="0 0 74.6 74.6">
      <g>
        <rect class="cls-1" width="74.6" height="74.6"/>
        <rect class="cls-2" x="0" width="74.6" height="74.6"/>
      </g>
    </pattern>
  </defs>
  <g>
    <path class="cls-3" d="M109.26,125.49h5.39l1.06,1.06c.59.59,1.54.59,2.13,0s.59-1.54,0-2.13l-1.06-1.06v-11.41c0-.83-.67-1.5-1.5-1.5h-6.01c-.83,0-1.5.67-1.5,1.5v12.03c0,.83.67,1.5,1.5,1.5ZM110.76,113.46h3.01v9.02h-3.01v-9.02Z"/>
    <path class="cls-3" d="M181.44,206.7h-5.39l-1.06-1.06c-.59-.59-1.54-.59-2.13,0s-.59,1.54,0,2.13l1.06,1.06v11.41c0,.83.67,1.5,1.5,1.5h6.01c.83,0,1.5-.67,1.5-1.5v-12.03c0-.83-.67-1.5-1.5-1.5ZM179.93,218.73h-3.01v-9.02h3.01v9.02Z"/>
    <path class="cls-3" d="M181.44,104.44h-72.18c-4.15,0-7.52,3.37-7.52,7.52v108.27c0,4.15,3.37,7.52,7.52,7.52h72.18c4.15,0,7.52-3.37,7.52-7.52v-108.27c0-4.15-3.37-7.52-7.52-7.52ZM185.95,220.23c0,2.49-2.02,4.51-4.51,4.51h-72.18c-2.49,0-4.51-2.02-4.51-4.51v-108.27c0-2.49,2.02-4.51,4.51-4.51h72.18c2.49,0,4.51,2.02,4.51,4.51v108.27Z"/>
    <path class="cls-3" d="M148.45,177.57s-1.47,1.62-3.23,1.62c-1,0-1.98-.55-2.93-1.62-.55-.63-1.5-.69-2.12-.14-.63.55-.69,1.5-.14,2.12,1.54,1.76,3.29,2.65,5.19,2.65,3.14,0,5.4-2.54,5.5-2.65.55-.63.48-1.57-.14-2.12-.62-.55-1.57-.49-2.12.14Z"/>
    <path class="cls-3" d="M140.86,164.59c0-.83-.67-1.5-1.5-1.5h-3.01c-.83,0-1.5.67-1.5,1.5s.67,1.5,1.5,1.5h3.01c.83,0,1.5-.67,1.5-1.5Z"/>
    <path class="cls-3" d="M154.4,163.09h-3.01c-.83,0-1.5.67-1.5,1.5s.67,1.5,1.5,1.5h3.01c.83,0,1.5-.67,1.5-1.5s-.67-1.5-1.5-1.5Z"/>
    <path class="cls-3" d="M127.3,155.57c7.46,0,13.53-6.07,13.53-13.53,0-.83-.67-1.5-1.5-1.5s-1.5.67-1.5,1.5c0,5.8-4.72,10.53-10.53,10.53-.83,0-1.5.67-1.5,1.5s.67,1.5,1.5,1.5Z"/>
    <path class="cls-3" d="M127.3,149.55c4.15,0,7.52-3.37,7.52-7.52,0-.83-.67-1.5-1.5-1.5s-1.5.67-1.5,1.5c0,2.49-2.02,4.51-4.51,4.51-.83,0-1.5.67-1.5,1.5s.67,1.5,1.5,1.5Z"/>
    <path class="cls-3" d="M151.36,140.53c-.83,0-1.5.67-1.5,1.5,0,7.46,6.07,13.53,13.53,13.53.83,0,1.5-.67,1.5-1.5s-.67-1.5-1.5-1.5c-5.8,0-10.53-4.72-10.53-10.53,0-.83-.67-1.5-1.5-1.5Z"/>
    <path class="cls-3" d="M163.39,149.55c.83,0,1.5-.67,1.5-1.5s-.67-1.5-1.5-1.5c-2.49,0-4.51-2.02-4.51-4.51,0-.83-.67-1.5-1.5-1.5s-1.5.67-1.5,1.5c0,4.15,3.37,7.52,7.52,7.52Z"/>
    <path class="cls-3" d="M176.93,196.17c0-.83-.67-1.5-1.5-1.5-2.49,0-4.51-2.02-4.51-4.51v-39.1c0-7.43-4.93-13.74-11.69-15.81l2.59-7.77c.18-.54.04-1.14-.36-1.54-.4-.41-.99-.53-1.54-.36l-8.14,2.71-5.36-5.36c-.59-.59-1.54-.59-2.13,0l-5.36,5.36-8.14-2.71c-.54-.17-1.13-.04-1.54.36s-.54,1-.36,1.54l2.59,7.77c-6.76,2.08-11.69,8.38-11.69,15.81v39.1c0,2.49-2.02,4.51-4.51,4.51-.83,0-1.5.67-1.5,1.5s.67,1.5,1.5,1.5c4.15,0,7.52-3.37,7.52-7.52v-39.1c0-7.46,6.07-13.53,13.53-13.53h18.04c7.46,0,13.53,6.07,13.53,13.53v39.1c0,4.15,3.37,7.52,7.52,7.52.83,0,1.5-.67,1.5-1.5ZM156.26,134.63c-.62-.07-1.25-.11-1.89-.11h-18.04c-.64,0-1.27.04-1.89.11l-1.75-5.25,6.17,2.06c.54.17,1.13.04,1.54-.36l4.95-4.95,4.95,4.95c.41.4,1,.54,1.54.36l6.17-2.06-1.75,5.25Z"/>
    <path class="cls-3" d="M168.27,198.85c-2.55-.63-4.75-2.19-6.21-4.37l-3.18-4.77v-5.83c2.58-2.43,4.51-5.38,4.51-8.75,0-3.1.14-10.39.21-13.55.73-.1,1.29-.72,1.29-1.48,0-.83-.67-1.5-1.5-1.5-9.12,0-16.54-7.42-16.54-16.54,0-.83-.67-1.5-1.5-1.5s-1.5.67-1.5,1.5c0,9.12-7.42,16.54-16.54,16.54-.83,0-1.5.67-1.5,1.5,0,.76.57,1.38,1.3,1.48.06,3.16.21,10.45.21,13.55,0,3.37,1.93,6.32,4.51,8.75v5.83l-3.18,4.77c-1.46,2.19-3.66,3.74-6.21,4.37-.8.2-1.3,1.02-1.1,1.82.18.73.95,1.31,1.82,1.1,3.27-.82,6.11-2.82,7.98-5.62l2.18-3.27,10.78,16.17c.28.42.75.67,1.25.67s.97-.25,1.25-.67l10.78-16.17,2.18,3.27c1.87,2.81,4.71,4.8,7.98,5.62.87.22,1.64-.36,1.82-1.1.2-.8-.29-1.62-1.1-1.82ZM155.87,189.7l-10.53,15.79-10.53-15.79v-3.39c4.58,3.25,9.63,5.12,10.01,5.26.17.06.34.09.51.09s.35-.03.51-.09c.39-.14,5.43-2.01,10.01-5.26v3.39ZM145.35,188.55c-4.64-1.8-15.04-7.15-15.04-13.43,0-3.16-.15-10.63-.21-13.74,6.89-.99,12.64-5.59,15.25-11.82,2.61,6.23,8.35,10.83,15.25,11.82-.06,3.11-.21,10.58-.21,13.74,0,6.28-10.4,11.63-15.04,13.43Z"/>
    <path class="cls-3" d="M176.49,110.9c-.59-.59-1.54-.59-2.13,0l-6.01,6.01c-.59.59-.59,1.54,0,2.13l6.01,6.01c.59.59,1.54.59,2.13,0l6.01-6.01c.59-.59.59-1.54,0-2.13l-6.01-6.01ZM175.42,121.86l-3.89-3.89,3.89-3.89,3.89,3.89-3.89,3.89Z"/>
    <path class="cls-3" d="M116.34,207.14c-.59-.59-1.54-.59-2.13,0l-6.01,6.01c-.59.59-.59,1.54,0,2.13l6.01,6.01c.59.59,1.54.59,2.13,0l6.01-6.01c.59-.59.59-1.54,0-2.13l-6.01-6.01ZM115.27,218.1l-3.89-3.89,3.89-3.89,3.89,3.89-3.89,3.89Z"/>
  </g>
  <g>
    <path class="cls-3" d="M271.63,227.27c-5.39-.74-11.95,1.4-15.63,9.2-3.69-7.8-10.24-9.95-15.63-9.2-7.84,1.1-15.95,8.7-15.95,19.5,0,13.24,11.85,24.44,21.38,33.44,3.88,3.67,7.23,6.83,8.95,9.4.28.42.75.67,1.25.67s.97-.25,1.25-.67c1.71-2.56,5.06-5.73,8.95-9.4,9.53-9,21.38-20.2,21.38-33.44,0-10.81-8.11-18.4-15.95-19.5ZM264.13,278.03c-3.25,3.07-6.14,5.8-8.13,8.24-1.99-2.44-4.88-5.17-8.13-8.24-9.1-8.6-20.44-19.31-20.44-31.25,0-9.17,6.79-15.6,13.35-16.53,6.39-.9,11.55,3.19,13.77,10.94.19.65.82.97,1.45.97s1.26-.32,1.45-.97c2.22-7.75,7.38-11.84,13.77-10.94,6.56.92,13.35,7.36,13.35,16.53,0,11.94-11.33,22.65-20.44,31.25Z"/>
    <path class="cls-3" d="M224.42,216.6c0,.83.67,1.5,1.5,1.5s1.5-.68,1.5-1.5v-12.03c0-.98-.92-1.69-1.87-1.46l-6.01,1.5c-.67.16-1.14.77-1.14,1.46v10.53c0,.83.67,1.5,1.5,1.5s1.5-.68,1.5-1.5v-3.01h3.01v3.01ZM221.41,210.58v-3.34l3.01-.75v4.09h-3.01Z"/>
    <path class="cls-3" d="M292.09,299.3c-.83,0-1.5.68-1.5,1.5v3.01h-3.01v-3.01c0-.83-.67-1.5-1.5-1.5s-1.5.68-1.5,1.5v12.03c0,.98.92,1.69,1.87,1.46l6.01-1.5c.67-.16,1.14-.77,1.14-1.46v-10.53c0-.83-.67-1.5-1.5-1.5ZM290.59,310.16l-3.01.75v-4.09h3.01v3.34Z"/>
    <path class="cls-3" d="M292.09,197.05h-72.18c-4.15,0-7.52,3.37-7.52,7.52v108.27c0,4.15,3.37,7.52,7.52,7.52h72.18c4.15,0,7.52-3.37,7.52-7.52v-108.27c0-4.15-3.37-7.52-7.52-7.52ZM296.6,312.84c0,2.49-2.02,4.51-4.51,4.51h-72.18c-2.49,0-4.51-2.02-4.51-4.51v-108.27c0-2.49,2.02-4.51,4.51-4.51h72.18c2.49,0,4.51,2.02,4.51,4.51v108.27Z"/>
  </g>
  <g>
    <path class="cls-3" d="M348.61,317.75c-2.46-2.02-7.52-1.15-7.52,4.09,0,3.88,5.46,8.67,6.55,9.59.28.24.62.35.97.35s.69-.12.97-.35c1.1-.92,6.55-5.71,6.55-9.59,0-5.25-5.06-6.12-7.52-4.09ZM348.61,328.26c-2.12-1.98-4.51-4.83-4.51-6.42,0-1.49.66-2.12,1.54-2.12.57,0,1.46.32,1.46,1.2s.67,1.51,1.5,1.51,1.5-.67,1.5-1.51.9-1.2,1.46-1.2c.89,0,1.54.63,1.54,2.12,0,1.59-2.39,4.44-4.51,6.42Z"/>
    <path class="cls-3" d="M348.61,335.79c-2.46-2.02-7.52-1.15-7.52,4.09,0,3.88,5.46,8.67,6.55,9.59.28.24.62.35.97.35s.69-.12.97-.35c1.1-.92,6.55-5.71,6.55-9.59,0-5.25-5.06-6.12-7.52-4.09ZM348.61,346.3c-2.12-1.98-4.51-4.83-4.51-6.42,0-1.49.66-2.12,1.54-2.12.57,0,1.46.32,1.46,1.2s.67,1.51,1.5,1.51,1.5-.67,1.5-1.51.9-1.2,1.46-1.2c.89,0,1.54.63,1.54,2.12,0,1.59-2.39,4.44-4.51,6.42Z"/>
    <path class="cls-3" d="M348.61,353.84c-2.46-2.02-7.52-1.15-7.52,4.09,0,3.88,5.46,8.67,6.55,9.59.28.24.62.35.97.35s.69-.12.97-.35c1.1-.92,6.55-5.71,6.55-9.59,0-5.25-5.06-6.12-7.52-4.09ZM348.61,364.35c-2.12-1.98-4.51-4.83-4.51-6.42,0-1.49.66-2.12,1.54-2.12.57,0,1.46.32,1.46,1.2s.67,1.51,1.5,1.51,1.5-.67,1.5-1.51.9-1.2,1.46-1.2c.89,0,1.54.63,1.54,2.12,0,1.59-2.39,4.44-4.51,6.42Z"/>
    <path class="cls-3" d="M348.61,371.88c-2.46-2.02-7.52-1.15-7.52,4.09,0,3.88,5.46,8.67,6.55,9.59.28.24.62.35.97.35s.69-.12.97-.35c1.1-.92,6.55-5.71,6.55-9.59,0-5.25-5.06-6.12-7.52-4.09ZM348.61,382.39c-2.12-1.98-4.51-4.83-4.51-6.42,0-1.49.66-2.12,1.54-2.12.57,0,1.46.32,1.46,1.2s.67,1.51,1.5,1.51,1.5-.67,1.5-1.51.9-1.2,1.46-1.2c.89,0,1.54.63,1.54,2.12,0,1.59-2.39,4.44-4.51,6.42Z"/>
    <path class="cls-3" d="M383.73,331.43c.28.24.62.35.97.35s.69-.12.97-.35c1.1-.92,6.55-5.71,6.55-9.59,0-5.25-5.06-6.12-7.52-4.09-2.46-2.02-7.52-1.15-7.52,4.09,0,3.88,5.46,8.67,6.55,9.59ZM381.73,319.72c.57,0,1.46.32,1.46,1.2s.67,1.51,1.5,1.51,1.5-.67,1.5-1.51.9-1.2,1.46-1.2c.89,0,1.54.63,1.54,2.12,0,1.59-2.39,4.44-4.51,6.42-2.12-1.98-4.51-4.83-4.51-6.42,0-1.49.66-2.12,1.54-2.12Z"/>
    <path class="cls-3" d="M383.73,349.47c.28.24.62.35.97.35s.69-.12.97-.35c1.1-.92,6.55-5.71,6.55-9.59,0-5.25-5.06-6.12-7.52-4.09-2.46-2.02-7.52-1.15-7.52,4.09,0,3.88,5.46,8.67,6.55,9.59ZM381.73,337.77c.57,0,1.46.32,1.46,1.2s.67,1.51,1.5,1.51,1.5-.67,1.5-1.51.9-1.2,1.46-1.2c.89,0,1.54.63,1.54,2.12,0,1.59-2.39,4.44-4.51,6.42-2.12-1.98-4.51-4.83-4.51-6.42,0-1.49.66-2.12,1.54-2.12Z"/>
    <path class="cls-3" d="M383.73,367.52c.28.24.62.35.97.35s.69-.12.97-.35c1.1-.92,6.55-5.71,6.55-9.59,0-5.25-5.06-6.12-7.52-4.09-2.46-2.02-7.52-1.15-7.52,4.09,0,3.88,5.46,8.67,6.55,9.59ZM381.73,355.81c.57,0,1.46.32,1.46,1.2s.67,1.51,1.5,1.51,1.5-.67,1.5-1.51.9-1.2,1.46-1.2c.89,0,1.54.63,1.54,2.12,0,1.59-2.39,4.44-4.51,6.42-2.12-1.98-4.51-4.83-4.51-6.42,0-1.49.66-2.12,1.54-2.12Z"/>
    <path class="cls-3" d="M384.7,371.88c-2.46-2.02-7.52-1.15-7.52,4.09,0,3.88,5.46,8.67,6.55,9.59.28.24.62.35.97.35s.69-.12.97-.35c1.1-.92,6.55-5.71,6.55-9.59,0-5.25-5.06-6.12-7.52-4.09ZM384.7,382.39c-2.12-1.98-4.51-4.83-4.51-6.42,0-1.49.66-2.12,1.54-2.12.57,0,1.46.32,1.46,1.2s.67,1.51,1.5,1.51,1.5-.67,1.5-1.51.9-1.2,1.46-1.2c.89,0,1.54.63,1.54,2.12,0,1.59-2.39,4.44-4.51,6.42Z"/>
    <path class="cls-3" d="M366.65,362.86c-2.46-2.02-7.52-1.15-7.52,4.09,0,3.88,5.46,8.67,6.55,9.59.28.24.62.35.97.35s.69-.12.97-.35c1.1-.92,6.55-5.71,6.55-9.59,0-5.25-5.06-6.12-7.52-4.09ZM366.65,373.37c-2.12-1.98-4.51-4.83-4.51-6.42,0-1.49.66-2.12,1.54-2.12.57,0,1.46.32,1.46,1.2s.67,1.51,1.5,1.51,1.5-.67,1.5-1.51.9-1.2,1.46-1.2c.89,0,1.54.63,1.54,2.12,0,1.59-2.39,4.44-4.51,6.42Z"/>
    <path class="cls-3" d="M366.65,326.77c-2.46-2.02-7.52-1.15-7.52,4.09,0,3.88,5.46,8.67,6.55,9.59.28.24.62.35.97.35s.69-.12.97-.35c1.1-.92,6.55-5.71,6.55-9.59,0-5.25-5.06-6.12-7.52-4.09ZM366.65,337.28c-2.12-1.98-4.51-4.83-4.51-6.42,0-1.49.66-2.12,1.54-2.12.57,0,1.46.32,1.46,1.2s.67,1.51,1.5,1.51,1.5-.67,1.5-1.51.9-1.2,1.46-1.2c.89,0,1.54.63,1.54,2.12,0,1.59-2.39,4.44-4.51,6.42Z"/>
    <path class="cls-3" d="M330.56,295.67c-.83,0-1.5.67-1.5,1.5v12.03c0,.83.67,1.5,1.5,1.5s1.5-.67,1.5-1.5v-12.03c0-.83-.67-1.5-1.5-1.5Z"/>
    <path class="cls-3" d="M402.74,391.91c-.83,0-1.5.67-1.5,1.5v12.03c0,.83.67,1.5,1.5,1.5s1.5-.67,1.5-1.5v-12.03c0-.83-.67-1.5-1.5-1.5Z"/>
    <path class="cls-3" d="M402.74,289.66h-72.18c-4.15,0-7.52,3.37-7.52,7.52v108.27c0,4.15,3.37,7.52,7.52,7.52h72.18c4.15,0,7.52-3.37,7.52-7.52v-108.27c0-4.15-3.37-7.52-7.52-7.52ZM407.25,405.45c0,2.49-2.02,4.51-4.51,4.51h-72.18c-2.49,0-4.51-2.02-4.51-4.51v-108.27c0-2.49,2.02-4.51,4.51-4.51h72.18c2.49,0,4.51,2.02,4.51,4.51v108.27Z"/>
    <path class="cls-3" d="M344.1,309.21v-12.03c0-.83-.67-1.5-1.5-1.5h-6.01c-.83,0-1.5.67-1.5,1.5v12.03c0,.83.67,1.5,1.5,1.5h6.01c.83,0,1.5-.67,1.5-1.5ZM341.09,307.7h-3.01v-9.02h3.01v9.02Z"/>
    <path class="cls-3" d="M396.73,391.91h-6.01c-.83,0-1.5.67-1.5,1.5v12.03c0,.83.67,1.5,1.5,1.5h6.01c.83,0,1.5-.67,1.5-1.5v-12.03c0-.83-.67-1.5-1.5-1.5ZM395.22,403.94h-3.01v-9.02h3.01v9.02Z"/>
  </g>
  <g>
    <path class="cls-3" d="M149.1,363.48c-.39.38-3.89,3.61-7.5,0-.59-.59-1.54-.59-2.13,0s-.59,1.54,0,2.13c1.91,1.91,3.89,2.6,5.71,2.6,2.6,0,4.85-1.4,6.04-2.6.58-.59.58-1.53,0-2.12-.58-.58-1.53-.59-2.12-.01Z"/>
    <path class="cls-3" d="M140.54,349.97c0-.83-.67-1.5-1.5-1.5h-3.01c-.83,0-1.5.68-1.5,1.5s.67,1.5,1.5,1.5h3.01c.83,0,1.5-.68,1.5-1.5Z"/>
    <path class="cls-3" d="M154.67,348.46h-3.01c-.83,0-1.5.68-1.5,1.5s.67,1.5,1.5,1.5h3.01c.83,0,1.5-.68,1.5-1.5s-.67-1.5-1.5-1.5Z"/>
    <path class="cls-3" d="M176.77,388.07c.37-.74.07-1.64-.67-2.01l-12.03-6.01c-.48-.25-1.06-.21-1.51.09l-.89.59.24-8.62c2.63-2.09,4.19-5.27,4.19-8.8l-.43-8.69h1.34c2.16,0,3.91-1.76,3.91-3.91v-4.81c0-2.16-1.75-3.91-3.91-3.91h-1.97l-.13-2.55,5.96-23.85c.15-.61-.09-1.23-.59-1.59-.51-.35-1.19-.37-1.7-.02l-16.41,10.94-5.39-16.18c-.41-1.22-2.44-1.22-2.85,0l-5.39,16.18-16.41-10.94c-.52-.35-1.2-.33-1.7.02-.51.36-.74.99-.59,1.59l5.96,23.85-.13,2.55h-1.97c-2.16,0-3.91,1.76-3.91,3.91v4.81c0,2.16,1.76,3.91,3.91,3.91h1.34l-.44,8.76c0,3.46,1.56,6.63,4.19,8.72l.24,8.62-.89-.59c-.45-.31-1.03-.34-1.51-.09l-12.03,6.01c-.74.37-1.04,1.27-.67,2.01.38.75,1.27,1.05,2.02.68l11.25-5.63,17.32,11.55c.25.17.54.25.83.25s.58-.08.83-.25l17.32-11.55,11.25,5.63c.75.37,1.65.07,2.02-.68ZM167,345c.49,0,.9.42.9.9v4.81c0,.49-.41.9-.9.9h-1.49l-.33-6.62h1.82ZM125.18,351.62h-1.49c-.49,0-.9-.42-.9-.9v-4.81c0-.49.41-.9.9-.9h1.82l-.33,6.62ZM123.69,318.63l14.81,9.87c.39.25.88.31,1.32.17.44-.15.79-.5.94-.95l4.59-13.76,4.59,13.76c.15.45.5.79.94.95.44.15.93.08,1.32-.17l14.81-9.87-4.65,18.61c-2.63-.93-8.29-2.47-17.01-2.47s-14.37,1.54-17.01,2.47l-4.65-18.61ZM158.61,382.77l-13.26,8.84-13.26-8.84-.24-8.86,8.74,4.37c1.49.75,3.13,1.12,4.77,1.12s3.27-.38,4.76-1.12l8.74-4.37-.24,8.86ZM158.59,370.68l-9.82,4.91c-2.14,1.08-4.7,1.07-6.83,0l-9.82-4.91c-2.78-1.39-4.51-4.18-4.51-7.21l1.15-23.17c1.94-.75,7.49-2.52,16.59-2.52s14.66,1.77,16.59,2.52l1.15,23.09c0,3.11-1.73,5.9-4.51,7.29Z"/>
    <path class="cls-3" d="M176.03,295.8c-.38-.18-.83-.18-1.21,0-.71.31-6.91,3.17-6.91,7.39s3.34,5.7,6.01,4.86v1.15c0,.83.67,1.5,1.5,1.5s1.5-.68,1.5-1.5v-1.15c2.67.84,6.01-.67,6.01-4.86s-6.21-7.08-6.91-7.39ZM178.39,305.31c-.57,0-1.46-.32-1.46-1.19s-.67-1.5-1.5-1.5-1.5.68-1.5,1.5c0,.87-.9,1.19-1.46,1.19-.84,0-1.54-.57-1.54-2.11s2.73-3.44,4.51-4.35c1.78.9,4.51,2.75,4.51,4.35s-.71,2.11-1.54,2.11Z"/>
    <path class="cls-3" d="M116.78,394.57v-1.15c0-.83-.67-1.5-1.5-1.5s-1.5.68-1.5,1.5v1.15c-2.67-.84-6.01.67-6.01,4.86s6.21,7.08,6.91,7.39c.38.18.83.18,1.21,0,.71-.31,6.91-3.17,6.91-7.39s-3.34-5.7-6.01-4.86ZM115.27,403.78c-1.78-.9-4.51-2.75-4.51-4.35s.71-2.11,1.54-2.11c.57,0,1.46.32,1.46,1.19s.67,1.5,1.5,1.5,1.5-.68,1.5-1.5c0-.87.9-1.19,1.46-1.19.84,0,1.54.57,1.54,2.11s-2.73,3.44-4.51,4.35Z"/>
    <path class="cls-3" d="M109.26,310.71c.83,0,1.5-.67,1.5-1.5v-2.38l3.45,3.45c.59.59,1.54.59,2.13,0s.59-1.54,0-2.13l-4.95-4.95,4.95-4.95c.59-.59.59-1.54,0-2.13s-1.54-.59-2.13,0l-3.45,3.45v-2.38c0-.83-.67-1.5-1.5-1.5s-1.5.67-1.5,1.5v12.03c0,.83.67,1.5,1.5,1.5Z"/>
    <path class="cls-3" d="M181.44,391.91c-.83,0-1.5.67-1.5,1.5v2.38l-3.45-3.45c-.59-.59-1.54-.59-2.13,0s-.59,1.54,0,2.13l4.95,4.95-4.95,4.95c-.59.59-.59,1.54,0,2.13s1.54.59,2.13,0l3.45-3.45v2.38c0,.83.67,1.5,1.5,1.5s1.5-.67,1.5-1.5v-12.03c0-.83-.67-1.5-1.5-1.5Z"/>
    <path class="cls-3" d="M181.44,289.66h-72.18c-4.15,0-7.52,3.37-7.52,7.52v108.27c0,4.15,3.37,7.52,7.52,7.52h72.18c4.15,0,7.52-3.37,7.52-7.52v-108.27c0-4.15-3.37-7.52-7.52-7.52ZM185.95,405.45c0,2.48-2.02,4.51-4.51,4.51h-72.18c-2.49,0-4.51-2.03-4.51-4.51v-108.27c0-2.48,2.02-4.51,4.51-4.51h72.18c2.49,0,4.51,2.03,4.51,4.51v108.27Z"/>
  </g>
  <g>
    <path class="cls-3" d="M339.59,209.7c-.53,0-1.03.09-1.5.26v-1.77c0-.83-.67-1.5-1.5-1.5s-1.5.68-1.5,1.5v1.77c-.47-.17-.98-.26-1.5-.26-2.49,0-4.51,2.03-4.51,4.51,0,2.03,1.35,3.75,3.2,4.32.56,1.85,2.28,3.2,4.32,3.2s3.75-1.35,4.32-3.2c1.85-.56,3.2-2.28,3.2-4.32,0-2.48-2.02-4.51-4.51-4.51ZM339.59,215.72c-.83,0-1.5.68-1.5,1.5s-.68,1.5-1.5,1.5-1.5-.68-1.5-1.5-.67-1.5-1.5-1.5-1.5-.68-1.5-1.5.68-1.5,1.5-1.5,1.5.68,1.5,1.5.67,1.5,1.5,1.5,1.5-.68,1.5-1.5.68-1.5,1.5-1.5,1.5.68,1.5,1.5-.68,1.5-1.5,1.5Z"/>
    <path class="cls-3" d="M401.05,113.66c-.56-1.85-2.28-3.2-4.32-3.2s-3.75,1.35-4.32,3.2c-1.85.56-3.2,2.28-3.2,4.32,0,2.48,2.02,4.51,4.51,4.51.53,0,1.03-.09,1.5-.26v1.77c0,.83.67,1.5,1.5,1.5s1.5-.68,1.5-1.5v-1.77c.47.17.98.26,1.5.26,2.49,0,4.51-2.03,4.51-4.51,0-2.03-1.35-3.75-3.2-4.32ZM399.74,119.48c-.83,0-1.5-.68-1.5-1.5s-.67-1.5-1.5-1.5-1.5.68-1.5,1.5-.68,1.5-1.5,1.5-1.5-.68-1.5-1.5.68-1.5,1.5-1.5,1.5-.68,1.5-1.5.68-1.5,1.5-1.5,1.5.68,1.5,1.5.67,1.5,1.5,1.5,1.5.68,1.5,1.5-.68,1.5-1.5,1.5Z"/>
    <path class="cls-3" d="M363.45,129.88c-.14-.82-.93-1.37-1.73-1.23-.82.14-1.37.91-1.23,1.73l1.08,6.42c-1.34-.44-3.03-.75-4.84-.43-2.45.43-4.54,1.86-6.22,4.27-.48.68-.31,1.62.37,2.09.72.5,1.65.26,2.09-.37,3.84-5.53,9.11-2.14,9.7-1.73.49.34,1.15.36,1.67.04.51-.33.78-.92.68-1.52l-1.56-9.26Z"/>
    <path class="cls-3" d="M368.98,140.66c.52.32,1.17.31,1.67-.04.59-.41,5.85-3.8,9.7,1.73.44.63,1.37.88,2.09.37.68-.48.85-1.41.37-2.09-1.68-2.41-3.77-3.84-6.22-4.27-1.81-.32-3.51,0-4.84.43l1.08-6.42c.14-.82-.41-1.59-1.23-1.73-.8-.14-1.6.41-1.73,1.23l-1.56,9.26c-.1.6.17,1.19.68,1.52Z"/>
    <path class="cls-3" d="M370.4,178.26c-3.6,3.6-7.12.37-7.5,0-.59-.59-1.54-.59-2.13,0s-.59,1.54,0,2.13c1.2,1.2,3.45,2.59,6.04,2.59,1.81,0,3.8-.68,5.71-2.59.59-.59.59-1.54,0-2.13s-1.54-.59-2.13,0Z"/>
    <path class="cls-3" d="M375.98,163.24h-3.01c-.83,0-1.5.67-1.5,1.5s.67,1.5,1.5,1.5h3.01c.83,0,1.5-.67,1.5-1.5s-.67-1.5-1.5-1.5Z"/>
    <path class="cls-3" d="M361.84,164.74c0-.83-.67-1.5-1.5-1.5h-3.01c-.83,0-1.5.67-1.5,1.5s.67,1.5,1.5,1.5h3.01c.83,0,1.5-.67,1.5-1.5Z"/>
    <path class="cls-3" d="M398.07,202.86c.37-.74.07-1.64-.67-2.02l-12.03-6.01c-.48-.24-1.05-.21-1.51.09l-.85.57.15-8.65c2.04-1.86,3.04-4.73,3.04-8.71v-8.72h2.11c2.16,0,3.91-1.75,3.91-3.91v-4.81c0-2.16-1.75-3.91-3.91-3.91h-2.11v-8.37l5.86-11.71c.21-.42.21-.92,0-1.35-.26-.53-6.65-12.86-25.41-12.86s-25.14,12.34-25.41,12.86c-.21.42-.21.92,0,1.35l5.86,11.71v8.37h-2.1c-2.16,0-3.91,1.75-3.91,3.91v4.81c0,2.16,1.76,3.91,3.91,3.91h2.1v8.72c0,3.98,1,6.85,3.04,8.71l.15,8.65-.85-.57c-.46-.3-1.03-.34-1.51-.09l-12.03,6.01c-.74.37-1.04,1.27-.67,2.02.37.74,1.27,1.05,2.02.67l11.25-5.62,17.32,11.55c.25.17.54.25.83.25s.58-.09.83-.25l17.32-11.55,11.25,5.62c.75.38,1.64.07,2.02-.67ZM347.1,166.4h-2.1c-.5,0-.9-.41-.9-.9v-4.81c0-.5.41-.9.9-.9h2.1v6.61ZM383.19,151.87c-2.8-.94-8.31-2.31-16.54-2.31s-13.74,1.37-16.54,2.31v-2.81c1.98-.76,7.52-2.51,16.54-2.51s14.56,1.75,16.54,2.51v2.81ZM388.31,159.78c.5,0,.9.41.9.9v4.81c0,.5-.41.9-.9.9h-2.11v-6.61h2.11ZM344.3,136.07c1.49-2.38,7.67-10.57,22.35-10.57s20.87,8.19,22.35,10.57l-5.03,10.06c-2.48-.92-8.24-2.59-17.33-2.59s-14.85,1.67-17.33,2.59l-5.03-10.06ZM379.98,197.51l-13.32,8.88-13.32-8.88-.14-8.8,8.71,4.35c1.49.75,3.13,1.12,4.76,1.12s3.27-.37,4.76-1.12l8.7-4.35-.14,8.8ZM379.89,185.46l-9.82,4.91c-2.14,1.07-4.69,1.07-6.83,0l-9.82-4.91c-2.26-1.13-3.3-3.46-3.3-7.34v-23.06c1.98-.76,7.52-2.51,16.54-2.51s14.56,1.75,16.54,2.51v23.06c0,3.88-1.05,6.21-3.3,7.34Z"/>
    <path class="cls-3" d="M402.74,104.44h-72.18c-4.15,0-7.52,3.37-7.52,7.52v108.27c0,4.15,3.37,7.52,7.52,7.52h72.18c4.15,0,7.52-3.37,7.52-7.52v-108.27c0-4.15-3.37-7.52-7.52-7.52ZM407.25,220.23c0,2.48-2.02,4.51-4.51,4.51h-72.18c-2.49,0-4.51-2.03-4.51-4.51v-108.27c0-2.48,2.02-4.51,4.51-4.51h72.18c2.49,0,4.51,2.03,4.51,4.51v108.27Z"/>
    <path class="cls-3" d="M330.56,125.49h6.01c.83,0,1.5-.68,1.5-1.5v-12.03c0-.83-.67-1.5-1.5-1.5s-1.5.68-1.5,1.5v10.53h-3.01v-1.5c0-.83-.67-1.5-1.5-1.5s-1.5.68-1.5,1.5v3.01c0,.83.67,1.5,1.5,1.5Z"/>
    <path class="cls-3" d="M402.74,206.7h-6.01c-.83,0-1.5.68-1.5,1.5v12.03c0,.83.67,1.5,1.5,1.5s1.5-.68,1.5-1.5v-10.53h3.01v1.5c0,.83.67,1.5,1.5,1.5s1.5-.68,1.5-1.5v-3.01c0-.83-.67-1.5-1.5-1.5Z"/>
  </g>
</svg>